<?xml version="1.0" encoding="utf-8"?>
<!DOCTYPE svg PUBLIC "-//W3C//DTD SVG 1.1//EN" "http://www.w3.org/Graphics/SVG/1.1/DTD/svg11.dtd">
<svg version="1.1" id="Layer_1" xmlns="http://www.w3.org/2000/svg" xmlns:xlink="http://www.w3.org/1999/xlink" x="0px" y="0px"
	 width="123.468px" height="52.393px" viewBox="0 0 123.468 52.393" enable-background="new 0 0 123.468 52.393"
	 xml:space="preserve">
<path fill="#BB8D40" d="M107.798,43.096c-0.899-1.286-1.823-2.521-2.776-3.675c-1.133-1.375-2.303-2.639-3.506-3.746
	c-1.376-1.265-2.791-2.324-4.239-3.104c-1.44-0.777-2.912-1.281-4.41-1.443c-0.163-0.018-0.326-0.031-0.482-0.041
	c-0.163-0.01-0.319-0.018-0.467-0.02c-1.27-0.025-2.521,0.176-3.695,0.58c-1.17,0.404-2.264,1.014-3.219,1.807
	c-0.981,0.814-1.816,1.827-2.438,3.015c-0.59,1.12-0.988,2.398-1.14,3.814c-0.02,0.181-0.036,0.363-0.047,0.544
	c-0.012,0.184-0.021,0.363-0.023,0.536c-0.04,2.093,0.452,3.829,1.29,5.214l0,0c0.94,1.555,2.322,2.667,3.88,3.342
	c0.563,0.239,1.148,0.428,1.744,0.559c0.607,0.134,1.225,0.21,1.836,0.224c0.613,0.017,1.228-0.023,1.825-0.125
	c0.592-0.095,1.17-0.248,1.722-0.458c0.701-0.266,1.362-0.622,1.954-1.072c0.505-0.381,0.961-0.828,1.351-1.342l-0.01-0.004
	l0.12-0.193c0.085-0.136,0.166-0.262,0.246-0.379c0.081-0.121,0.161-0.24,0.243-0.354c0.282-0.529,0.508-1.112,0.66-1.747
	c0.147-0.614,0.231-1.28,0.239-1.993c0.004-0.357-0.012-0.703-0.048-1.032c-0.036-0.338-0.089-0.655-0.162-0.954
	c-0.178-0.751-0.472-1.4-0.845-1.955c-0.404-0.596-0.903-1.081-1.464-1.461c-0.526-0.359-1.111-0.629-1.717-0.811
	c-0.645-0.193-1.314-0.29-1.973-0.297c-0.29-0.002-0.582,0.012-0.869,0.043c-0.289,0.031-0.569,0.081-0.837,0.145
	c-0.579,0.139-1.126,0.366-1.619,0.67v-0.001c-0.49,0.302-0.925,0.679-1.282,1.116c-0.344,0.42-0.617,0.898-0.802,1.426
	c-0.177,0.504-0.273,1.053-0.271,1.634c0.002,0.938,0.203,1.685,0.532,2.259c0.367,0.645,0.899,1.076,1.493,1.321v0.001
	c0.279,0.114,0.573,0.191,0.871,0.232c0.31,0.041,0.625,0.043,0.933,0.008c0.301-0.033,0.592-0.103,0.861-0.201
	c0.266-0.1,0.512-0.229,0.724-0.383c0.336-0.245,0.593-0.564,0.722-0.943c0.116-0.342,0.128-0.739-0.003-1.18l0,0
	c-0.031-0.104-0.071-0.195-0.117-0.271c-0.051-0.081-0.104-0.149-0.168-0.204c-0.059-0.053-0.128-0.099-0.198-0.133
	c-0.076-0.038-0.157-0.065-0.235-0.082c-0.075-0.015-0.146-0.021-0.212-0.02c-0.063,0-0.124,0.01-0.174,0.023h-0.001l-0.026,0.009
	l-0.129,0.143l-0.169-0.15l-0.675-0.604l-0.17-0.15l0.153-0.17c0.077-0.086,0.173-0.164,0.281-0.229s0.227-0.116,0.353-0.152
	c0.152-0.045,0.324-0.072,0.509-0.078c0.17-0.004,0.352,0.01,0.53,0.048c0.193,0.04,0.388,0.104,0.574,0.197
	c0.171,0.085,0.338,0.198,0.494,0.337c0.155,0.139,0.298,0.304,0.417,0.496c0.109,0.179,0.202,0.381,0.27,0.606
	c0.217,0.738,0.195,1.412-0.004,2.001c-0.221,0.647-0.656,1.189-1.223,1.603c-0.311,0.228-0.662,0.415-1.039,0.556l0,0
	c-0.377,0.142-0.782,0.238-1.195,0.285c-0.415,0.046-0.844,0.043-1.271-0.014c-0.41-0.057-0.818-0.162-1.205-0.324
	c-0.842-0.35-1.6-0.951-2.125-1.843c-0.456-0.772-0.732-1.764-0.735-2.994c-0.002-0.742,0.121-1.442,0.347-2.087
	c0.236-0.676,0.588-1.291,1.029-1.83c0.452-0.555,1.001-1.03,1.616-1.41c0.615-0.379,1.302-0.664,2.026-0.838
	c0.327-0.078,0.663-0.138,1.001-0.175c0.335-0.037,0.68-0.054,1.029-0.051c0.79,0.007,1.594,0.124,2.364,0.356
	c0.732,0.221,1.439,0.547,2.082,0.984c0.695,0.472,1.315,1.075,1.817,1.816h0.001c0.462,0.684,0.822,1.484,1.045,2.41
	c0.086,0.357,0.149,0.732,0.19,1.121c0.041,0.376,0.061,0.773,0.057,1.189c-0.004,0.359-0.025,0.706-0.061,1.038
	c-0.012,0.122-0.027,0.241-0.044,0.361c0.561-0.456,1.136-0.823,1.716-1.11c0.807-0.4,1.624-0.648,2.421-0.762
	c0.604-0.087,1.198-0.098,1.771-0.043c0.6,0.058,1.173,0.188,1.709,0.379l0,0C107.488,42.964,107.644,43.026,107.798,43.096
	 M115.564,48.312c-0.617-0.236-1.091-0.615-1.428-1.082c-0.362-0.502-0.563-1.105-0.613-1.741c-0.024-0.292-0.015-0.593,0.027-0.896
	c0.04-0.301,0.113-0.604,0.216-0.898c0.103-0.298,0.238-0.588,0.399-0.863c0.159-0.268,0.348-0.523,0.563-0.76
	c0.548-0.604,1.271-1.08,2.146-1.314c0.771-0.205,1.66-0.225,2.65,0.023c0.672,0.166,1.253,0.439,1.748,0.791
	c0.535,0.378,0.969,0.846,1.303,1.371c0.223,0.348,0.402,0.717,0.54,1.099c0.14,0.394,0.239,0.808,0.294,1.228
	c0.056,0.405,0.071,0.816,0.048,1.223c-0.022,0.41-0.083,0.818-0.182,1.211c-0.163,0.659-0.434,1.285-0.799,1.826l0,0
	c-0.352,0.521-0.793,0.97-1.316,1.306c-0.995,0.634-1.976,0.939-2.931,0.991c-1.065,0.057-2.092-0.201-3.056-0.662
	c-0.788-0.38-1.53-0.896-2.216-1.482c-0.625-0.537-1.204-1.134-1.728-1.742l-0.003,0.107c-0.012,0.268-0.047,0.541-0.107,0.816
	c-0.22,0.988-0.624,1.745-1.134,2.301c-0.585,0.638-1.312,1.009-2.059,1.158c-0.297,0.057-0.602,0.08-0.903,0.068
	c-0.309-0.01-0.612-0.057-0.898-0.135l0,0c-0.288-0.077-0.568-0.189-0.828-0.33h-0.001c-0.258-0.14-0.497-0.311-0.712-0.507
	c-0.463-0.424-0.8-0.967-0.936-1.597c-0.123-0.566-0.081-1.201,0.181-1.881l0.08-0.211l0.211,0.08l0.846,0.324l0.212,0.08
	l-0.081,0.212c-0.153,0.4-0.181,0.77-0.112,1.093c0.072,0.355,0.262,0.659,0.521,0.897h-0.001c0.129,0.119,0.279,0.225,0.443,0.313
	c0.165,0.087,0.345,0.16,0.533,0.208h0.001c0.192,0.055,0.393,0.086,0.591,0.094c0.194,0.008,0.396-0.008,0.592-0.049
	c0.485-0.095,0.96-0.346,1.347-0.779c0.345-0.39,0.624-0.927,0.781-1.634c0.118-0.533,0.099-1.059-0.038-1.553
	c-0.146-0.522-0.421-1.013-0.795-1.44c-0.263-0.3-0.574-0.573-0.931-0.808c-0.35-0.231-0.742-0.428-1.159-0.578l0,0
	c-0.438-0.154-0.902-0.262-1.389-0.307c-0.466-0.045-0.95-0.036-1.444,0.035c-0.934,0.133-1.899,0.488-2.84,1.117
	c-0.854,0.569-1.688,1.363-2.459,2.422c-0.495,0.918-1.143,1.701-1.897,2.346c-0.799,0.685-1.72,1.214-2.711,1.589
	c-0.633,0.239-1.297,0.416-1.977,0.526c-0.682,0.111-1.382,0.158-2.082,0.141c-0.705-0.02-1.409-0.105-2.096-0.253
	c-0.683-0.149-1.35-0.36-1.989-0.638c-0.959-0.412-1.859-0.972-2.657-1.671c-0.748-0.654-1.403-1.435-1.932-2.338
	c-0.628-0.538-1.311-0.938-1.997-1.206c-0.746-0.289-1.5-0.426-2.204-0.419c-0.281,0.003-0.556,0.028-0.818,0.079
	c-0.26,0.047-0.509,0.118-0.74,0.209c-0.222,0.09-0.432,0.2-0.621,0.332c-0.185,0.125-0.35,0.271-0.494,0.434
	c-0.204,0.232-0.366,0.504-0.473,0.813c-0.104,0.297-0.159,0.631-0.155,0.996c0.006,0.547,0.135,1.004,0.344,1.373
	c0.232,0.411,0.566,0.714,0.94,0.911V50.68c0.145,0.075,0.295,0.133,0.447,0.177c0.155,0.045,0.314,0.073,0.471,0.085h0.001
	c0.157,0.012,0.31,0.008,0.456-0.012c0.143-0.02,0.283-0.054,0.414-0.102c0.259-0.097,0.486-0.26,0.653-0.485
	c0.146-0.194,0.247-0.439,0.285-0.737l0.005-0.056l0.002-0.021c0.005-0.075,0.002-0.152-0.013-0.225l0,0
	c-0.014-0.068-0.035-0.129-0.065-0.18c-0.017-0.031-0.038-0.056-0.057-0.07c-0.008-0.006-0.016-0.01-0.024-0.014h-0.007
	l-0.012-0.001l-0.228-0.019l0.02-0.228l0.011-0.125V48.56h0.01l0.059-0.672l0.02-0.227l0.226,0.02h0.013l0.01,0.004
	c0.25,0.024,0.467,0.107,0.654,0.23h-0.001c0.2,0.134,0.364,0.316,0.485,0.526c0.102,0.174,0.174,0.37,0.219,0.573
	c0.043,0.205,0.058,0.42,0.041,0.627l-0.002,0.021l-0.003,0.016c-0.061,0.595-0.26,1.092-0.557,1.488
	c-0.326,0.434-0.768,0.746-1.266,0.933c-0.224,0.088-0.461,0.146-0.705,0.179c-0.244,0.035-0.494,0.041-0.743,0.023
	c-0.247-0.02-0.497-0.066-0.741-0.136c-0.237-0.068-0.477-0.163-0.706-0.282c-0.59-0.31-1.116-0.781-1.481-1.415
	c-0.324-0.56-0.525-1.248-0.533-2.06c-0.004-0.539,0.078-1.033,0.235-1.478c0.165-0.47,0.415-0.886,0.73-1.243
	c0.214-0.243,0.461-0.459,0.733-0.646c0.275-0.189,0.579-0.352,0.904-0.48c0.31-0.123,0.639-0.219,0.982-0.281
	c0.341-0.064,0.698-0.1,1.065-0.104c0.616-0.006,1.262,0.074,1.906,0.248c0.45,0.12,0.904,0.287,1.35,0.501
	c-0.134-0.46-0.24-0.943-0.314-1.447c-0.099-0.671-0.146-1.384-0.132-2.137c0.003-0.214,0.012-0.417,0.024-0.61
	c0.014-0.202,0.029-0.398,0.049-0.592c0.173-1.597,0.624-3.039,1.291-4.308c0.708-1.347,1.658-2.495,2.774-3.423l0.002-0.002
	l0.132-0.109l-0.013-0.017l0.182-0.138c1.234-0.948,2.237-2.006,3.024-3.098c0.86-1.196,1.46-2.437,1.811-3.62
	c0.184-0.618,0.3-1.221,0.35-1.792c0.051-0.578,0.033-1.123-0.049-1.618c-0.077-0.466-0.215-0.887-0.406-1.248l0,0
	c-0.183-0.345-0.418-0.636-0.7-0.854l-0.004-0.001c-0.213-0.167-0.459-0.296-0.732-0.382h-0.001c-0.27-0.086-0.57-0.13-0.896-0.129
	c-0.72,0.001-1.311,0.186-1.776,0.485c-0.52,0.336-0.887,0.821-1.104,1.365c-0.079,0.194-0.136,0.399-0.178,0.608
	c-0.043,0.214-0.065,0.43-0.066,0.642c-0.001,0.21,0.015,0.424,0.05,0.633c0.036,0.205,0.089,0.404,0.16,0.592
	c0.176,0.466,0.468,0.873,0.871,1.153c0.362,0.252,0.819,0.403,1.367,0.403c0.159,0,0.309-0.032,0.443-0.085h0.001
	c0.149-0.06,0.289-0.151,0.411-0.259c0.083-0.074,0.157-0.155,0.222-0.239c0.067-0.088,0.125-0.181,0.17-0.273
	c0.042-0.086,0.075-0.172,0.097-0.256l0,0c0.02-0.078,0.03-0.154,0.03-0.227c0-0.047-0.005-0.089-0.015-0.121l0,0
	c-0.007-0.022-0.016-0.039-0.023-0.049l-0.15-0.169l0.169-0.15l0.679-0.604l0.17-0.151l0.15,0.17
	c0.13,0.146,0.225,0.311,0.288,0.489c0.064,0.184,0.096,0.381,0.096,0.584c0,0.173-0.023,0.355-0.07,0.539
	c-0.045,0.18-0.112,0.362-0.2,0.542h0.001c-0.084,0.171-0.188,0.341-0.309,0.5h-0.001c-0.119,0.157-0.254,0.303-0.397,0.433
	c-0.24,0.211-0.519,0.391-0.828,0.513c-0.287,0.112-0.6,0.177-0.933,0.177c-0.853,0-1.569-0.239-2.145-0.639
	c-0.635-0.44-1.093-1.078-1.367-1.802c-0.101-0.269-0.178-0.55-0.227-0.837c-0.05-0.286-0.073-0.583-0.07-0.881
	c0.004-0.299,0.035-0.6,0.093-0.891c0.055-0.287,0.138-0.573,0.25-0.85c0.315-0.794,0.851-1.506,1.609-2
	c0.67-0.438,1.513-0.705,2.532-0.708c0.479-0.001,0.925,0.066,1.33,0.196c0.422,0.137,0.801,0.338,1.136,0.598l0.203,0.158
	L89.498,19c0.337,0.303,0.622,0.671,0.85,1.089c0.275,0.501,0.465,1.075,0.569,1.703c0.1,0.599,0.122,1.251,0.064,1.934
	c-0.055,0.667-0.189,1.368-0.4,2.083c-0.252,0.845-0.616,1.714-1.095,2.58c-0.337,0.608-0.732,1.213-1.185,1.807
	c0.463-0.137,0.937-0.246,1.414-0.325c0.729-0.122,1.474-0.178,2.224-0.163c0.188,0.004,0.367,0.012,0.541,0.021
	c0.178,0.012,0.356,0.026,0.529,0.045c1.665,0.18,3.291,0.729,4.865,1.574c1.571,0.84,3.094,1.973,4.563,3.324
	c1.447,1.332,2.847,2.879,4.192,4.571c1.344,1.687,2.635,3.521,3.864,5.429c0.645,0.998,1.545,2.229,2.618,3.301
	c0.799,0.795,1.693,1.505,2.647,1.965c0.76,0.362,1.563,0.567,2.395,0.522c0.738-0.041,1.501-0.277,2.277-0.772
	c0.367-0.235,0.682-0.559,0.933-0.939c0.266-0.403,0.467-0.872,0.592-1.371c0.076-0.312,0.126-0.635,0.145-0.961
	c0.018-0.322,0.006-0.648-0.038-0.969c-0.044-0.321-0.118-0.641-0.227-0.945c-0.104-0.293-0.239-0.574-0.404-0.831
	c-0.242-0.379-0.558-0.718-0.946-0.993c-0.362-0.256-0.789-0.455-1.285-0.578l0,0c-0.735-0.184-1.388-0.175-1.946-0.031
	c-0.623,0.162-1.134,0.495-1.519,0.918c-0.152,0.168-0.285,0.35-0.399,0.541c-0.117,0.197-0.213,0.403-0.285,0.613
	c-0.072,0.205-0.123,0.416-0.151,0.625c-0.027,0.206-0.034,0.413-0.019,0.614c0.03,0.384,0.147,0.743,0.355,1.036
	c0.19,0.27,0.461,0.486,0.813,0.621l0.212,0.082l-0.081,0.21l-0.322,0.849l-0.082,0.214L115.564,48.312z"/>
<path fill-rule="evenodd" clip-rule="evenodd" fill="#BB8D40" d="M91.569,40.647c0.382,0,0.729,0.155,0.979,0.406v0.001h0.001
	c0.251,0.25,0.406,0.599,0.406,0.979c0,0.383-0.155,0.729-0.407,0.98l0.001,0.002c-0.251,0.25-0.598,0.405-0.98,0.405
	c-0.384,0-0.729-0.155-0.98-0.405c-0.251-0.252-0.406-0.6-0.406-0.982c0-0.381,0.155-0.73,0.406-0.98l0,0
	C90.84,40.802,91.186,40.647,91.569,40.647 M77.712,47.606c0.383,0,0.729,0.155,0.98,0.406v0.001l0.001,0.001
	c0.25,0.25,0.406,0.598,0.406,0.979s-0.156,0.729-0.406,0.979l0,0c-0.251,0.252-0.598,0.408-0.981,0.408
	c-0.382,0-0.729-0.156-0.98-0.408l0,0c-0.251-0.25-0.406-0.597-0.406-0.979s0.155-0.729,0.406-0.979v-0.002
	C76.985,47.761,77.332,47.606,77.712,47.606z M105.171,46.913c0.382,0,0.729,0.156,0.979,0.408h0.001l0,0
	c0.252,0.25,0.407,0.598,0.407,0.979c0,0.383-0.154,0.73-0.407,0.98v0.002c-0.25,0.25-0.597,0.406-0.979,0.406
	s-0.729-0.156-0.98-0.406c-0.251-0.252-0.406-0.599-0.406-0.982c0-0.383,0.155-0.729,0.406-0.979h0.001
	C104.444,47.069,104.79,46.913,105.171,46.913z M116.077,45.661c0.38,0,0.729,0.154,0.979,0.406h0.001l0,0
	c0.251,0.252,0.406,0.6,0.406,0.98c0,0.383-0.154,0.729-0.406,0.98v0.001c-0.251,0.251-0.599,0.406-0.98,0.406
	c-0.383,0-0.73-0.155-0.981-0.406s-0.406-0.599-0.406-0.981s0.155-0.729,0.406-0.98h0.001
	C115.347,45.815,115.695,45.661,116.077,45.661z M87.453,22.352c0.382,0,0.729,0.155,0.979,0.407v0l0,0
	c0.253,0.25,0.407,0.598,0.407,0.98c0,0.382-0.153,0.728-0.407,0.979v0c-0.251,0.251-0.597,0.407-0.979,0.407
	c-0.384,0-0.73-0.156-0.979-0.407c-0.252-0.25-0.407-0.597-0.407-0.98c0-0.383,0.155-0.73,0.407-0.98l0,0
	C86.724,22.506,87.07,22.352,87.453,22.352z"/>
<path fill="#BB8D40" d="M15.668,43.096c0.897-1.286,1.824-2.521,2.776-3.675c1.133-1.375,2.303-2.639,3.507-3.746
	c1.375-1.265,2.791-2.324,4.239-3.104c1.441-0.777,2.914-1.281,4.411-1.443c0.163-0.018,0.324-0.031,0.482-0.041
	c0.163-0.01,0.32-0.018,0.466-0.02c1.269-0.025,2.521,0.176,3.695,0.58c1.17,0.404,2.265,1.014,3.219,1.807
	c0.981,0.814,1.818,1.827,2.44,3.015c0.586,1.12,0.986,2.398,1.139,3.814c0.019,0.181,0.035,0.363,0.046,0.544
	c0.012,0.184,0.02,0.363,0.023,0.536c0.04,2.093-0.451,3.829-1.289,5.214h0.001c-0.941,1.555-2.323,2.667-3.883,3.342
	c-0.562,0.239-1.148,0.428-1.744,0.559c-0.607,0.134-1.223,0.21-1.834,0.224c-0.614,0.017-1.227-0.023-1.827-0.125
	c-0.591-0.095-1.169-0.248-1.721-0.458c-0.701-0.266-1.363-0.622-1.956-1.072c-0.504-0.381-0.959-0.828-1.351-1.342L26.52,47.7
	l-0.12-0.193c-0.085-0.136-0.166-0.262-0.245-0.379c-0.081-0.121-0.163-0.24-0.243-0.354c-0.283-0.529-0.507-1.112-0.661-1.747
	c-0.147-0.614-0.232-1.28-0.239-1.993c-0.004-0.357,0.013-0.703,0.048-1.032c0.035-0.338,0.09-0.655,0.162-0.954
	c0.18-0.751,0.473-1.4,0.847-1.955c0.403-0.596,0.903-1.081,1.461-1.461c0.528-0.359,1.112-0.629,1.718-0.811
	c0.645-0.193,1.315-0.29,1.973-0.297c0.289-0.002,0.581,0.012,0.87,0.043c0.288,0.031,0.569,0.081,0.836,0.145
	c0.578,0.139,1.126,0.366,1.62,0.67l0-0.001c0.488,0.302,0.923,0.679,1.281,1.116c0.343,0.42,0.619,0.898,0.802,1.426
	c0.177,0.504,0.272,1.053,0.271,1.634c-0.002,0.938-0.201,1.685-0.53,2.259c-0.368,0.645-0.901,1.076-1.494,1.321v0.001
	c-0.279,0.114-0.574,0.191-0.872,0.232c-0.31,0.041-0.625,0.043-0.933,0.008c-0.3-0.033-0.591-0.103-0.861-0.201
	c-0.267-0.1-0.511-0.229-0.723-0.383c-0.336-0.245-0.594-0.564-0.722-0.943c-0.116-0.342-0.127-0.739,0.002-1.18h0
	c0.031-0.104,0.072-0.195,0.117-0.271c0.049-0.081,0.106-0.149,0.167-0.204c0.06-0.053,0.128-0.099,0.198-0.133
	c0.078-0.038,0.159-0.065,0.237-0.082c0.073-0.015,0.146-0.021,0.211-0.02c0.064,0,0.124,0.01,0.174,0.023h0.001l0.027,0.009
	l0.128,0.143l0.168-0.15l0.675-0.604l0.17-0.15l-0.152-0.17c-0.079-0.086-0.174-0.164-0.283-0.229
	c-0.106-0.064-0.226-0.116-0.351-0.152c-0.153-0.045-0.326-0.072-0.509-0.078c-0.171-0.004-0.352,0.01-0.531,0.048
	c-0.193,0.04-0.388,0.104-0.574,0.197c-0.171,0.085-0.339,0.198-0.495,0.337c-0.154,0.139-0.296,0.304-0.416,0.496
	c-0.11,0.179-0.203,0.381-0.27,0.606c-0.218,0.738-0.196,1.412,0.004,2.001c0.221,0.647,0.656,1.189,1.222,1.603
	c0.311,0.228,0.663,0.415,1.04,0.556h0c0.378,0.142,0.783,0.238,1.196,0.285c0.415,0.046,0.844,0.043,1.27-0.014
	c0.411-0.057,0.817-0.162,1.205-0.324c0.844-0.35,1.602-0.951,2.126-1.843c0.455-0.772,0.733-1.764,0.736-2.994
	c0.002-0.742-0.121-1.442-0.348-2.087c-0.237-0.676-0.589-1.291-1.029-1.83c-0.453-0.555-1.001-1.03-1.617-1.41
	c-0.616-0.379-1.3-0.664-2.025-0.838c-0.327-0.078-0.664-0.138-1.001-0.175c-0.335-0.037-0.681-0.054-1.03-0.051
	c-0.791,0.007-1.594,0.124-2.365,0.356c-0.732,0.221-1.439,0.547-2.083,0.984c-0.693,0.472-1.315,1.075-1.817,1.816h0
	c-0.461,0.684-0.822,1.484-1.044,2.41c-0.086,0.357-0.151,0.732-0.192,1.121c-0.04,0.376-0.059,0.773-0.055,1.189
	c0.004,0.359,0.023,0.706,0.058,1.038c0.013,0.122,0.027,0.241,0.044,0.361c-0.561-0.456-1.135-0.823-1.715-1.11
	c-0.806-0.4-1.623-0.648-2.42-0.762c-0.604-0.087-1.199-0.098-1.771-0.043c-0.6,0.058-1.173,0.188-1.709,0.379h0
	C15.98,42.964,15.823,43.026,15.668,43.096 M7.903,48.312c0.618-0.236,1.091-0.615,1.426-1.082c0.362-0.502,0.564-1.105,0.615-1.741
	c0.023-0.292,0.014-0.593-0.027-0.896c-0.042-0.301-0.113-0.604-0.216-0.898c-0.103-0.298-0.237-0.588-0.4-0.863
	c-0.159-0.268-0.347-0.523-0.562-0.76c-0.549-0.604-1.272-1.08-2.147-1.314c-0.771-0.205-1.66-0.225-2.65,0.023
	c-0.671,0.166-1.253,0.439-1.749,0.791c-0.534,0.378-0.967,0.846-1.303,1.371c-0.222,0.348-0.401,0.717-0.538,1.099
	c-0.141,0.394-0.24,0.808-0.296,1.228c-0.054,0.405-0.068,0.816-0.046,1.223c0.022,0.41,0.083,0.818,0.181,1.211
	c0.165,0.659,0.433,1.285,0.8,1.826l0,0c0.351,0.521,0.792,0.97,1.315,1.306c0.994,0.634,1.976,0.939,2.929,0.991
	c1.067,0.057,2.094-0.201,3.059-0.662c0.787-0.38,1.53-0.896,2.213-1.482c0.626-0.537,1.206-1.134,1.728-1.742l0.003,0.107
	c0.011,0.268,0.047,0.541,0.108,0.816c0.22,0.988,0.624,1.745,1.133,2.301c0.586,0.638,1.311,1.009,2.059,1.158
	c0.298,0.057,0.602,0.08,0.902,0.068c0.309-0.01,0.613-0.057,0.9-0.135l0,0c0.287-0.077,0.567-0.189,0.828-0.33h0
	c0.257-0.14,0.498-0.311,0.711-0.507c0.462-0.424,0.8-0.967,0.936-1.597c0.122-0.566,0.08-1.201-0.18-1.881l-0.082-0.211
	l-0.211,0.08L18.5,48.134l-0.212,0.08l0.082,0.212c0.153,0.4,0.181,0.77,0.113,1.093c-0.074,0.355-0.263,0.659-0.522,0.897h0
	c-0.13,0.119-0.279,0.225-0.444,0.313c-0.165,0.087-0.344,0.16-0.531,0.208h-0.001c-0.193,0.055-0.393,0.086-0.592,0.094
	c-0.195,0.008-0.395-0.008-0.593-0.049c-0.485-0.095-0.958-0.346-1.345-0.779c-0.346-0.39-0.624-0.927-0.782-1.634
	c-0.119-0.533-0.097-1.059,0.039-1.553c0.144-0.522,0.419-1.013,0.794-1.44c0.262-0.3,0.576-0.573,0.929-0.808
	c0.351-0.231,0.741-0.428,1.162-0.578l0,0c0.436-0.154,0.901-0.262,1.386-0.307c0.465-0.045,0.951-0.036,1.445,0.035
	c0.932,0.133,1.899,0.488,2.841,1.117c0.853,0.569,1.687,1.363,2.458,2.422c0.495,0.918,1.143,1.701,1.897,2.346
	c0.8,0.685,1.722,1.214,2.711,1.589c0.633,0.239,1.298,0.416,1.976,0.526c0.683,0.111,1.383,0.158,2.083,0.141
	c0.705-0.02,1.41-0.105,2.097-0.253c0.68-0.149,1.348-0.36,1.987-0.638c0.958-0.412,1.86-0.972,2.658-1.671
	c0.747-0.654,1.403-1.435,1.931-2.338c0.628-0.538,1.31-0.938,1.999-1.206c0.745-0.289,1.499-0.426,2.202-0.419
	c0.282,0.003,0.557,0.028,0.819,0.079c0.259,0.047,0.508,0.118,0.74,0.209c0.221,0.09,0.431,0.2,0.622,0.332
	c0.183,0.125,0.348,0.271,0.493,0.434c0.205,0.232,0.366,0.504,0.474,0.813c0.103,0.297,0.158,0.631,0.154,0.996
	c-0.006,0.547-0.135,1.004-0.343,1.373c-0.234,0.411-0.567,0.714-0.94,0.911l-0.001-0.002c-0.144,0.075-0.294,0.133-0.446,0.177
	c-0.157,0.045-0.315,0.073-0.472,0.085h-0.001c-0.156,0.012-0.309,0.008-0.456-0.012c-0.142-0.02-0.282-0.054-0.413-0.102
	c-0.258-0.097-0.487-0.26-0.654-0.485c-0.145-0.194-0.247-0.439-0.285-0.737l-0.005-0.056l-0.002-0.021
	c-0.006-0.075-0.002-0.152,0.013-0.225l0,0c0.014-0.068,0.035-0.129,0.064-0.18c0.018-0.031,0.038-0.056,0.058-0.07
	c0.008-0.006,0.016-0.01,0.023-0.014h0.008l0.012-0.001l0.227-0.019l-0.02-0.228l-0.011-0.125V48.56h-0.009l-0.058-0.672
	l-0.02-0.227l-0.227,0.02h-0.012l-0.011,0.004c-0.249,0.024-0.467,0.107-0.653,0.23h0c-0.2,0.134-0.363,0.316-0.486,0.526
	c-0.102,0.174-0.175,0.37-0.218,0.573c-0.043,0.205-0.058,0.42-0.041,0.627l0.001,0.021l0.003,0.016
	c0.059,0.595,0.259,1.092,0.556,1.488c0.325,0.434,0.766,0.746,1.264,0.933c0.225,0.088,0.462,0.146,0.705,0.179
	c0.245,0.035,0.495,0.041,0.744,0.023c0.248-0.02,0.498-0.066,0.743-0.136c0.237-0.068,0.475-0.163,0.704-0.282
	c0.59-0.31,1.116-0.781,1.482-1.415c0.325-0.56,0.524-1.248,0.533-2.06c0.005-0.539-0.077-1.033-0.235-1.478
	c-0.166-0.47-0.414-0.886-0.729-1.243c-0.215-0.243-0.462-0.459-0.735-0.646c-0.275-0.189-0.579-0.352-0.901-0.48
	c-0.311-0.123-0.642-0.219-0.984-0.281c-0.341-0.064-0.699-0.1-1.065-0.104c-0.617-0.006-1.263,0.074-1.906,0.248
	c-0.451,0.12-0.904,0.287-1.351,0.501c0.134-0.46,0.24-0.943,0.315-1.447c0.101-0.671,0.148-1.384,0.133-2.137
	c-0.004-0.214-0.013-0.417-0.024-0.61c-0.012-0.202-0.03-0.398-0.05-0.592c-0.173-1.597-0.625-3.039-1.29-4.308
	c-0.708-1.347-1.658-2.495-2.774-3.423l-0.002-0.002l-0.134-0.109l0.014-0.017l-0.18-0.138c-1.235-0.948-2.239-2.006-3.024-3.098
	c-0.861-1.196-1.46-2.437-1.811-3.62c-0.184-0.618-0.3-1.221-0.35-1.792c-0.05-0.578-0.033-1.123,0.049-1.618
	c0.078-0.466,0.214-0.887,0.405-1.248l0,0c0.184-0.345,0.419-0.636,0.702-0.854l0.003-0.001c0.214-0.167,0.459-0.296,0.733-0.382
	h0.001c0.27-0.086,0.57-0.13,0.896-0.129c0.718,0.001,1.31,0.186,1.774,0.485c0.522,0.336,0.889,0.821,1.105,1.365
	c0.078,0.194,0.137,0.399,0.179,0.608c0.041,0.214,0.063,0.43,0.065,0.642c0.002,0.21-0.014,0.424-0.05,0.633
	c-0.035,0.205-0.088,0.404-0.16,0.592c-0.176,0.466-0.468,0.873-0.871,1.153c-0.362,0.252-0.82,0.403-1.369,0.403
	c-0.158,0-0.306-0.032-0.441-0.085h-0.001c-0.151-0.06-0.289-0.151-0.412-0.259c-0.083-0.074-0.157-0.155-0.222-0.239
	c-0.067-0.088-0.125-0.181-0.169-0.273c-0.043-0.086-0.075-0.172-0.097-0.256h0c-0.019-0.078-0.029-0.154-0.029-0.227
	c0-0.047,0.005-0.089,0.013-0.121l0,0c0.006-0.022,0.015-0.039,0.023-0.049l0.151-0.169l-0.17-0.15l-0.678-0.604L35.105,22.7
	l-0.151,0.17c-0.129,0.146-0.225,0.311-0.287,0.489c-0.064,0.184-0.097,0.381-0.097,0.584c0,0.173,0.025,0.355,0.07,0.539
	c0.045,0.18,0.113,0.362,0.2,0.542h0c0.084,0.171,0.188,0.341,0.309,0.5h0.001c0.118,0.157,0.252,0.303,0.397,0.433
	c0.239,0.211,0.518,0.391,0.828,0.513c0.287,0.112,0.599,0.177,0.931,0.177c0.854,0,1.571-0.239,2.146-0.639
	c0.635-0.44,1.093-1.078,1.367-1.802c0.101-0.269,0.177-0.55,0.227-0.837c0.048-0.286,0.072-0.583,0.068-0.881
	c-0.003-0.299-0.033-0.6-0.09-0.891c-0.056-0.287-0.14-0.573-0.25-0.85c-0.317-0.794-0.852-1.506-1.61-2
	c-0.67-0.438-1.515-0.705-2.532-0.708c-0.481-0.001-0.925,0.066-1.33,0.196c-0.423,0.137-0.803,0.338-1.136,0.598l-0.203,0.158
	L33.97,19c-0.338,0.303-0.624,0.671-0.852,1.089c-0.272,0.501-0.463,1.075-0.568,1.703c-0.1,0.599-0.123,1.251-0.064,1.934
	c0.057,0.667,0.189,1.368,0.403,2.083c0.25,0.845,0.613,1.714,1.092,2.58c0.337,0.608,0.732,1.213,1.186,1.807
	c-0.464-0.137-0.937-0.246-1.416-0.325c-0.728-0.122-1.473-0.178-2.223-0.163c-0.187,0.004-0.367,0.012-0.54,0.021
	c-0.18,0.012-0.357,0.026-0.531,0.045c-1.666,0.18-3.29,0.729-4.866,1.574c-1.569,0.84-3.093,1.973-4.563,3.324
	c-1.448,1.332-2.846,2.879-4.192,4.571c-1.343,1.687-2.632,3.521-3.864,5.429c-0.644,0.998-1.544,2.229-2.618,3.301
	c-0.798,0.795-1.692,1.505-2.647,1.965c-0.76,0.362-1.564,0.567-2.394,0.522c-0.738-0.041-1.501-0.277-2.277-0.772
	c-0.367-0.235-0.68-0.559-0.932-0.939c-0.269-0.403-0.468-0.872-0.592-1.371c-0.078-0.312-0.127-0.635-0.144-0.961
	c-0.019-0.322-0.007-0.648,0.036-0.969c0.043-0.321,0.119-0.641,0.227-0.945c0.105-0.293,0.24-0.574,0.404-0.831
	c0.243-0.379,0.557-0.718,0.946-0.993c0.362-0.256,0.79-0.455,1.287-0.578l0,0c0.735-0.184,1.387-0.175,1.944-0.031
	c0.624,0.162,1.135,0.495,1.52,0.918c0.152,0.168,0.285,0.35,0.399,0.541c0.117,0.197,0.213,0.403,0.286,0.613
	c0.071,0.205,0.123,0.416,0.15,0.625c0.028,0.206,0.034,0.413,0.019,0.614c-0.031,0.384-0.147,0.743-0.356,1.036
	c-0.19,0.27-0.459,0.486-0.811,0.621L7.207,47.12l0.08,0.21l0.323,0.849l0.082,0.214L7.903,48.312z"/>
<path fill-rule="evenodd" clip-rule="evenodd" fill="#BB8D40" d="M31.837,40.647c-0.382,0-0.729,0.155-0.981,0.406v0.001h0
	c-0.251,0.25-0.406,0.599-0.406,0.979c0,0.383,0.154,0.729,0.406,0.98l0,0.002c0.251,0.25,0.598,0.405,0.981,0.405
	c0.382,0,0.73-0.155,0.98-0.405c0.251-0.252,0.407-0.6,0.407-0.982c0-0.381-0.156-0.73-0.407-0.98l0,0
	C32.566,40.802,32.219,40.647,31.837,40.647 M45.692,47.606c-0.381,0-0.729,0.155-0.98,0.406v0.001l0,0.001
	c-0.251,0.25-0.407,0.598-0.407,0.979s0.155,0.729,0.407,0.979l0,0c0.25,0.252,0.598,0.408,0.98,0.408
	c0.383,0,0.73-0.156,0.981-0.408l0,0c0.251-0.25,0.406-0.597,0.406-0.979s-0.156-0.729-0.406-0.979l-0.001-0.002
	C46.421,47.761,46.075,47.606,45.692,47.606z M18.234,46.913c-0.382,0-0.729,0.156-0.981,0.408l0,0h0
	c-0.25,0.25-0.405,0.598-0.405,0.979c0,0.383,0.154,0.73,0.405,0.98v0.002c0.251,0.25,0.599,0.406,0.981,0.406
	s0.73-0.156,0.981-0.406c0.25-0.252,0.406-0.599,0.406-0.982c0-0.383-0.155-0.729-0.406-0.979h-0.001
	C18.962,47.069,18.616,46.913,18.234,46.913z M7.329,45.661c-0.382,0-0.729,0.154-0.979,0.406h0h0
	c-0.251,0.252-0.407,0.6-0.407,0.98c0,0.383,0.156,0.729,0.408,0.98l0,0.001c0.251,0.251,0.597,0.406,0.98,0.406
	c0.383,0,0.73-0.155,0.98-0.406c0.251-0.251,0.408-0.599,0.408-0.981s-0.157-0.729-0.408-0.98h0
	C8.058,45.815,7.711,45.661,7.329,45.661z M35.952,22.352c-0.381,0-0.729,0.155-0.979,0.407v0h0c-0.251,0.25-0.407,0.598-0.407,0.98
	c0,0.382,0.155,0.728,0.407,0.979v0c0.25,0.251,0.597,0.407,0.979,0.407c0.383,0,0.731-0.156,0.982-0.407
	c0.251-0.25,0.406-0.597,0.406-0.98c0-0.383-0.155-0.73-0.406-0.98h0C36.683,22.506,36.334,22.352,35.952,22.352z"/>
<path fill="#BB8D40" d="M41.1,31.415l0-27.937V2.796h0.679h39.905h0.682v0.683v28.015l-0.02,0.146
	c-1.078,4.89-3.566,8.941-6.92,12.127c-3.698,3.513-8.451,5.971-13.52,7.336h-0.351c-5.063-1.363-9.807-3.838-13.502-7.363
	c-3.362-3.207-5.858-7.281-6.938-12.178L41.1,31.415z M41.1,0h41.267v1.364H41.1V0z M42.459,4.16l-0.001,27.179
	c1.027,4.582,3.375,8.402,6.534,11.416c3.483,3.32,7.955,5.668,12.741,6.984c4.794-1.318,9.272-3.65,12.756-6.959
	c3.149-2.991,5.488-6.783,6.514-11.35V4.16H42.459z"/>
<path fill="#BB8D40" d="M63.917,25.743l-1.99-6.177h-0.205l-2.048,6.177H63.917z M64.477,27.489h-5.381l-1.112,3.361h1.807v1.855
	h-5.849v-1.855h1.793l4.049-11.285H57.98v-1.68h7.616v1.68h-1.88l4.15,11.285h1.658v1.855h-5.806v-1.855h1.842L64.477,27.489z"/>
</svg>
