<?xml version="1.0" encoding="utf-8"?>
<!DOCTYPE svg PUBLIC "-//W3C//DTD SVG 1.1//EN" "http://www.w3.org/Graphics/SVG/1.1/DTD/svg11.dtd">
<svg version="1.1" id="Layer_1" xmlns="http://www.w3.org/2000/svg" xmlns:xlink="http://www.w3.org/1999/xlink" x="0px" y="0px"
	 width="193.452px" height="97.671px" viewBox="0 0 193.452 97.671" enable-background="new 0 0 193.452 97.671"
	 xml:space="preserve">
<path fill="#BB8D40" d="M44.536,94.574h2.262c0.003,0.081,0.005,0.152,0.005,0.215c0,0.874-0.287,1.573-0.86,2.098
	c-0.572,0.523-1.33,0.784-2.269,0.784c-1.125,0-1.963-0.32-2.517-0.96c-0.551-0.638-0.827-1.396-0.827-2.271
	c0-0.916,0.281-1.676,0.846-2.283c0.564-0.604,1.331-0.908,2.298-0.908c0.869,0,1.599,0.265,2.187,0.794v-0.691h0.788v2.042h-0.788
	c-0.15-0.343-0.415-0.649-0.795-0.917c-0.38-0.269-0.816-0.402-1.306-0.402c-0.68,0-1.218,0.23-1.614,0.69
	c-0.394,0.46-0.591,1.014-0.591,1.661c0,0.742,0.225,1.332,0.674,1.769c0.447,0.435,0.988,0.653,1.62,0.653
	c0.494,0,0.936-0.137,1.324-0.413c0.388-0.275,0.614-0.635,0.679-1.079h-1.117V94.574z M34.236,96.792v-4.663h-0.889v-0.777h2.132
	l2.715,4.837v-4.06h-0.88v-0.777h2.558v0.777h-0.917v5.508h-0.968l-2.98-5.314v4.47h0.889v0.779h-2.547v-0.779H34.236z
	 M31.396,96.792v-4.663h-0.669v-0.777h2.282v0.777h-0.67v4.663h0.67v0.779h-2.282v-0.779H31.396z M24.9,96.792v-4.663h-0.705v-0.777
	h2.382v0.777h-0.732v1.776h2.693v-1.776h-0.733v-0.777h2.391v0.777h-0.714v4.663h0.714v0.779h-2.391v-0.779h0.733v-2.106h-2.693
	v2.106h0.732v0.779h-2.382v-0.779H24.9z M20.858,96.792v-4.663h-1.274v1.585h-0.779v-2.362h5.049v2.362h-0.779v-1.585h-1.273v4.663
	h0.806v0.779h-2.546v-0.779H20.858z M12.834,94.433c0,0.685,0.2,1.258,0.601,1.722c0.399,0.461,0.925,0.693,1.576,0.693
	c0.645,0,1.175-0.236,1.588-0.709c0.416-0.474,0.625-1.039,0.625-1.696c0-0.662-0.211-1.222-0.634-1.682
	c-0.423-0.458-0.953-0.687-1.592-0.687c-0.636,0-1.155,0.227-1.558,0.678C13.036,93.201,12.834,93.763,12.834,94.433z
	 M11.807,94.431c0-0.902,0.295-1.658,0.886-2.27c0.591-0.606,1.361-0.912,2.311-0.912c0.958,0,1.738,0.306,2.341,0.912
	c0.604,0.611,0.904,1.373,0.904,2.289c0,0.935-0.307,1.704-0.919,2.313c-0.613,0.604-1.392,0.908-2.339,0.908
	c-0.603,0-1.158-0.141-1.664-0.431c-0.505-0.288-0.886-0.69-1.139-1.204C11.935,95.521,11.807,94.986,11.807,94.431z M7.511,96.792
	v-4.663H6.705v-0.777h2.547v0.777h-0.77v4.663h1.906v-2.115h0.879v2.895H6.705v-0.779H7.511z M5.329,95.042l0.81,0.452
	c-0.182,0.692-0.55,1.228-1.104,1.608c-0.553,0.381-1.189,0.568-1.909,0.568c-0.944,0-1.701-0.304-2.271-0.916
	C0.285,96.145,0,95.387,0,94.485c0-0.987,0.286-1.772,0.858-2.358c0.573-0.586,1.322-0.878,2.244-0.878
	c0.815,0,1.5,0.223,2.056,0.667v-0.564h0.806v1.997H5.158c-0.179-0.406-0.456-0.719-0.828-0.942
	c-0.374-0.22-0.766-0.332-1.178-0.332c-0.621,0-1.131,0.225-1.53,0.674c-0.397,0.445-0.596,1.011-0.596,1.694
	c0,0.704,0.213,1.274,0.64,1.719c0.428,0.444,0.933,0.668,1.518,0.668c0.48,0,0.917-0.155,1.312-0.465
	C4.889,96.058,5.167,95.616,5.329,95.042z"/>
<path fill="#BB8D40" d="M191.184,94.574h2.263c0.003,0.081,0.005,0.152,0.005,0.215c0,0.874-0.288,1.573-0.859,2.098
	c-0.573,0.523-1.331,0.784-2.27,0.784c-1.125,0-1.964-0.32-2.517-0.96c-0.551-0.638-0.827-1.396-0.827-2.271
	c0-0.916,0.282-1.676,0.847-2.283c0.563-0.604,1.331-0.908,2.298-0.908c0.87,0,1.6,0.265,2.188,0.794v-0.691h0.788v2.042h-0.788
	c-0.15-0.343-0.415-0.649-0.796-0.917c-0.38-0.269-0.814-0.402-1.305-0.402c-0.682,0-1.22,0.23-1.614,0.69
	c-0.394,0.46-0.592,1.014-0.592,1.661c0,0.742,0.225,1.332,0.674,1.769c0.446,0.435,0.988,0.653,1.62,0.653
	c0.494,0,0.937-0.137,1.324-0.413c0.387-0.275,0.613-0.635,0.679-1.079h-1.117V94.574z M180.884,96.792v-4.663h-0.887v-0.777h2.13
	l2.716,4.837v-4.06h-0.882v-0.777h2.557v0.777h-0.914v5.508h-0.97l-2.979-5.314v4.47h0.889v0.779h-2.546v-0.779H180.884z
	 M178.044,96.792v-4.663h-0.668v-0.777h2.281v0.777h-0.67v4.663h0.67v0.779h-2.281v-0.779H178.044z M173.464,93.891h0.73
	c0.354,0,0.615-0.025,0.784-0.07c0.166-0.048,0.307-0.142,0.413-0.282c0.107-0.143,0.16-0.335,0.16-0.572
	c0-0.203-0.054-0.373-0.163-0.515c-0.108-0.141-0.242-0.228-0.401-0.265c-0.16-0.039-0.401-0.058-0.729-0.058h-0.794V93.891z
	 M172.519,96.792v-4.663h-0.852v-0.777h2.526c0.528,0,0.946,0.04,1.257,0.124c0.31,0.079,0.565,0.253,0.769,0.519
	c0.203,0.263,0.305,0.593,0.305,0.985c0,0.823-0.427,1.341-1.279,1.553l1.097,2.26h0.759v0.779h-1.351l-1.41-2.904h-0.875v2.125
	h0.797v0.779h-2.594v-0.779H172.519z M165.686,94.433c0,0.685,0.201,1.258,0.602,1.722c0.399,0.461,0.923,0.693,1.575,0.693
	c0.646,0,1.176-0.236,1.591-0.709c0.413-0.474,0.622-1.039,0.622-1.696c0-0.662-0.212-1.222-0.633-1.682
	c-0.424-0.458-0.955-0.687-1.595-0.687c-0.636,0-1.154,0.227-1.557,0.678C165.889,93.201,165.686,93.763,165.686,94.433z
	 M164.661,94.431c0-0.902,0.294-1.658,0.886-2.27c0.591-0.606,1.36-0.912,2.311-0.912c0.958,0,1.736,0.306,2.342,0.912
	c0.602,0.611,0.902,1.373,0.902,2.289c0,0.935-0.307,1.704-0.918,2.313c-0.614,0.604-1.394,0.908-2.341,0.908
	c-0.603,0-1.156-0.141-1.663-0.431c-0.504-0.288-0.884-0.69-1.139-1.204C164.788,95.521,164.661,94.986,164.661,94.431z
	 M160.365,96.792v-4.663h-0.808v-0.777h2.548v0.777h-0.771v4.663h1.906v-2.115h0.88v2.895h-4.563v-0.779H160.365z M157.524,96.792
	v-4.663h-0.668v-0.777h2.28v0.777h-0.668v4.663h0.668v0.779h-2.28v-0.779H157.524z M154.28,94.649l-0.836-2.595h-0.087l-0.858,2.595
	H154.28z M154.514,95.383h-2.259l-0.468,1.409h0.761v0.779h-2.456v-0.779h0.753l1.7-4.737h-0.759v-0.703h3.197v0.703h-0.788
	l1.741,4.737h0.695v0.779h-2.435v-0.779h0.771L154.514,95.383z M147.303,96.792v-4.663h-1.271v1.585h-0.779v-2.362h5.047v2.362
	h-0.779v-1.585h-1.273v4.663h0.808v0.779h-2.547v-0.779H147.303z"/>
<path fill="#BB8D40" d="M106.143,97.571v-0.779l3.328-4.663h-2.394v1.1h-0.778v-1.877h4.369v0.688l-3.394,4.753h2.716v-1.199h0.778
	v1.979H106.143z M104.008,96.792v-4.663h-0.67v-0.777h2.281v0.777h-0.668v4.663h0.668v0.779h-2.281v-0.779H104.008z M96,96.792
	v-4.663h-0.751v-0.777h2.134l1.636,4.265l1.654-4.265h2.153v0.777h-0.751v4.663h0.751v0.779h-2.346v-0.779h0.741v-4.663
	l-2.145,5.508h-0.184l-2.124-5.508v4.663h0.686v0.779h-2.208v-0.779H96z M89.167,94.433c0,0.685,0.2,1.258,0.6,1.72
	c0.4,0.463,0.925,0.695,1.576,0.695c0.646,0,1.176-0.236,1.59-0.709c0.415-0.474,0.623-1.039,0.623-1.696
	c0-0.662-0.21-1.222-0.633-1.682c-0.423-0.458-0.953-0.687-1.592-0.687c-0.636,0-1.154,0.227-1.559,0.678
	C89.369,93.201,89.167,93.763,89.167,94.433z M88.141,94.431c0-0.902,0.295-1.658,0.886-2.27c0.592-0.606,1.361-0.912,2.311-0.912
	c0.957,0,1.737,0.306,2.34,0.912c0.604,0.611,0.904,1.373,0.904,2.289c0,0.935-0.307,1.704-0.919,2.313
	c-0.614,0.604-1.392,0.908-2.339,0.908c-0.604,0-1.158-0.143-1.664-0.431c-0.505-0.288-0.885-0.69-1.139-1.204
	C88.268,95.521,88.141,94.986,88.141,94.431z M84.732,96.792v-4.663h-1.272v1.585h-0.778v-2.362h5.048v2.362h-0.779v-1.585h-1.274
	v4.663h0.807v0.779h-2.547v-0.779H84.732z M78.019,97.571v-2.253h0.779v0.551c0.374,0.677,0.862,1.016,1.465,1.016
	c0.309,0,0.568-0.095,0.78-0.283s0.319-0.437,0.319-0.74c0-0.297-0.087-0.508-0.259-0.638c-0.173-0.132-0.5-0.261-0.98-0.391
	c-0.559-0.147-0.971-0.289-1.241-0.423c-0.268-0.134-0.483-0.321-0.642-0.566C78.08,93.596,78,93.306,78,92.968
	c0-0.522,0.175-0.94,0.523-1.251c0.349-0.312,0.787-0.468,1.312-0.468c0.5,0,0.963,0.16,1.392,0.483v-0.418h0.76v1.887h-0.76v-0.435
	c-0.321-0.481-0.761-0.722-1.325-0.722c-0.34,0-0.601,0.08-0.784,0.236c-0.182,0.158-0.273,0.347-0.273,0.564
	c0,0.169,0.045,0.313,0.139,0.44c0.093,0.128,0.211,0.222,0.354,0.282c0.144,0.059,0.425,0.144,0.847,0.254
	c0.548,0.143,0.947,0.276,1.195,0.4c0.248,0.123,0.461,0.331,0.642,0.62c0.178,0.288,0.268,0.62,0.268,0.995
	c0,0.532-0.188,0.97-0.563,1.315c-0.376,0.346-0.84,0.518-1.393,0.518c-0.568,0-1.08-0.204-1.534-0.61v0.511H78.019z M73.339,92.129
	v3.114c0,0.483,0.025,0.816,0.073,1.001c0.05,0.187,0.173,0.343,0.37,0.474c0.196,0.13,0.449,0.194,0.759,0.194
	c0.37,0,0.652-0.057,0.849-0.169s0.327-0.263,0.392-0.452c0.063-0.188,0.096-0.521,0.096-1.005v-3.157h-0.724v-0.777h2.438v0.777
	h-0.779v3.254c0,0.437-0.018,0.758-0.056,0.953c-0.037,0.199-0.138,0.407-0.301,0.624c-0.165,0.215-0.396,0.389-0.694,0.519
	c-0.298,0.129-0.661,0.192-1.087,0.192c-0.47,0-0.863-0.06-1.176-0.18c-0.313-0.122-0.549-0.283-0.707-0.487
	c-0.159-0.2-0.265-0.417-0.317-0.647c-0.051-0.229-0.078-0.585-0.078-1.07v-3.157h-0.769v-0.777h2.456v0.777H73.339z M70.259,95.042
	l0.81,0.452c-0.182,0.692-0.55,1.228-1.104,1.608c-0.553,0.381-1.19,0.568-1.909,0.568c-0.943,0-1.702-0.304-2.271-0.916
	c-0.569-0.61-0.855-1.368-0.855-2.27c0-0.987,0.287-1.772,0.86-2.358s1.321-0.878,2.244-0.878c0.815,0,1.5,0.223,2.055,0.667v-0.564
	h0.806v1.995h-0.806c-0.179-0.404-0.456-0.717-0.828-0.94c-0.374-0.22-0.767-0.332-1.177-0.332c-0.621,0-1.131,0.225-1.53,0.674
	c-0.398,0.445-0.597,1.011-0.597,1.694c0,0.704,0.213,1.274,0.639,1.719c0.428,0.444,0.934,0.668,1.518,0.668
	c0.481,0,0.918-0.155,1.312-0.465C69.819,96.058,70.097,95.616,70.259,95.042z M124.857,94.574h2.262
	c0.003,0.081,0.005,0.152,0.005,0.215c0,0.874-0.287,1.573-0.86,2.098c-0.572,0.523-1.329,0.784-2.269,0.784
	c-1.125,0-1.964-0.32-2.518-0.96c-0.551-0.638-0.826-1.396-0.826-2.271c0-0.916,0.282-1.676,0.847-2.283
	c0.563-0.604,1.33-0.908,2.299-0.908c0.869,0,1.598,0.265,2.187,0.794v-0.691h0.786v2.042h-0.786
	c-0.149-0.343-0.413-0.649-0.795-0.917c-0.38-0.269-0.816-0.402-1.308-0.402c-0.68,0-1.219,0.23-1.613,0.69
	c-0.394,0.46-0.591,1.012-0.591,1.661c0,0.742,0.225,1.332,0.674,1.769c0.447,0.435,0.988,0.653,1.62,0.653
	c0.495,0,0.935-0.137,1.323-0.413c0.389-0.275,0.614-0.635,0.68-1.079h-1.116V94.574z M114.556,96.792v-4.663h-0.889v-0.777h2.132
	l2.715,4.837v-4.06h-0.879v-0.777h2.557v0.777h-0.918v5.508h-0.966l-2.982-5.314v4.47h0.889v0.779h-2.547v-0.779H114.556z
	 M111.716,96.792v-4.663h-0.669v-0.777h2.282v0.777h-0.67v4.663h0.67v0.779h-2.282v-0.779H111.716z"/>
<path fill="#BB8D40" d="M55.764,93.722c-0.083,0.01-0.167,0.039-0.232,0.083l-0.092-0.093c-0.158-0.159-0.809-0.993-0.912-1.551
	c-0.372,0.047-0.547,0.094-0.854-0.122l-0.056,0.057c0.213,0.298,0.176,0.483,0.121,0.856c0.557,0.091,1.402,0.75,1.56,0.909
	l0.093,0.092c-0.056,0.064-0.093,0.142-0.103,0.223h-0.129c-0.224,0-1.282-0.129-1.748-0.454c-0.223,0.296-0.325,0.454-0.687,0.522
	v0.072c0.362,0.064,0.464,0.224,0.687,0.521c0.465-0.324,1.524-0.456,1.748-0.456h0.129c0.01,0.085,0.038,0.169,0.084,0.232
	l-0.093,0.092c-0.158,0.159-0.994,0.811-1.552,0.913c0.046,0.371,0.093,0.547-0.121,0.853l0.056,0.059
	c0.296-0.215,0.482-0.179,0.854-0.122c0.093-0.558,0.752-1.401,0.911-1.561l0.092-0.093c0.065,0.055,0.14,0.093,0.242,0.101v0.132
	c0,0.222-0.129,1.281-0.455,1.745c0.298,0.223,0.455,0.327,0.52,0.687h0.075c0.065-0.359,0.223-0.464,0.521-0.687
	c-0.326-0.464-0.455-1.523-0.455-1.745v-0.132c0.102-0.008,0.176-0.046,0.241-0.101l0.093,0.093c0.158,0.159,0.817,1.003,0.91,1.561
	c0.372-0.057,0.558-0.093,0.855,0.122l0.055-0.059c-0.214-0.306-0.167-0.481-0.121-0.853c-0.558-0.103-1.394-0.754-1.552-0.913
	l-0.092-0.092c0.046-0.063,0.074-0.147,0.083-0.232h0.13c0.223,0,1.282,0.132,1.747,0.456c0.223-0.297,0.325-0.456,0.688-0.521
	v-0.072c-0.362-0.068-0.465-0.227-0.688-0.522c-0.465,0.325-1.524,0.454-1.747,0.454h-0.13c-0.009-0.081-0.047-0.158-0.102-0.223
	l0.093-0.092c0.157-0.159,1.003-0.818,1.561-0.909c-0.056-0.373-0.092-0.559,0.121-0.856l-0.056-0.057
	c-0.307,0.216-0.483,0.169-0.855,0.122c-0.102,0.558-0.753,1.392-0.91,1.551l-0.093,0.093c-0.065-0.044-0.149-0.073-0.232-0.083
	v-0.13c0-0.222,0.129-1.281,0.455-1.745c-0.297-0.224-0.455-0.327-0.521-0.688h-0.075c-0.065,0.361-0.222,0.465-0.52,0.688
	c0.326,0.464,0.455,1.523,0.455,1.745V93.722z"/>
<path fill="#BB8D40" d="M136.084,93.722c-0.083,0.01-0.167,0.039-0.232,0.083l-0.093-0.093c-0.157-0.159-0.809-0.993-0.91-1.551
	c-0.372,0.047-0.547,0.094-0.856-0.122l-0.053,0.057c0.212,0.298,0.175,0.483,0.12,0.856c0.557,0.091,1.401,0.75,1.561,0.909
	l0.092,0.092c-0.056,0.064-0.092,0.142-0.102,0.223h-0.13c-0.224,0-1.282-0.129-1.747-0.454c-0.222,0.296-0.325,0.454-0.688,0.522
	v0.072c0.362,0.064,0.466,0.224,0.688,0.521c0.465-0.324,1.523-0.456,1.747-0.456h0.13c0.01,0.085,0.036,0.169,0.084,0.232
	l-0.093,0.092c-0.157,0.159-0.994,0.811-1.552,0.913c0.046,0.371,0.093,0.547-0.12,0.853l0.055,0.059
	c0.298-0.215,0.482-0.179,0.854-0.122c0.094-0.558,0.753-1.401,0.912-1.561l0.092-0.093c0.064,0.055,0.139,0.093,0.241,0.101v0.132
	c0,0.222-0.129,1.281-0.455,1.745c0.297,0.223,0.455,0.327,0.521,0.687h0.073c0.065-0.359,0.225-0.464,0.521-0.687
	c-0.325-0.464-0.456-1.523-0.456-1.745v-0.132c0.104-0.008,0.177-0.046,0.242-0.101l0.093,0.093
	c0.158,0.159,0.817,1.003,0.911,1.561c0.371-0.057,0.558-0.093,0.854,0.122l0.056-0.059c-0.214-0.306-0.167-0.481-0.121-0.853
	c-0.558-0.103-1.393-0.754-1.551-0.913l-0.094-0.092c0.046-0.063,0.074-0.147,0.084-0.232h0.131c0.222,0,1.281,0.132,1.746,0.456
	c0.222-0.297,0.324-0.456,0.687-0.521v-0.072c-0.362-0.068-0.465-0.227-0.687-0.522c-0.465,0.325-1.524,0.454-1.746,0.454h-0.131
	c-0.01-0.081-0.048-0.158-0.103-0.223l0.093-0.092c0.158-0.159,1.004-0.818,1.562-0.909c-0.057-0.373-0.094-0.559,0.12-0.856
	l-0.056-0.057c-0.306,0.216-0.482,0.169-0.854,0.122c-0.103,0.558-0.752,1.392-0.911,1.551l-0.092,0.093
	c-0.065-0.044-0.149-0.073-0.233-0.083v-0.13c0-0.222,0.131-1.281,0.456-1.745c-0.297-0.224-0.456-0.327-0.521-0.688h-0.073
	c-0.065,0.361-0.224,0.465-0.521,0.688c0.326,0.464,0.455,1.523,0.455,1.745V93.722z"/>
<path fill="#BB8D40" d="M142.791,43.096c-0.899-1.286-1.823-2.521-2.776-3.675c-1.133-1.375-2.303-2.639-3.506-3.746
	c-1.376-1.264-2.791-2.323-4.239-3.103c-1.44-0.777-2.912-1.281-4.41-1.443c-0.163-0.018-0.326-0.032-0.482-0.042
	c-0.163-0.01-0.319-0.017-0.467-0.02c-1.27-0.025-2.521,0.176-3.695,0.581c-1.17,0.405-2.264,1.014-3.219,1.806
	c-0.981,0.815-1.816,1.828-2.438,3.015c-0.59,1.12-0.988,2.398-1.14,3.814c-0.02,0.181-0.036,0.363-0.047,0.543
	c-0.012,0.184-0.021,0.363-0.023,0.537c-0.04,2.092,0.452,3.83,1.29,5.214l0,0c0.94,1.554,2.322,2.667,3.88,3.341
	c0.563,0.239,1.148,0.428,1.744,0.559c0.607,0.134,1.225,0.21,1.836,0.224c0.613,0.017,1.228-0.023,1.825-0.125
	c0.592-0.095,1.17-0.248,1.722-0.458c0.701-0.266,1.362-0.622,1.954-1.072c0.505-0.38,0.961-0.828,1.351-1.341l-0.01-0.005
	l0.12-0.193c0.085-0.135,0.166-0.261,0.246-0.378c0.081-0.122,0.161-0.24,0.243-0.354c0.282-0.528,0.508-1.112,0.66-1.747
	c0.147-0.614,0.231-1.28,0.239-1.993c0.004-0.358-0.012-0.703-0.048-1.032c-0.036-0.338-0.089-0.656-0.162-0.955
	c-0.178-0.75-0.472-1.4-0.845-1.955c-0.404-0.595-0.903-1.081-1.464-1.461c-0.526-0.359-1.111-0.628-1.717-0.81
	c-0.645-0.193-1.314-0.29-1.973-0.297c-0.29-0.002-0.582,0.012-0.869,0.043c-0.289,0.032-0.569,0.081-0.837,0.145
	c-0.579,0.138-1.126,0.366-1.619,0.669v-0.001c-0.49,0.302-0.925,0.678-1.282,1.117c-0.344,0.419-0.617,0.898-0.802,1.426
	c-0.177,0.504-0.273,1.052-0.271,1.633c0.002,0.938,0.203,1.685,0.532,2.259c0.367,0.645,0.899,1.075,1.493,1.321v0
	c0.279,0.115,0.573,0.192,0.871,0.233c0.31,0.041,0.625,0.042,0.933,0.008c0.301-0.033,0.592-0.103,0.861-0.202
	c0.266-0.099,0.512-0.228,0.724-0.382c0.336-0.246,0.593-0.565,0.722-0.944c0.116-0.342,0.128-0.739-0.003-1.179l0,0
	c-0.031-0.104-0.071-0.196-0.117-0.271c-0.051-0.082-0.104-0.149-0.168-0.204c-0.059-0.054-0.128-0.099-0.198-0.134
	c-0.076-0.038-0.157-0.065-0.235-0.081c-0.075-0.015-0.146-0.021-0.212-0.021c-0.063,0.001-0.124,0.01-0.174,0.024h-0.001
	l-0.026,0.008l-0.129,0.143l-0.169-0.15l-0.675-0.604l-0.17-0.151l0.153-0.169c0.077-0.087,0.173-0.164,0.281-0.229
	c0.108-0.063,0.227-0.116,0.353-0.152c0.152-0.045,0.324-0.072,0.509-0.077c0.17-0.004,0.352,0.01,0.53,0.047
	c0.193,0.04,0.388,0.104,0.574,0.197c0.171,0.085,0.338,0.198,0.494,0.337c0.155,0.138,0.298,0.304,0.417,0.497
	c0.109,0.178,0.202,0.38,0.27,0.606c0.217,0.738,0.195,1.412-0.004,2.001c-0.221,0.647-0.656,1.189-1.223,1.602
	c-0.311,0.228-0.662,0.415-1.039,0.555l0,0c-0.377,0.142-0.782,0.239-1.195,0.286c-0.415,0.045-0.844,0.042-1.271-0.015
	c-0.41-0.056-0.818-0.162-1.205-0.323c-0.842-0.35-1.6-0.952-2.125-1.843c-0.456-0.773-0.732-1.764-0.735-2.994
	c-0.002-0.742,0.121-1.442,0.347-2.087c0.236-0.675,0.588-1.291,1.029-1.831c0.452-0.554,1.001-1.03,1.616-1.409
	c0.615-0.38,1.302-0.665,2.026-0.839c0.327-0.078,0.663-0.137,1.001-0.174c0.335-0.037,0.68-0.054,1.029-0.051
	c0.79,0.007,1.594,0.124,2.364,0.356c0.732,0.221,1.439,0.547,2.082,0.985c0.695,0.471,1.315,1.075,1.817,1.815h0.001
	c0.462,0.684,0.822,1.484,1.045,2.411c0.086,0.357,0.149,0.732,0.19,1.121c0.041,0.376,0.061,0.774,0.057,1.19
	c-0.004,0.359-0.025,0.706-0.061,1.038c-0.012,0.122-0.027,0.242-0.044,0.361c0.561-0.456,1.136-0.823,1.716-1.11
	c0.807-0.401,1.624-0.648,2.421-0.763c0.604-0.086,1.198-0.097,1.771-0.042c0.6,0.058,1.173,0.188,1.709,0.379l0,0
	C142.48,42.964,142.636,43.026,142.791,43.096 M150.556,48.311c-0.617-0.236-1.091-0.615-1.428-1.082
	c-0.362-0.502-0.563-1.105-0.613-1.741c-0.024-0.292-0.015-0.593,0.027-0.896c0.04-0.301,0.113-0.604,0.216-0.898
	c0.103-0.298,0.238-0.588,0.399-0.863c0.159-0.268,0.348-0.524,0.563-0.76c0.548-0.604,1.271-1.08,2.146-1.314
	c0.771-0.206,1.66-0.225,2.65,0.022c0.672,0.167,1.253,0.44,1.748,0.792c0.535,0.378,0.969,0.846,1.303,1.371
	c0.223,0.347,0.402,0.717,0.54,1.099c0.14,0.394,0.239,0.808,0.294,1.227c0.056,0.406,0.071,0.816,0.048,1.224
	c-0.022,0.41-0.083,0.818-0.182,1.21c-0.163,0.659-0.434,1.285-0.799,1.826l0,0c-0.352,0.521-0.793,0.97-1.316,1.306
	c-0.995,0.634-1.976,0.939-2.931,0.991c-1.065,0.057-2.092-0.201-3.056-0.662c-0.788-0.38-1.53-0.896-2.216-1.482
	c-0.625-0.537-1.204-1.134-1.728-1.742l-0.003,0.107c-0.012,0.268-0.047,0.542-0.107,0.816c-0.22,0.988-0.624,1.745-1.134,2.301
	c-0.585,0.638-1.312,1.009-2.059,1.158c-0.297,0.057-0.602,0.08-0.903,0.068c-0.309-0.01-0.612-0.057-0.898-0.135l0,0
	c-0.288-0.077-0.568-0.189-0.828-0.33h-0.001c-0.258-0.14-0.497-0.311-0.712-0.507c-0.463-0.424-0.8-0.967-0.936-1.597
	c-0.123-0.566-0.081-1.201,0.181-1.88l0.08-0.212l0.211,0.081l0.846,0.324l0.212,0.081l-0.081,0.212
	c-0.153,0.4-0.181,0.77-0.112,1.093c0.072,0.355,0.262,0.659,0.521,0.897h-0.001c0.129,0.119,0.279,0.225,0.443,0.313
	c0.165,0.087,0.345,0.16,0.533,0.208h0.001c0.192,0.055,0.393,0.086,0.591,0.094c0.194,0.008,0.396-0.008,0.592-0.049
	c0.485-0.095,0.96-0.346,1.347-0.779c0.345-0.39,0.624-0.927,0.781-1.633c0.118-0.534,0.099-1.06-0.038-1.553
	c-0.146-0.522-0.421-1.013-0.795-1.44c-0.263-0.3-0.574-0.573-0.931-0.807c-0.35-0.232-0.742-0.428-1.159-0.579l0,0
	c-0.438-0.155-0.902-0.262-1.389-0.307c-0.466-0.045-0.95-0.036-1.444,0.036c-0.934,0.133-1.899,0.489-2.84,1.117
	c-0.854,0.569-1.688,1.363-2.459,2.422c-0.495,0.917-1.143,1.701-1.897,2.345c-0.799,0.685-1.72,1.214-2.711,1.589
	c-0.633,0.239-1.297,0.416-1.977,0.526c-0.682,0.111-1.382,0.158-2.082,0.141c-0.705-0.02-1.409-0.105-2.096-0.253
	c-0.683-0.149-1.35-0.36-1.989-0.638c-0.959-0.412-1.859-0.972-2.657-1.671c-0.748-0.654-1.403-1.434-1.932-2.338
	c-0.628-0.539-1.311-0.938-1.997-1.206c-0.746-0.29-1.5-0.426-2.204-0.419c-0.281,0.002-0.556,0.029-0.818,0.079
	c-0.26,0.048-0.509,0.119-0.74,0.21c-0.222,0.09-0.432,0.2-0.621,0.331c-0.185,0.125-0.35,0.271-0.494,0.434
	c-0.204,0.232-0.366,0.504-0.473,0.812c-0.104,0.298-0.159,0.631-0.155,0.997c0.006,0.546,0.135,1.003,0.344,1.373
	c0.232,0.411,0.566,0.714,0.94,0.911V50.68c0.145,0.075,0.295,0.133,0.447,0.177c0.155,0.045,0.314,0.073,0.471,0.085h0.001
	c0.157,0.012,0.31,0.008,0.456-0.012c0.143-0.02,0.283-0.054,0.414-0.102c0.259-0.097,0.486-0.26,0.653-0.485
	c0.146-0.194,0.247-0.439,0.285-0.737l0.005-0.056l0.002-0.021c0.005-0.075,0.002-0.152-0.013-0.225l0,0
	c-0.014-0.068-0.035-0.129-0.065-0.18c-0.017-0.031-0.038-0.056-0.057-0.07c-0.008-0.006-0.016-0.01-0.024-0.014h-0.007
	l-0.012-0.001l-0.228-0.019l0.02-0.228l0.011-0.125v-0.109l0.01,0.001l0.059-0.672l0.02-0.227l0.226,0.02l0.013,0l0.01,0.003
	c0.25,0.024,0.467,0.107,0.654,0.23l-0.001,0c0.2,0.133,0.364,0.316,0.485,0.526c0.102,0.174,0.174,0.37,0.219,0.573
	c0.043,0.205,0.058,0.42,0.041,0.627l-0.002,0.021l-0.003,0.016c-0.061,0.595-0.26,1.092-0.557,1.488
	c-0.326,0.434-0.768,0.746-1.266,0.933c-0.224,0.088-0.461,0.146-0.705,0.179c-0.244,0.035-0.494,0.041-0.743,0.023
	c-0.247-0.02-0.497-0.066-0.741-0.136c-0.237-0.068-0.477-0.163-0.706-0.282c-0.59-0.31-1.116-0.781-1.481-1.415
	c-0.324-0.56-0.525-1.248-0.533-2.06c-0.004-0.539,0.078-1.033,0.235-1.478c0.165-0.47,0.415-0.886,0.73-1.243
	c0.214-0.243,0.461-0.459,0.733-0.647c0.275-0.189,0.579-0.351,0.904-0.48c0.31-0.124,0.639-0.218,0.982-0.282
	c0.341-0.064,0.698-0.1,1.065-0.104c0.616-0.006,1.262,0.075,1.906,0.248c0.45,0.121,0.904,0.288,1.35,0.501
	c-0.134-0.46-0.24-0.943-0.314-1.447c-0.099-0.67-0.146-1.383-0.132-2.137c0.003-0.213,0.012-0.417,0.024-0.61
	c0.014-0.202,0.029-0.399,0.049-0.591c0.173-1.597,0.624-3.04,1.291-4.308c0.708-1.346,1.658-2.495,2.774-3.423l0.002-0.002
	l0.132-0.109l-0.013-0.017l0.182-0.138c1.234-0.948,2.237-2.006,3.024-3.097c0.86-1.197,1.46-2.437,1.811-3.621
	c0.184-0.618,0.3-1.221,0.35-1.792c0.051-0.578,0.033-1.123-0.049-1.618c-0.077-0.466-0.215-0.887-0.406-1.248l0,0
	c-0.183-0.345-0.418-0.636-0.7-0.854l-0.004-0.001c-0.213-0.167-0.459-0.296-0.732-0.382h-0.001c-0.27-0.086-0.57-0.13-0.896-0.129
	c-0.72,0.001-1.311,0.186-1.776,0.485c-0.52,0.336-0.887,0.821-1.104,1.365c-0.079,0.194-0.136,0.399-0.178,0.608
	c-0.043,0.214-0.065,0.43-0.066,0.642c-0.001,0.21,0.015,0.424,0.05,0.633c0.036,0.205,0.089,0.404,0.16,0.592
	c0.176,0.466,0.468,0.873,0.871,1.153c0.362,0.252,0.819,0.403,1.367,0.403c0.159,0,0.309-0.032,0.443-0.085h0.001
	c0.149-0.06,0.289-0.151,0.411-0.259c0.083-0.074,0.157-0.155,0.222-0.239c0.067-0.088,0.125-0.181,0.17-0.273
	c0.042-0.086,0.075-0.172,0.097-0.256l0,0c0.02-0.078,0.03-0.154,0.03-0.227c0-0.047-0.005-0.089-0.015-0.121l0,0
	c-0.007-0.022-0.016-0.039-0.023-0.049l-0.15-0.169l0.169-0.15l0.679-0.604l0.17-0.151l0.15,0.17
	c0.13,0.146,0.225,0.311,0.288,0.489c0.064,0.184,0.096,0.381,0.096,0.584c0,0.173-0.023,0.355-0.07,0.539
	c-0.045,0.18-0.112,0.362-0.2,0.542h0.001c-0.084,0.171-0.188,0.341-0.309,0.5h-0.001c-0.119,0.157-0.254,0.303-0.397,0.433
	c-0.24,0.211-0.519,0.391-0.828,0.513c-0.287,0.112-0.6,0.177-0.933,0.177c-0.853,0-1.569-0.239-2.145-0.639
	c-0.635-0.44-1.093-1.078-1.367-1.802c-0.101-0.269-0.178-0.55-0.227-0.837c-0.05-0.286-0.073-0.583-0.07-0.881
	c0.004-0.299,0.035-0.6,0.093-0.891c0.055-0.287,0.138-0.573,0.25-0.85c0.315-0.794,0.851-1.506,1.609-2
	c0.67-0.438,1.513-0.705,2.532-0.708c0.479-0.001,0.925,0.066,1.33,0.196c0.422,0.137,0.801,0.338,1.136,0.598l0.203,0.158
	L124.49,19c0.337,0.303,0.622,0.671,0.85,1.089c0.275,0.501,0.465,1.075,0.569,1.703c0.1,0.599,0.122,1.251,0.064,1.934
	c-0.055,0.667-0.189,1.368-0.4,2.083c-0.252,0.845-0.616,1.714-1.095,2.58c-0.337,0.608-0.732,1.213-1.185,1.807
	c0.463-0.137,0.937-0.247,1.414-0.326c0.729-0.122,1.474-0.178,2.224-0.163c0.188,0.003,0.367,0.011,0.541,0.021
	c0.178,0.011,0.356,0.026,0.529,0.045c1.665,0.18,3.291,0.729,4.865,1.573c1.571,0.84,3.094,1.974,4.563,3.325
	c1.447,1.332,2.847,2.879,4.192,4.571c1.344,1.687,2.635,3.521,3.864,5.428c0.645,0.998,1.545,2.229,2.618,3.301
	c0.799,0.795,1.693,1.505,2.647,1.965c0.76,0.362,1.563,0.567,2.395,0.522c0.738-0.041,1.501-0.277,2.277-0.772
	c0.367-0.235,0.682-0.559,0.933-0.939c0.266-0.403,0.467-0.872,0.592-1.372c0.076-0.311,0.126-0.635,0.145-0.96
	c0.018-0.323,0.006-0.648-0.038-0.968c-0.044-0.322-0.118-0.641-0.227-0.946c-0.104-0.293-0.239-0.573-0.404-0.831
	c-0.242-0.379-0.558-0.718-0.946-0.993c-0.362-0.256-0.789-0.455-1.285-0.579v0c-0.735-0.183-1.388-0.174-1.946-0.03
	c-0.623,0.161-1.134,0.495-1.519,0.917c-0.152,0.168-0.285,0.35-0.399,0.542c-0.117,0.198-0.213,0.403-0.285,0.613
	c-0.072,0.206-0.123,0.416-0.151,0.625c-0.027,0.207-0.034,0.414-0.019,0.615c0.03,0.383,0.147,0.743,0.355,1.037
	c0.19,0.269,0.461,0.485,0.813,0.62l0.212,0.082l-0.081,0.21l-0.322,0.849l-0.082,0.213L150.556,48.311z"/>
<path fill-rule="evenodd" clip-rule="evenodd" fill="#BB8D40" d="M126.561,40.648c0.382,0,0.729,0.155,0.979,0.406v0h0.001
	c0.251,0.25,0.406,0.599,0.406,0.98c0,0.382-0.155,0.729-0.407,0.98l0.001,0.001c-0.251,0.25-0.598,0.406-0.98,0.406
	c-0.384,0-0.729-0.155-0.98-0.406c-0.251-0.251-0.406-0.599-0.406-0.981c0-0.382,0.155-0.73,0.406-0.98l0,0
	C125.833,40.802,126.178,40.648,126.561,40.648 M112.705,47.606c0.383,0,0.729,0.156,0.98,0.407v0l0.001,0
	c0.25,0.25,0.406,0.598,0.406,0.98c0,0.382-0.156,0.729-0.406,0.979l0,0c-0.251,0.252-0.598,0.408-0.981,0.408
	c-0.382,0-0.729-0.156-0.98-0.408l0,0c-0.251-0.25-0.406-0.597-0.406-0.979c0-0.382,0.155-0.729,0.406-0.98v-0.001
	C111.977,47.761,112.324,47.606,112.705,47.606z M140.164,46.913c0.382,0,0.729,0.156,0.979,0.408l0.001,0l0,0
	c0.252,0.25,0.407,0.597,0.407,0.979c0,0.382-0.154,0.73-0.407,0.98v0.002c-0.25,0.25-0.597,0.406-0.979,0.406
	s-0.729-0.156-0.98-0.406c-0.251-0.252-0.406-0.599-0.406-0.982c0-0.383,0.155-0.729,0.406-0.979l0.001,0
	C139.436,47.069,139.782,46.913,140.164,46.913z M151.069,45.661c0.38,0,0.729,0.155,0.979,0.407l0.001,0l0,0
	c0.251,0.251,0.406,0.599,0.406,0.98s-0.154,0.729-0.406,0.98v0c-0.251,0.25-0.599,0.406-0.98,0.406
	c-0.383,0-0.73-0.156-0.981-0.406s-0.406-0.598-0.406-0.981s0.155-0.73,0.406-0.981h0.001
	C150.339,45.815,150.687,45.661,151.069,45.661z M122.445,22.352c0.382,0,0.729,0.155,0.979,0.407v0l0,0
	c0.253,0.25,0.407,0.598,0.407,0.98c0,0.382-0.153,0.728-0.407,0.979v0c-0.251,0.251-0.597,0.407-0.979,0.407
	c-0.384,0-0.73-0.156-0.979-0.407c-0.252-0.25-0.407-0.597-0.407-0.98c0-0.383,0.155-0.73,0.407-0.98l0,0
	C121.716,22.506,122.062,22.352,122.445,22.352z"/>
<path fill="#BB8D40" d="M50.661,43.096c0.897-1.286,1.824-2.521,2.776-3.675c1.133-1.375,2.303-2.639,3.507-3.746
	c1.375-1.264,2.791-2.323,4.239-3.103c1.441-0.777,2.914-1.281,4.411-1.443c0.163-0.018,0.324-0.032,0.482-0.042
	c0.163-0.01,0.32-0.017,0.466-0.02c1.269-0.025,2.521,0.176,3.695,0.581c1.17,0.405,2.265,1.014,3.219,1.806
	c0.981,0.815,1.818,1.828,2.44,3.015c0.586,1.12,0.986,2.398,1.139,3.814c0.019,0.181,0.035,0.363,0.046,0.543
	c0.012,0.184,0.02,0.363,0.023,0.537c0.04,2.092-0.451,3.83-1.289,5.214h0.001c-0.941,1.554-2.323,2.667-3.883,3.341
	c-0.562,0.239-1.148,0.428-1.744,0.559c-0.607,0.134-1.223,0.21-1.834,0.224c-0.614,0.017-1.227-0.023-1.827-0.125
	c-0.591-0.095-1.169-0.248-1.721-0.458c-0.701-0.266-1.363-0.622-1.956-1.072c-0.504-0.38-0.959-0.828-1.351-1.341l0.011-0.005
	l-0.12-0.193c-0.085-0.135-0.166-0.261-0.245-0.378c-0.081-0.122-0.163-0.24-0.243-0.354c-0.283-0.528-0.507-1.112-0.661-1.747
	c-0.147-0.614-0.232-1.28-0.239-1.993c-0.004-0.358,0.013-0.703,0.048-1.032c0.035-0.338,0.09-0.656,0.162-0.955
	c0.18-0.75,0.473-1.4,0.847-1.955c0.403-0.595,0.903-1.081,1.461-1.461c0.528-0.359,1.112-0.628,1.718-0.81
	c0.645-0.193,1.315-0.29,1.973-0.297c0.289-0.002,0.581,0.012,0.87,0.043c0.288,0.032,0.569,0.081,0.836,0.145
	c0.578,0.138,1.126,0.366,1.62,0.669l0-0.001c0.488,0.302,0.923,0.678,1.281,1.117c0.343,0.419,0.619,0.898,0.802,1.426
	c0.177,0.504,0.272,1.052,0.271,1.633c-0.002,0.938-0.201,1.685-0.53,2.259c-0.368,0.645-0.901,1.075-1.494,1.321v0
	c-0.279,0.115-0.574,0.192-0.872,0.233c-0.31,0.041-0.625,0.042-0.933,0.008c-0.3-0.033-0.591-0.103-0.861-0.202
	c-0.267-0.099-0.511-0.228-0.723-0.382c-0.336-0.246-0.594-0.565-0.722-0.944c-0.116-0.342-0.127-0.739,0.002-1.179h0
	c0.031-0.104,0.072-0.196,0.117-0.271c0.049-0.082,0.106-0.149,0.167-0.204c0.06-0.054,0.128-0.099,0.198-0.134
	c0.078-0.038,0.159-0.065,0.237-0.081c0.073-0.015,0.146-0.021,0.211-0.021c0.064,0.001,0.124,0.01,0.174,0.024h0.001l0.027,0.008
	l0.128,0.143l0.168-0.15l0.675-0.604l0.17-0.151l-0.152-0.169c-0.079-0.087-0.174-0.164-0.283-0.229
	c-0.106-0.063-0.226-0.116-0.351-0.152c-0.153-0.045-0.326-0.072-0.509-0.077c-0.171-0.004-0.352,0.01-0.531,0.047
	c-0.193,0.04-0.388,0.104-0.574,0.197c-0.171,0.085-0.339,0.198-0.495,0.337c-0.154,0.138-0.296,0.304-0.416,0.497
	c-0.11,0.178-0.203,0.38-0.27,0.606c-0.218,0.738-0.196,1.412,0.004,2.001c0.221,0.647,0.656,1.189,1.222,1.602
	c0.311,0.228,0.663,0.415,1.04,0.555h0c0.378,0.142,0.783,0.239,1.196,0.286c0.415,0.045,0.844,0.042,1.27-0.015
	c0.411-0.056,0.817-0.162,1.205-0.323c0.844-0.35,1.602-0.952,2.126-1.843c0.455-0.773,0.733-1.764,0.736-2.994
	c0.002-0.742-0.121-1.442-0.348-2.087c-0.237-0.675-0.589-1.291-1.029-1.831c-0.453-0.554-1.001-1.03-1.617-1.409
	c-0.616-0.38-1.3-0.665-2.025-0.839c-0.327-0.078-0.664-0.137-1.001-0.174c-0.335-0.037-0.681-0.054-1.03-0.051
	c-0.791,0.007-1.594,0.124-2.365,0.356c-0.732,0.221-1.439,0.547-2.083,0.985c-0.693,0.471-1.315,1.075-1.817,1.815h0
	c-0.461,0.684-0.822,1.484-1.044,2.411c-0.086,0.357-0.151,0.732-0.192,1.121c-0.04,0.376-0.059,0.774-0.055,1.19
	c0.004,0.359,0.023,0.706,0.058,1.038c0.013,0.122,0.027,0.242,0.044,0.361c-0.561-0.456-1.135-0.823-1.715-1.11
	c-0.806-0.401-1.623-0.648-2.42-0.763c-0.604-0.086-1.199-0.097-1.771-0.042c-0.6,0.058-1.173,0.188-1.709,0.379h0
	C50.973,42.964,50.815,43.026,50.661,43.096 M42.896,48.311c0.618-0.236,1.091-0.615,1.426-1.082
	c0.362-0.502,0.564-1.105,0.615-1.741c0.023-0.292,0.014-0.593-0.027-0.896c-0.042-0.301-0.113-0.604-0.216-0.898
	c-0.103-0.298-0.237-0.588-0.4-0.863c-0.159-0.268-0.347-0.524-0.562-0.76c-0.549-0.604-1.272-1.08-2.147-1.314
	c-0.771-0.206-1.66-0.225-2.65,0.022c-0.671,0.167-1.253,0.44-1.749,0.792c-0.534,0.378-0.967,0.846-1.303,1.371
	c-0.222,0.347-0.401,0.717-0.538,1.099c-0.141,0.394-0.24,0.808-0.296,1.227c-0.054,0.406-0.068,0.816-0.046,1.224
	c0.022,0.41,0.083,0.818,0.181,1.21c0.165,0.659,0.433,1.285,0.8,1.826l0,0c0.351,0.521,0.792,0.97,1.315,1.306
	c0.994,0.634,1.976,0.939,2.929,0.991c1.067,0.057,2.094-0.201,3.059-0.662c0.787-0.38,1.53-0.896,2.213-1.482
	c0.626-0.537,1.206-1.134,1.728-1.742l0.003,0.107c0.011,0.268,0.047,0.542,0.108,0.816c0.22,0.988,0.624,1.745,1.133,2.301
	c0.586,0.638,1.311,1.009,2.059,1.158c0.298,0.057,0.602,0.08,0.902,0.068c0.309-0.01,0.613-0.057,0.9-0.135l0,0
	c0.287-0.077,0.567-0.189,0.828-0.33h0c0.257-0.14,0.498-0.311,0.711-0.507c0.462-0.424,0.8-0.967,0.936-1.597
	c0.122-0.566,0.08-1.201-0.18-1.88l-0.082-0.212l-0.211,0.081l-0.845,0.324l-0.212,0.081l0.082,0.212
	c0.153,0.4,0.181,0.77,0.113,1.093c-0.074,0.355-0.263,0.659-0.522,0.897h0c-0.13,0.119-0.279,0.225-0.444,0.313
	c-0.165,0.087-0.344,0.16-0.531,0.208h-0.001c-0.193,0.055-0.393,0.086-0.592,0.094c-0.195,0.008-0.395-0.008-0.593-0.049
	c-0.485-0.095-0.958-0.346-1.345-0.779c-0.346-0.39-0.624-0.927-0.782-1.633c-0.119-0.534-0.097-1.06,0.039-1.553
	c0.144-0.522,0.419-1.013,0.794-1.44c0.262-0.3,0.576-0.573,0.929-0.807c0.351-0.232,0.741-0.428,1.162-0.579l0,0
	c0.436-0.155,0.901-0.262,1.386-0.307c0.465-0.045,0.951-0.036,1.445,0.036c0.932,0.133,1.899,0.489,2.841,1.117
	c0.853,0.569,1.687,1.363,2.458,2.422c0.495,0.917,1.143,1.701,1.897,2.345c0.8,0.685,1.722,1.214,2.711,1.589
	c0.633,0.239,1.298,0.416,1.976,0.526c0.683,0.111,1.383,0.158,2.083,0.141c0.705-0.02,1.41-0.105,2.097-0.253
	c0.68-0.149,1.348-0.36,1.987-0.638c0.958-0.412,1.86-0.972,2.658-1.671c0.747-0.654,1.403-1.434,1.931-2.338
	c0.628-0.539,1.31-0.938,1.999-1.206c0.745-0.29,1.499-0.426,2.202-0.419c0.282,0.002,0.557,0.029,0.819,0.079
	c0.259,0.048,0.508,0.119,0.74,0.21c0.221,0.09,0.431,0.2,0.622,0.331c0.183,0.125,0.348,0.271,0.493,0.434
	c0.205,0.232,0.366,0.504,0.474,0.812c0.103,0.298,0.158,0.631,0.154,0.997c-0.006,0.546-0.135,1.003-0.343,1.373
	c-0.234,0.411-0.567,0.714-0.94,0.911l-0.001-0.002c-0.144,0.075-0.294,0.133-0.446,0.177c-0.157,0.045-0.315,0.073-0.472,0.085
	h-0.001c-0.156,0.012-0.309,0.008-0.456-0.012c-0.142-0.02-0.282-0.054-0.413-0.102c-0.258-0.097-0.487-0.26-0.654-0.485
	c-0.145-0.194-0.247-0.439-0.285-0.737l-0.005-0.056l-0.002-0.021c-0.006-0.075-0.002-0.152,0.013-0.225l0,0
	c0.014-0.068,0.035-0.129,0.064-0.18c0.018-0.031,0.038-0.056,0.058-0.07c0.008-0.006,0.016-0.01,0.023-0.014h0.008l0.012-0.001
	l0.227-0.019l-0.02-0.228l-0.011-0.125v-0.109L80.91,48.56l-0.058-0.672l-0.02-0.227l-0.227,0.02l-0.012,0l-0.011,0.003
	c-0.249,0.024-0.467,0.107-0.653,0.23l0,0c-0.2,0.133-0.363,0.316-0.486,0.526c-0.102,0.174-0.175,0.37-0.218,0.573
	c-0.043,0.205-0.058,0.42-0.041,0.627l0.001,0.021l0.003,0.016c0.059,0.595,0.259,1.092,0.556,1.488
	c0.325,0.434,0.766,0.746,1.264,0.933c0.225,0.088,0.462,0.146,0.705,0.179c0.245,0.035,0.495,0.041,0.744,0.023
	c0.248-0.02,0.498-0.066,0.743-0.136c0.237-0.068,0.475-0.163,0.704-0.282c0.59-0.31,1.116-0.781,1.482-1.415
	c0.325-0.56,0.524-1.248,0.533-2.06c0.005-0.539-0.077-1.033-0.235-1.478c-0.166-0.47-0.414-0.886-0.729-1.243
	c-0.215-0.243-0.462-0.459-0.735-0.647c-0.275-0.189-0.579-0.351-0.901-0.48c-0.311-0.124-0.642-0.218-0.984-0.282
	c-0.341-0.064-0.699-0.1-1.065-0.104c-0.617-0.006-1.263,0.075-1.906,0.248c-0.451,0.121-0.904,0.288-1.351,0.501
	c0.134-0.46,0.24-0.943,0.315-1.447c0.101-0.67,0.148-1.383,0.133-2.137c-0.004-0.213-0.013-0.417-0.024-0.61
	c-0.012-0.202-0.03-0.399-0.05-0.591c-0.173-1.597-0.625-3.04-1.29-4.308c-0.708-1.346-1.658-2.495-2.774-3.423l-0.002-0.002
	l-0.134-0.109l0.014-0.017l-0.18-0.138c-1.235-0.948-2.239-2.006-3.024-3.097c-0.861-1.197-1.46-2.437-1.811-3.621
	c-0.184-0.618-0.3-1.221-0.35-1.792c-0.05-0.578-0.033-1.123,0.049-1.618c0.078-0.466,0.214-0.887,0.405-1.248l0,0
	c0.184-0.345,0.419-0.636,0.702-0.854l0.003-0.001c0.214-0.167,0.459-0.296,0.733-0.382h0.001c0.27-0.086,0.57-0.13,0.896-0.129
	c0.718,0.001,1.31,0.186,1.774,0.485c0.522,0.336,0.889,0.821,1.105,1.365c0.078,0.194,0.137,0.399,0.179,0.608
	c0.041,0.214,0.063,0.43,0.065,0.642c0.002,0.21-0.014,0.424-0.05,0.633c-0.035,0.205-0.088,0.404-0.16,0.592
	c-0.176,0.466-0.468,0.873-0.871,1.153c-0.362,0.252-0.82,0.403-1.369,0.403c-0.158,0-0.306-0.032-0.441-0.085h-0.001
	c-0.151-0.06-0.289-0.151-0.412-0.259c-0.083-0.074-0.157-0.155-0.222-0.239c-0.067-0.088-0.125-0.181-0.169-0.273
	c-0.043-0.086-0.075-0.172-0.097-0.256h0c-0.019-0.078-0.029-0.154-0.029-0.227c0-0.047,0.005-0.089,0.013-0.121l0,0
	c0.006-0.022,0.015-0.039,0.023-0.049l0.151-0.169l-0.17-0.15l-0.678-0.604L70.097,22.7l-0.151,0.17
	c-0.129,0.146-0.225,0.311-0.287,0.489c-0.064,0.184-0.097,0.381-0.097,0.584c0,0.173,0.025,0.355,0.07,0.539
	c0.045,0.18,0.113,0.362,0.2,0.542h0c0.084,0.171,0.188,0.341,0.309,0.5h0.001c0.118,0.157,0.252,0.303,0.397,0.433
	c0.239,0.211,0.518,0.391,0.828,0.513c0.287,0.112,0.599,0.177,0.931,0.177c0.854,0,1.571-0.239,2.146-0.639
	c0.635-0.44,1.093-1.078,1.367-1.802c0.101-0.269,0.177-0.55,0.227-0.837c0.048-0.286,0.072-0.583,0.068-0.881
	c-0.003-0.299-0.033-0.6-0.09-0.891c-0.056-0.287-0.14-0.573-0.25-0.85c-0.317-0.794-0.852-1.506-1.61-2
	c-0.67-0.438-1.515-0.705-2.532-0.708c-0.481-0.001-0.925,0.066-1.33,0.196c-0.423,0.137-0.803,0.338-1.136,0.598l-0.203,0.158
	L68.962,19c-0.338,0.303-0.624,0.671-0.852,1.089c-0.272,0.501-0.463,1.075-0.568,1.703c-0.1,0.599-0.123,1.251-0.064,1.934
	c0.057,0.667,0.189,1.368,0.403,2.083c0.25,0.845,0.613,1.714,1.092,2.58c0.337,0.608,0.732,1.213,1.186,1.807
	c-0.464-0.137-0.937-0.247-1.416-0.326c-0.728-0.122-1.473-0.178-2.223-0.163c-0.187,0.003-0.367,0.011-0.54,0.021
	c-0.18,0.011-0.357,0.026-0.531,0.045c-1.666,0.18-3.29,0.729-4.866,1.573c-1.569,0.84-3.093,1.974-4.563,3.325
	c-1.448,1.332-2.846,2.879-4.192,4.571c-1.343,1.687-2.632,3.521-3.864,5.428c-0.644,0.998-1.544,2.229-2.618,3.301
	c-0.798,0.795-1.692,1.505-2.647,1.965c-0.76,0.362-1.564,0.567-2.394,0.522c-0.738-0.041-1.501-0.277-2.277-0.772
	c-0.367-0.235-0.68-0.559-0.932-0.939c-0.269-0.403-0.468-0.872-0.592-1.372c-0.078-0.311-0.127-0.635-0.144-0.96
	c-0.019-0.323-0.007-0.648,0.036-0.968c0.043-0.322,0.119-0.641,0.227-0.946c0.105-0.293,0.24-0.573,0.404-0.831
	c0.243-0.379,0.557-0.718,0.946-0.993c0.362-0.256,0.79-0.455,1.287-0.579v0c0.735-0.183,1.387-0.174,1.944-0.03
	c0.624,0.161,1.135,0.495,1.52,0.917c0.152,0.168,0.285,0.35,0.399,0.542c0.117,0.198,0.213,0.403,0.286,0.613
	c0.071,0.206,0.123,0.416,0.15,0.625c0.028,0.207,0.034,0.414,0.019,0.615c-0.031,0.383-0.147,0.743-0.356,1.037
	c-0.19,0.269-0.459,0.485-0.811,0.62l-0.212,0.082l0.08,0.21l0.323,0.849l0.082,0.213L42.896,48.311z"/>
<path fill-rule="evenodd" clip-rule="evenodd" fill="#BB8D40" d="M66.829,40.648c-0.382,0-0.729,0.155-0.981,0.406v0h0
	c-0.251,0.25-0.406,0.599-0.406,0.98c0,0.382,0.154,0.729,0.406,0.98l0,0.001c0.251,0.25,0.598,0.406,0.981,0.406
	c0.382,0,0.73-0.155,0.98-0.406c0.251-0.251,0.407-0.599,0.407-0.981c0-0.382-0.156-0.73-0.407-0.98l0,0
	C67.558,40.802,67.211,40.648,66.829,40.648 M80.685,47.606c-0.381,0-0.729,0.156-0.98,0.407v0l0,0
	c-0.251,0.25-0.407,0.598-0.407,0.98c0,0.382,0.155,0.729,0.407,0.979l0,0c0.25,0.252,0.598,0.408,0.98,0.408
	c0.383,0,0.73-0.156,0.981-0.408l0,0c0.251-0.25,0.406-0.597,0.406-0.979c0-0.382-0.156-0.729-0.406-0.98l-0.001-0.001
	C81.413,47.761,81.067,47.606,80.685,47.606z M53.226,46.913c-0.382,0-0.729,0.156-0.981,0.408v0h0
	c-0.25,0.25-0.405,0.597-0.405,0.979c0,0.382,0.154,0.73,0.405,0.98v0.002c0.251,0.25,0.599,0.406,0.981,0.406
	s0.73-0.156,0.981-0.406c0.25-0.252,0.406-0.599,0.406-0.982c0-0.383-0.155-0.729-0.406-0.979l-0.001,0
	C53.955,47.069,53.608,46.913,53.226,46.913z M42.321,45.661c-0.382,0-0.729,0.155-0.979,0.407l0,0h0
	c-0.251,0.251-0.407,0.599-0.407,0.98s0.156,0.729,0.408,0.98l0,0c0.251,0.25,0.597,0.406,0.98,0.406c0.383,0,0.73-0.156,0.98-0.406
	c0.251-0.25,0.408-0.598,0.408-0.981s-0.157-0.73-0.408-0.981h0C43.05,45.815,42.704,45.661,42.321,45.661z M70.944,22.352
	c-0.381,0-0.729,0.155-0.979,0.407v0h0c-0.251,0.25-0.407,0.598-0.407,0.98c0,0.382,0.155,0.728,0.407,0.979v0
	c0.25,0.251,0.597,0.407,0.979,0.407c0.383,0,0.731-0.156,0.982-0.407c0.251-0.25,0.406-0.597,0.406-0.98
	c0-0.383-0.155-0.73-0.406-0.98h0C71.675,22.506,71.327,22.352,70.944,22.352z"/>
<path fill="#BB8D40" d="M76.092,31.415l0-27.936V2.796h0.679h39.905h0.682v0.683v28.015l-0.02,0.146
	c-1.078,4.889-3.566,8.94-6.92,12.126c-3.698,3.513-8.451,5.971-13.52,7.336h-0.351c-5.063-1.363-9.807-3.837-13.502-7.363
	c-3.362-3.207-5.858-7.281-6.938-12.178L76.092,31.415z M76.092,0h41.267v1.364H76.092V0z M77.451,4.16L77.45,31.339
	c1.027,4.582,3.375,8.402,6.534,11.416c3.483,3.321,7.955,5.669,12.741,6.985c4.794-1.318,9.272-3.65,12.756-6.959
	c3.149-2.991,5.488-6.783,6.514-11.35V4.16H77.451z"/>
<path fill="#BB8D40" d="M98.909,25.743l-1.99-6.177h-0.205l-2.048,6.177H98.909z M99.469,27.489h-5.381l-1.112,3.362h1.807v1.855
	h-5.849v-1.855h1.793l4.049-11.285h-1.804v-1.68h7.616v1.68h-1.88l4.15,11.285h1.658v1.855h-5.806v-1.855h1.842L99.469,27.489z"/>
<path fill-rule="evenodd" clip-rule="evenodd" fill="#BB8D40" d="M132.921,79.156V73.81h1.847v1.308
	c0.888,1.605,2.048,2.409,3.479,2.409c0.732,0,1.35-0.225,1.852-0.67c0.504-0.447,0.758-1.033,0.758-1.759
	c0-0.703-0.208-1.206-0.616-1.514c-0.409-0.311-1.185-0.618-2.325-0.925c-1.325-0.353-2.306-0.687-2.942-1.002
	c-0.639-0.315-1.148-0.768-1.526-1.35c-0.378-0.584-0.569-1.276-0.569-2.077c0-1.238,0.414-2.229,1.238-2.967
	c0.827-0.738,1.867-1.107,3.113-1.107c1.186,0,2.288,0.381,3.302,1.145v-0.994h1.805v4.479h-1.805v-1.028
	c-0.761-1.143-1.804-1.711-3.143-1.711c-0.806,0-1.428,0.186-1.862,0.559c-0.431,0.371-0.648,0.82-0.648,1.338
	c0,0.396,0.111,0.746,0.33,1.046c0.222,0.304,0.5,0.525,0.841,0.667c0.342,0.141,1.008,0.341,2.008,0.602
	c1.301,0.34,2.248,0.658,2.837,0.953c0.589,0.292,1.097,0.782,1.521,1.471c0.425,0.683,0.638,1.474,0.638,2.366
	c0,1.257-0.446,2.297-1.336,3.116c-0.893,0.82-1.994,1.232-3.304,1.232c-1.35,0-2.564-0.485-3.644-1.452v1.212H132.921z
	 M121.731,72.222l-1.982-6.153h-0.202l-2.041,6.153H121.731z M122.289,73.961h-5.358l-1.11,3.349h1.802v1.847h-5.827V77.31h1.786
	l4.034-11.241h-1.799v-1.672h7.589v1.672h-1.874l4.135,11.241h1.652v1.847h-5.783V77.31h1.833L122.289,73.961z M97.998,77.31V66.242
	h-1.676v-1.846h5.653v1.846h-1.738v4.219h6.392v-4.219h-1.74v-1.846h5.676v1.846h-1.695V77.31h1.695v1.847h-5.676V77.31h1.74v-5.001
	h-6.392v5.001h1.738v1.847h-5.653V77.31H97.998z M83.846,79.156V73.81h1.848v1.308c0.888,1.605,2.048,2.409,3.479,2.409
	c0.731,0,1.348-0.225,1.852-0.67c0.504-0.447,0.757-1.033,0.757-1.759c0-0.703-0.206-1.206-0.617-1.514
	c-0.409-0.313-1.184-0.616-2.326-0.925c-1.326-0.351-2.305-0.687-2.943-1.002c-0.637-0.315-1.149-0.766-1.525-1.35
	c-0.38-0.584-0.569-1.276-0.569-2.077c0-1.238,0.414-2.227,1.241-2.967c0.826-0.738,1.865-1.107,3.112-1.107
	c1.185,0,2.287,0.381,3.302,1.145v-0.994h1.804v4.479h-1.804v-1.028c-0.761-1.143-1.806-1.711-3.142-1.711
	c-0.808,0-1.428,0.186-1.863,0.559c-0.431,0.373-0.648,0.82-0.648,1.338c0,0.396,0.109,0.746,0.329,1.046
	c0.222,0.306,0.5,0.525,0.842,0.667c0.34,0.141,1.006,0.341,2.007,0.602c1.301,0.34,2.246,0.658,2.837,0.953
	c0.588,0.294,1.095,0.78,1.522,1.471c0.424,0.685,0.638,1.474,0.638,2.366c0,1.257-0.446,2.297-1.337,3.116
	c-0.892,0.822-1.993,1.232-3.305,1.232c-1.348,0-2.562-0.485-3.642-1.452v1.212H83.846z M77.096,72.222l-1.983-6.153H74.91
	l-2.04,6.153H77.096z M77.654,73.961h-5.36l-1.108,3.349h1.8v1.847H67.16V77.31h1.786l4.033-11.241h-1.797v-1.672h7.587v1.672
	h-1.873l4.134,11.241h1.652v1.847H76.9V77.31h1.833L77.654,73.961z M60.336,72.222l-1.983-6.153h-0.202l-2.04,6.153H60.336z
	 M129.163,64.156h-0.015c-0.686,0-1.028,0.456-1.028,1.369c0,0.255,0.082,0.816,0.242,1.698l0.571,3.143h0.47l0.571-3.131
	c0.188-1.021,0.275-1.673,0.275-1.956c0-0.31-0.099-0.576-0.298-0.795C129.759,64.271,129.493,64.16,129.163,64.156z M60.894,73.961
	h-5.359l-1.109,3.349h1.801v1.847H50.4V77.31h1.786l4.033-11.241h-1.797v-1.672h7.588v1.672h-1.874l4.134,11.241h1.653v1.847H60.14
	V77.31h1.833L60.894,73.961z"/>
</svg>
