<svg version="1.1" xmlns="http://www.w3.org/2000/svg" xmlns:xlink="http://www.w3.org/1999/xlink" width="131.43356609344482" height="84" enable-background="new 0 0 193.452 97.671" xml:space="preserve" style=""><rect id="backgroundrect" width="100%" height="100%" x="0" y="0" fill="none" stroke="none" style="" class=""/>












<g class="currentLayer" style=""><title>Layer 1</title><path fill="#BB8D40" d="M112.72114562988281,44.49460023641586 c-0.8989999890327454,-1.2860000133514404 -1.8229999542236328,-2.5209999084472656 -2.7760000228881836,-3.674999952316284 c-1.1330000162124634,-1.375 -2.302999973297119,-2.6389999389648438 -3.50600004196167,-3.746000051498413 c-1.3760000467300415,-1.2640000581741333 -2.7909998893737793,-2.322999954223633 -4.238999843597412,-3.1029999256134033 c-1.440000057220459,-0.7770000100135803 -2.9119999408721924,-1.281000018119812 -4.409999847412109,-1.4429999589920044 c-0.16300000250339508,-0.017999999225139618 -0.32600000500679016,-0.03200000151991844 -0.4819999933242798,-0.041999999433755875 c-0.16300000250339508,-0.009999999776482582 -0.3190000057220459,-0.017000000923871994 -0.46700000762939453,-0.019999999552965164 c-1.2699999809265137,-0.02500000037252903 -2.5209999084472656,0.17599999904632568 -3.694999933242798,0.5809999704360962 c-1.1699999570846558,0.4050000011920929 -2.2639999389648438,1.0140000581741333 -3.2190001010894775,1.805999994277954 c-0.9810000061988831,0.8149999976158142 -1.815999984741211,1.8279999494552612 -2.437999963760376,3.015000104904175 c-0.5899999737739563,1.1200000047683716 -0.9879999756813049,2.3980000019073486 -1.1399999856948853,3.813999891281128 c-0.019999999552965164,0.1809999942779541 -0.035999998450279236,0.3630000054836273 -0.04699999839067459,0.5429999828338623 c-0.012000000104308128,0.18400000035762787 -0.020999999716877937,0.3630000054836273 -0.023000000044703484,0.5370000004768372 c-0.03999999910593033,2.0920000076293945 0.4519999921321869,3.8299999237060547 1.2899999618530273,5.214000225067139 l0,0 c0.9399999976158142,1.5540000200271606 2.322000026702881,2.6670000553131104 3.880000114440918,3.3410000801086426 c0.5630000233650208,0.23899999260902405 1.1480000019073486,0.42800000309944153 1.74399995803833,0.5590000152587891 c0.6069999933242798,0.1340000033378601 1.225000023841858,0.20999999344348907 1.8359999656677246,0.2240000069141388 c0.6129999756813049,0.017000000923871994 1.2280000448226929,-0.023000000044703484 1.8250000476837158,-0.125 c0.5920000076293945,-0.0949999988079071 1.1699999570846558,-0.24799999594688416 1.722000002861023,-0.4580000042915344 c0.7009999752044678,-0.26600000262260437 1.3619999885559082,-0.621999979019165 1.9539999961853027,-1.0720000267028809 c0.5049999952316284,-0.3799999952316284 0.9610000252723694,-0.828000009059906 1.3509999513626099,-1.340999960899353 l-0.009999999776482582,-0.004999999888241291 l0.11999999731779099,-0.19300000369548798 c0.08500000089406967,-0.13500000536441803 0.16599999368190765,-0.26100000739097595 0.2460000067949295,-0.3779999911785126 c0.08100000023841858,-0.12200000137090683 0.16099999845027924,-0.23999999463558197 0.24300000071525574,-0.3540000021457672 c0.28200000524520874,-0.527999997138977 0.5080000162124634,-1.1119999885559082 0.6600000262260437,-1.746999979019165 c0.1469999998807907,-0.6140000224113464 0.23100000619888306,-1.2799999713897705 0.23899999260902405,-1.9930000305175781 c0.004000000189989805,-0.3580000102519989 -0.012000000104308128,-0.703000009059906 -0.04800000041723251,-1.031999945640564 c-0.035999998450279236,-0.33799999952316284 -0.08900000154972076,-0.656000018119812 -0.16200000047683716,-0.9549999833106995 c-0.17800000309944153,-0.75 -0.47200000286102295,-1.399999976158142 -0.8450000286102295,-1.9550000429153442 c-0.40400001406669617,-0.5950000286102295 -0.902999997138977,-1.0809999704360962 -1.4639999866485596,-1.4609999656677246 c-0.5260000228881836,-0.35899999737739563 -1.1109999418258667,-0.628000020980835 -1.7170000076293945,-0.8100000023841858 c-0.6449999809265137,-0.19300000369548798 -1.3140000104904175,-0.28999999165534973 -1.9730000495910645,-0.296999990940094 c-0.28999999165534973,-0.0020000000949949026 -0.5820000171661377,0.012000000104308128 -0.8690000176429749,0.0430000014603138 c-0.289000004529953,0.03200000151991844 -0.5690000057220459,0.08100000023841858 -0.8370000123977661,0.14499999582767487 c-0.5789999961853027,0.1379999965429306 -1.1260000467300415,0.3659999966621399 -1.61899995803833,0.6690000295639038 v-0.0010000000474974513 c-0.49000000953674316,0.3019999861717224 -0.925000011920929,0.6779999732971191 -1.281999945640564,1.1169999837875366 c-0.3440000116825104,0.4189999997615814 -0.6169999837875366,0.8980000019073486 -0.8019999861717224,1.4259999990463257 c-0.1770000010728836,0.5040000081062317 -0.27300000190734863,1.0520000457763672 -0.2709999978542328,1.6330000162124634 c0.0020000000949949026,0.9380000233650208 0.2029999941587448,1.684999942779541 0.5320000052452087,2.259000062942505 c0.367000013589859,0.6449999809265137 0.8989999890327454,1.0750000476837158 1.4930000305175781,1.3209999799728394 v0 c0.27900001406669617,0.11500000208616257 0.5730000138282776,0.19200000166893005 0.8709999918937683,0.2329999953508377 c0.3100000023841858,0.04100000113248825 0.625,0.041999999433755875 0.9330000281333923,0.00800000037997961 c0.3009999990463257,-0.032999999821186066 0.5920000076293945,-0.10300000011920929 0.8610000014305115,-0.20200000703334808 c0.26600000262260437,-0.0989999994635582 0.5120000243186951,-0.2280000001192093 0.7239999771118164,-0.38199999928474426 c0.335999995470047,-0.2460000067949295 0.5929999947547913,-0.5649999976158142 0.722000002861023,-0.9440000057220459 c0.11599999666213989,-0.34200000762939453 0.12800000607967377,-0.7390000224113464 -0.003000000026077032,-1.1790000200271606 l0,0 c-0.03099999949336052,-0.10400000214576721 -0.07100000232458115,-0.19599999487400055 -0.11699999868869781,-0.2709999978542328 c-0.050999999046325684,-0.0820000022649765 -0.10400000214576721,-0.14900000393390656 -0.1679999977350235,-0.20399999618530273 c-0.05900000035762787,-0.05400000140070915 -0.12800000607967377,-0.0989999994635582 -0.1979999989271164,-0.1340000033378601 c-0.07599999755620956,-0.03799999877810478 -0.15700000524520874,-0.06499999761581421 -0.23499999940395355,-0.08100000023841858 c-0.07500000298023224,-0.014999999664723873 -0.1459999978542328,-0.020999999716877937 -0.21199999749660492,-0.020999999716877937 c-0.06300000101327896,0.0010000000474974513 -0.12399999797344208,0.009999999776482582 -0.17399999499320984,0.024000000208616257 h-0.0010000000474974513 l-0.026000000536441803,0.00800000037997961 l-0.1289999932050705,0.14300000667572021 l-0.16899999976158142,-0.15000000596046448 l-0.675000011920929,-0.6039999723434448 l-0.17000000178813934,-0.1509999930858612 l0.15299999713897705,-0.16899999976158142 c0.07699999958276749,-0.08699999749660492 0.17299999296665192,-0.164000004529953 0.2809999883174896,-0.2290000021457672 c0.1080000028014183,-0.06300000101327896 0.22699999809265137,-0.11599999666213989 0.3529999852180481,-0.15199999511241913 c0.15199999511241913,-0.04500000178813934 0.3240000009536743,-0.07199999690055847 0.5090000033378601,-0.07699999958276749 c0.17000000178813934,-0.004000000189989805 0.35199999809265137,0.009999999776482582 0.5299999713897705,0.04699999839067459 c0.19300000369548798,0.03999999910593033 0.3880000114440918,0.10400000214576721 0.5740000009536743,0.19699999690055847 c0.17100000381469727,0.08500000089406967 0.33799999952316284,0.1979999989271164 0.49399998784065247,0.3370000123977661 c0.1550000011920929,0.1379999965429306 0.2980000078678131,0.30399999022483826 0.4169999957084656,0.4970000088214874 c0.10899999737739563,0.17800000309944153 0.20200000703334808,0.3799999952316284 0.27000001072883606,0.6060000061988831 c0.21699999272823334,0.7379999756813049 0.19499999284744263,1.4119999408721924 -0.004000000189989805,2.000999927520752 c-0.22100000083446503,0.6470000147819519 -0.656000018119812,1.1890000104904175 -1.2230000495910645,1.6019999980926514 c-0.3109999895095825,0.2280000001192093 -0.6620000004768372,0.41499999165534973 -1.0390000343322754,0.5550000071525574 l0,0 c-0.37700000405311584,0.1420000046491623 -0.7820000052452087,0.23899999260902405 -1.1950000524520874,0.28600001335144043 c-0.41499999165534973,0.04500000178813934 -0.843999981880188,0.041999999433755875 -1.2710000276565552,-0.014999999664723873 c-0.4099999964237213,-0.0560000017285347 -0.8180000185966492,-0.16200000047683716 -1.2050000429153442,-0.3230000138282776 c-0.8420000076293945,-0.3499999940395355 -1.600000023841858,-0.9520000219345093 -2.125,-1.843000054359436 c-0.4560000002384186,-0.7730000019073486 -0.7319999933242798,-1.7640000581741333 -0.7350000143051147,-2.99399995803833 c-0.0020000000949949026,-0.7419999837875366 0.12099999934434891,-1.4420000314712524 0.34700000286102295,-2.0869998931884766 c0.23600000143051147,-0.675000011920929 0.5879999995231628,-1.2910000085830688 1.0290000438690186,-1.8309999704360962 c0.4519999921321869,-0.5540000200271606 1.0010000467300415,-1.0299999713897705 1.6160000562667847,-1.409000039100647 c0.6150000095367432,-0.3799999952316284 1.3020000457763672,-0.6650000214576721 2.0260000228881836,-0.8389999866485596 c0.3269999921321869,-0.07800000160932541 0.6629999876022339,-0.13699999451637268 1.0010000467300415,-0.17399999499320984 c0.33500000834465027,-0.03700000047683716 0.6800000071525574,-0.05400000140070915 1.0290000438690186,-0.050999999046325684 c0.7900000214576721,0.007000000216066837 1.593999981880188,0.12399999797344208 2.364000082015991,0.35600000619888306 c0.7319999933242798,0.22100000083446503 1.4390000104904175,0.546999990940094 2.0820000171661377,0.9850000143051147 c0.6949999928474426,0.47099998593330383 1.315000057220459,1.0750000476837158 1.8170000314712524,1.815000057220459 h0.0010000000474974513 c0.4620000123977661,0.6840000152587891 0.8220000267028809,1.4839999675750732 1.0449999570846558,2.4110000133514404 c0.0860000029206276,0.3569999933242798 0.14900000393390656,0.7319999933242798 0.1899999976158142,1.121000051498413 c0.04100000113248825,0.37599998712539673 0.061000000685453415,0.7739999890327454 0.05700000002980232,1.190000057220459 c-0.004000000189989805,0.35899999737739563 -0.02500000037252903,0.7059999704360962 -0.061000000685453415,1.0379999876022339 c-0.012000000104308128,0.12200000137090683 -0.027000000700354576,0.24199999868869781 -0.04399999976158142,0.3610000014305115 c0.5609999895095825,-0.4560000002384186 1.1360000371932983,-0.8230000138282776 1.715999960899353,-1.1100000143051147 c0.8069999814033508,-0.4009999930858612 1.6239999532699585,-0.6480000019073486 2.4210000038146973,-0.7630000114440918 c0.6039999723434448,-0.0860000029206276 1.1979999542236328,-0.09700000286102295 1.7710000276565552,-0.041999999433755875 c0.6000000238418579,0.057999998331069946 1.1729999780654907,0.18799999356269836 1.7089999914169312,0.3790000081062317 l0,0 C112.4101333618164,44.36260026693344 112.5661392211914,44.424600541591644 112.72114562988281,44.49460023641586 M120.4862289428711,49.709600389003754 c-0.6169999837875366,-0.23600000143051147 -1.090999960899353,-0.6150000095367432 -1.4279999732971191,-1.0820000171661377 c-0.3619999885559082,-0.5019999742507935 -0.5630000233650208,-1.1050000190734863 -0.6129999756813049,-1.7410000562667847 c-0.024000000208616257,-0.2919999957084656 -0.014999999664723873,-0.5929999947547913 0.027000000700354576,-0.8960000276565552 c0.03999999910593033,-0.3009999990463257 0.11299999803304672,-0.6039999723434448 0.2160000056028366,-0.8980000019073486 c0.10300000011920929,-0.2980000078678131 0.23800000548362732,-0.5879999995231628 0.39899998903274536,-0.8629999756813049 c0.1589999943971634,-0.2680000066757202 0.3479999899864197,-0.5239999890327454 0.5630000233650208,-0.7599999904632568 c0.5479999780654907,-0.6039999723434448 1.2710000276565552,-1.0800000429153442 2.1459999084472656,-1.3140000104904175 c0.7710000276565552,-0.20600000023841858 1.659999966621399,-0.22499999403953552 2.6500000953674316,0.02199999988079071 c0.671999990940094,0.16699999570846558 1.253000020980835,0.4399999976158142 1.7480000257492065,0.7919999957084656 c0.5350000262260437,0.3779999911785126 0.968999981880188,0.8460000157356262 1.3029999732971191,1.371000051498413 c0.22300000488758087,0.34700000286102295 0.4020000100135803,0.7170000076293945 0.5400000214576721,1.0989999771118164 c0.14000000059604645,0.39399999380111694 0.23899999260902405,0.8080000281333923 0.2939999997615814,1.2269999980926514 c0.0560000017285347,0.4059999883174896 0.07100000232458115,0.8159999847412109 0.04800000041723251,1.2239999771118164 c-0.02199999988079071,0.4099999964237213 -0.08299999684095383,0.8180000185966492 -0.18199999630451202,1.2100000381469727 c-0.16300000250339508,0.6589999794960022 -0.4339999854564667,1.284999966621399 -0.7990000247955322,1.8259999752044678 l0,0 c-0.35199999809265137,0.5210000276565552 -0.7929999828338623,0.9700000286102295 -1.315999984741211,1.305999994277954 c-0.9950000047683716,0.6340000033378601 -1.9759999513626099,0.9390000104904175 -2.930999994277954,0.9909999966621399 c-1.065000057220459,0.05700000002980232 -2.0920000076293945,-0.20100000500679016 -3.055999994277954,-0.6620000004768372 c-0.7879999876022339,-0.3799999952316284 -1.5299999713897705,-0.8960000276565552 -2.2160000801086426,-1.4819999933242798 c-0.625,-0.5370000004768372 -1.2039999961853027,-1.1339999437332153 -1.7280000448226929,-1.7419999837875366 l-0.003000000026077032,0.10700000077486038 c-0.012000000104308128,0.2680000066757202 -0.04699999839067459,0.5419999957084656 -0.10700000077486038,0.8159999847412109 c-0.2199999988079071,0.9879999756813049 -0.6240000128746033,1.7450000047683716 -1.1339999437332153,2.3010001182556152 c-0.5849999785423279,0.6380000114440918 -1.312000036239624,1.0089999437332153 -2.059000015258789,1.1579999923706055 c-0.296999990940094,0.05700000002980232 -0.6019999980926514,0.07999999821186066 -0.902999997138977,0.06800000369548798 c-0.3089999854564667,-0.009999999776482582 -0.6119999885559082,-0.05700000002980232 -0.8980000019073486,-0.13500000536441803 l0,0 c-0.2879999876022339,-0.07699999958276749 -0.5680000185966492,-0.1889999955892563 -0.828000009059906,-0.33000001311302185 h-0.0010000000474974513 c-0.257999986410141,-0.14000000059604645 -0.4970000088214874,-0.3109999895095825 -0.7120000123977661,-0.5070000290870667 c-0.46299999952316284,-0.42399999499320984 -0.800000011920929,-0.9670000076293945 -0.9359999895095825,-1.597000002861023 c-0.12300000339746475,-0.5659999847412109 -0.08100000023841858,-1.2009999752044678 0.1809999942779541,-1.8799999952316284 l0.07999999821186066,-0.21199999749660492 l0.210999995470047,0.08100000023841858 l0.8460000157356262,0.3240000009536743 l0.21199999749660492,0.08100000023841858 l-0.08100000023841858,0.21199999749660492 c-0.15299999713897705,0.4000000059604645 -0.1809999942779541,0.7699999809265137 -0.1120000034570694,1.093000054359436 c0.07199999690055847,0.35499998927116394 0.2619999945163727,0.6589999794960022 0.5210000276565552,0.8970000147819519 h-0.0010000000474974513 c0.1289999932050705,0.11900000274181366 0.27900001406669617,0.22499999403953552 0.4429999887943268,0.31299999356269836 c0.16500000655651093,0.08699999749660492 0.3449999988079071,0.1599999964237213 0.5329999923706055,0.20800000429153442 h0.0010000000474974513 c0.19200000166893005,0.054999999701976776 0.3930000066757202,0.0860000029206276 0.5910000205039978,0.09399999678134918 c0.1940000057220459,0.00800000037997961 0.3959999978542328,-0.00800000037997961 0.5920000076293945,-0.04899999871850014 c0.48500001430511475,-0.0949999988079071 0.9599999785423279,-0.34599998593330383 1.347000002861023,-0.7789999842643738 c0.3449999988079071,-0.38999998569488525 0.6240000128746033,-0.9269999861717224 0.781000018119812,-1.6330000162124634 c0.11800000071525574,-0.5339999794960022 0.0989999994635582,-1.059999942779541 -0.03799999877810478,-1.5529999732971191 c-0.1459999978542328,-0.5220000147819519 -0.42100000381469727,-1.0130000114440918 -0.7950000166893005,-1.440000057220459 c-0.2630000114440918,-0.30000001192092896 -0.5740000009536743,-0.5730000138282776 -0.9309999942779541,-0.8069999814033508 c-0.3499999940395355,-0.23199999332427979 -0.7419999837875366,-0.42800000309944153 -1.159000039100647,-0.5789999961853027 l0,0 c-0.43799999356269836,-0.1550000011920929 -0.9020000100135803,-0.2619999945163727 -1.3890000581741333,-0.3070000112056732 c-0.4659999907016754,-0.04500000178813934 -0.949999988079071,-0.035999998450279236 -1.444000005722046,0.035999998450279236 c-0.9340000152587891,0.13300000131130219 -1.8990000486373901,0.48899999260902405 -2.8399999141693115,1.1169999837875366 c-0.8539999723434448,0.5690000057220459 -1.687999963760376,1.3630000352859497 -2.4590001106262207,2.421999931335449 c-0.4950000047683716,0.9169999957084656 -1.1430000066757202,1.7009999752044678 -1.8969999551773071,2.3450000286102295 c-0.7990000247955322,0.6850000023841858 -1.7200000286102295,1.2139999866485596 -2.7109999656677246,1.5889999866485596 c-0.6330000162124634,0.23899999260902405 -1.2970000505447388,0.41600000858306885 -1.9769999980926514,0.5260000228881836 c-0.6819999814033508,0.11100000143051147 -1.3819999694824219,0.15800000727176666 -2.0820000171661377,0.14100000262260437 c-0.7049999833106995,-0.019999999552965164 -1.409000039100647,-0.10499999672174454 -2.0959999561309814,-0.2529999911785126 c-0.6830000281333923,-0.14900000393390656 -1.350000023841858,-0.36000001430511475 -1.9889999628067017,-0.6380000114440918 c-0.9589999914169312,-0.41200000047683716 -1.8589999675750732,-0.972000002861023 -2.6570000648498535,-1.6710000038146973 c-0.7480000257492065,-0.6539999842643738 -1.402999997138977,-1.434000015258789 -1.9320000410079956,-2.3380000591278076 c-0.628000020980835,-0.5389999747276306 -1.3109999895095825,-0.9380000233650208 -1.996999979019165,-1.2059999704360962 c-0.7459999918937683,-0.28999999165534973 -1.5,-0.4259999990463257 -2.2039999961853027,-0.4189999997615814 c-0.2809999883174896,0.0020000000949949026 -0.5559999942779541,0.028999999165534973 -0.8180000185966492,0.07900000363588333 c-0.25999999046325684,0.04800000041723251 -0.5090000033378601,0.11900000274181366 -0.7400000095367432,0.20999999344348907 c-0.22200000286102295,0.09000000357627869 -0.4320000112056732,0.20000000298023224 -0.6209999918937683,0.3310000002384186 c-0.1850000023841858,0.125 -0.3499999940395355,0.2709999978542328 -0.49399998784065247,0.4339999854564667 c-0.20399999618530273,0.23199999332427979 -0.3659999966621399,0.5040000081062317 -0.4729999899864197,0.8119999766349792 c-0.10400000214576721,0.2980000078678131 -0.1589999943971634,0.6309999823570251 -0.1550000011920929,0.996999979019165 c0.006000000052154064,0.5460000038146973 0.13500000536441803,1.003000020980835 0.3440000116825104,1.3730000257492065 c0.23199999332427979,0.41100001335144043 0.5659999847412109,0.7139999866485596 0.9399999976158142,0.9110000133514404 V52.078599870204926 c0.14499999582767487,0.07500000298023224 0.29499998688697815,0.13300000131130219 0.44699999690055847,0.1770000010728836 c0.1550000011920929,0.04500000178813934 0.3140000104904175,0.0729999989271164 0.47099998593330383,0.08500000089406967 h0.0010000000474974513 c0.15700000524520874,0.012000000104308128 0.3100000023841858,0.00800000037997961 0.4560000002384186,-0.012000000104308128 c0.14300000667572021,-0.019999999552965164 0.28299999237060547,-0.05400000140070915 0.414000004529953,-0.10199999809265137 c0.2590000033378601,-0.09700000286102295 0.4860000014305115,-0.25999999046325684 0.652999997138977,-0.48500001430511475 c0.1459999978542328,-0.1940000057220459 0.24699999392032623,-0.4390000104904175 0.2849999964237213,-0.7369999885559082 l0.004999999888241291,-0.0560000017285347 l0.0020000000949949026,-0.020999999716877937 c0.004999999888241291,-0.07500000298023224 0.0020000000949949026,-0.15199999511241913 -0.013000000268220901,-0.22499999403953552 l0,0 c-0.014000000432133675,-0.06800000369548798 -0.03500000014901161,-0.1289999932050705 -0.06499999761581421,-0.18000000715255737 c-0.017000000923871994,-0.03099999949336052 -0.03799999877810478,-0.0560000017285347 -0.05700000002980232,-0.07000000029802322 c-0.00800000037997961,-0.006000000052154064 -0.01600000075995922,-0.009999999776482582 -0.024000000208616257,-0.014000000432133675 h-0.007000000216066837 l-0.012000000104308128,-0.0010000000474974513 l-0.2280000001192093,-0.01899999938905239 l0.019999999552965164,-0.2280000001192093 l0.010999999940395355,-0.125 v-0.10899999737739563 l0.009999999776482582,0.0010000000474974513 l0.05900000035762787,-0.671999990940094 l0.019999999552965164,-0.22699999809265137 l0.22599999606609344,0.019999999552965164 l0.013000000268220901,0 l0.009999999776482582,0.003000000026077032 c0.25,0.024000000208616257 0.46700000762939453,0.10700000077486038 0.6539999842643738,0.23000000417232513 l-0.0010000000474974513,0 c0.20000000298023224,0.13300000131130219 0.36399999260902405,0.3160000145435333 0.48500001430511475,0.5260000228881836 c0.10199999809265137,0.17399999499320984 0.17399999499320984,0.3700000047683716 0.21899999678134918,0.5730000138282776 c0.0430000014603138,0.20499999821186066 0.057999998331069946,0.41999998688697815 0.04100000113248825,0.6269999742507935 l-0.0020000000949949026,0.020999999716877937 l-0.003000000026077032,0.01600000075995922 c-0.061000000685453415,0.5950000286102295 -0.25999999046325684,1.0920000076293945 -0.5569999814033508,1.4880000352859497 c-0.32600000500679016,0.4339999854564667 -0.7680000066757202,0.7459999918937683 -1.2660000324249268,0.9330000281333923 c-0.2240000069141388,0.08799999952316284 -0.460999995470047,0.1459999978542328 -0.7049999833106995,0.17900000512599945 c-0.24400000274181366,0.03500000014901161 -0.49399998784065247,0.04100000113248825 -0.7429999709129333,0.023000000044703484 c-0.24699999392032623,-0.019999999552965164 -0.4970000088214874,-0.06599999964237213 -0.7409999966621399,-0.13600000739097595 c-0.2370000034570694,-0.06800000369548798 -0.47699999809265137,-0.16300000250339508 -0.7059999704360962,-0.28200000524520874 c-0.5899999737739563,-0.3100000023841858 -1.1160000562667847,-0.781000018119812 -1.4809999465942383,-1.4149999618530273 c-0.3240000009536743,-0.5600000023841858 -0.5249999761581421,-1.2480000257492065 -0.5329999923706055,-2.059999942779541 c-0.004000000189989805,-0.5389999747276306 0.07800000160932541,-1.0329999923706055 0.23499999940395355,-1.4780000448226929 c0.16500000655651093,-0.4699999988079071 0.41499999165534973,-0.8859999775886536 0.7300000190734863,-1.2430000305175781 c0.21400000154972076,-0.24300000071525574 0.460999995470047,-0.45899999141693115 0.7329999804496765,-0.6470000147819519 c0.2750000059604645,-0.1889999955892563 0.5789999961853027,-0.35100001096725464 0.9039999842643738,-0.47999998927116394 c0.3100000023841858,-0.12399999797344208 0.6389999985694885,-0.21799999475479126 0.9819999933242798,-0.28200000524520874 c0.3409999907016754,-0.06400000303983688 0.6980000138282776,-0.10000000149011612 1.065000057220459,-0.10400000214576721 c0.6159999966621399,-0.006000000052154064 1.2619999647140503,0.07500000298023224 1.906000018119812,0.24799999594688416 c0.44999998807907104,0.12099999934434891 0.9039999842643738,0.2879999876022339 1.350000023841858,0.5009999871253967 c-0.1340000033378601,-0.46000000834465027 -0.23999999463558197,-0.9430000185966492 -0.3140000104904175,-1.4470000267028809 c-0.0989999994635582,-0.6700000166893005 -0.1459999978542328,-1.3830000162124634 -0.13199999928474426,-2.13700008392334 c0.003000000026077032,-0.21299999952316284 0.012000000104308128,-0.4169999957084656 0.024000000208616257,-0.6100000143051147 c0.014000000432133675,-0.20200000703334808 0.028999999165534973,-0.39899998903274536 0.04899999871850014,-0.5910000205039978 c0.17299999296665192,-1.597000002861023 0.6240000128746033,-3.0399999618530273 1.2910000085830688,-4.308000087738037 c0.7080000042915344,-1.3459999561309814 1.6579999923706055,-2.494999885559082 2.7739999294281006,-3.4230000972747803 l0.0020000000949949026,-0.0020000000949949026 l0.13199999928474426,-0.10899999737739563 l-0.013000000268220901,-0.017000000923871994 l0.18199999630451202,-0.1379999965429306 c1.2339999675750732,-0.9480000138282776 2.236999988555908,-2.00600004196167 3.0239999294281006,-3.0969998836517334 c0.8600000143051147,-1.1970000267028809 1.4600000381469727,-2.437000036239624 1.8109999895095825,-3.621000051498413 c0.18400000035762787,-0.6179999709129333 0.30000001192092896,-1.2209999561309814 0.3499999940395355,-1.7920000553131104 c0.050999999046325684,-0.578000009059906 0.032999999821186066,-1.1230000257492065 -0.04899999871850014,-1.6180000305175781 c-0.07699999958276749,-0.4659999907016754 -0.2150000035762787,-0.8870000243186951 -0.4059999883174896,-1.2480000257492065 l0,0 c-0.18299999833106995,-0.3449999988079071 -0.4180000126361847,-0.6359999775886536 -0.699999988079071,-0.8539999723434448 l-0.004000000189989805,-0.0010000000474974513 c-0.21299999952316284,-0.16699999570846558 -0.45899999141693115,-0.29600000381469727 -0.7319999933242798,-0.38199999928474426 h-0.0010000000474974513 c-0.27000001072883606,-0.0860000029206276 -0.5699999928474426,-0.12999999523162842 -0.8960000276565552,-0.1289999932050705 c-0.7200000286102295,0.0010000000474974513 -1.3109999895095825,0.1860000044107437 -1.7760000228881836,0.48500001430511475 c-0.5199999809265137,0.335999995470047 -0.8870000243186951,0.8209999799728394 -1.1039999723434448,1.3650000095367432 c-0.07900000363588333,0.1940000057220459 -0.13600000739097595,0.39899998903274536 -0.17800000309944153,0.6079999804496765 c-0.0430000014603138,0.21400000154972076 -0.06499999761581421,0.4300000071525574 -0.06599999964237213,0.6420000195503235 c-0.0010000000474974513,0.20999999344348907 0.014999999664723873,0.42399999499320984 0.05000000074505806,0.6330000162124634 c0.035999998450279236,0.20499999821186066 0.08900000154972076,0.40400001406669617 0.1599999964237213,0.5920000076293945 c0.17599999904632568,0.4659999907016754 0.46799999475479126,0.8730000257492065 0.8709999918937683,1.152999997138977 c0.3619999885559082,0.25200000405311584 0.8190000057220459,0.40299999713897705 1.3669999837875366,0.40299999713897705 c0.1589999943971634,0 0.3089999854564667,-0.03200000151991844 0.4429999887943268,-0.08500000089406967 h0.0010000000474974513 c0.14900000393390656,-0.05999999865889549 0.289000004529953,-0.1509999930858612 0.41100001335144043,-0.2590000033378601 c0.08299999684095383,-0.07400000095367432 0.15700000524520874,-0.1550000011920929 0.22200000286102295,-0.23899999260902405 c0.06700000166893005,-0.08799999952316284 0.125,-0.1809999942779541 0.17000000178813934,-0.27300000190734863 c0.041999999433755875,-0.0860000029206276 0.07500000298023224,-0.1720000058412552 0.09700000286102295,-0.25600001215934753 l0,0 c0.019999999552965164,-0.07800000160932541 0.029999999329447746,-0.15399999916553497 0.029999999329447746,-0.22699999809265137 c0,-0.04699999839067459 -0.004999999888241291,-0.08900000154972076 -0.014999999664723873,-0.12099999934434891 l0,0 c-0.007000000216066837,-0.02199999988079071 -0.01600000075995922,-0.039000000804662704 -0.023000000044703484,-0.04899999871850014 l-0.15000000596046448,-0.16899999976158142 l0.16899999976158142,-0.15000000596046448 l0.6790000200271606,-0.6039999723434448 l0.17000000178813934,-0.1509999930858612 l0.15000000596046448,0.17000000178813934 c0.12999999523162842,0.1459999978542328 0.22499999403953552,0.3109999895095825 0.2879999876022339,0.48899999260902405 c0.06400000303983688,0.18400000035762787 0.09600000083446503,0.38100001215934753 0.09600000083446503,0.5839999914169312 c0,0.17299999296665192 -0.023000000044703484,0.35499998927116394 -0.07000000029802322,0.5389999747276306 c-0.04500000178813934,0.18000000715255737 -0.1120000034570694,0.3619999885559082 -0.20000000298023224,0.5419999957084656 h0.0010000000474974513 c-0.08399999886751175,0.17100000381469727 -0.18799999356269836,0.3409999907016754 -0.3089999854564667,0.5 h-0.0010000000474974513 c-0.11900000274181366,0.15700000524520874 -0.2540000081062317,0.30300000309944153 -0.3970000147819519,0.43299999833106995 c-0.23999999463558197,0.210999995470047 -0.5189999938011169,0.39100000262260437 -0.828000009059906,0.5130000114440918 c-0.28700000047683716,0.1120000034570694 -0.6000000238418579,0.1770000010728836 -0.9330000281333923,0.1770000010728836 c-0.8529999852180481,0 -1.569000005722046,-0.23899999260902405 -2.1449999809265137,-0.6389999985694885 c-0.6349999904632568,-0.4399999976158142 -1.093000054359436,-1.0779999494552612 -1.3669999837875366,-1.8020000457763672 c-0.10100000351667404,-0.26899999380111694 -0.17800000309944153,-0.550000011920929 -0.22699999809265137,-0.8370000123977661 c-0.05000000074505806,-0.28600001335144043 -0.0729999989271164,-0.5830000042915344 -0.07000000029802322,-0.8809999823570251 c0.004000000189989805,-0.29899999499320984 0.03500000014901161,-0.6000000238418579 0.09300000220537186,-0.890999972820282 c0.054999999701976776,-0.28700000047683716 0.1379999965429306,-0.5730000138282776 0.25,-0.8500000238418579 c0.3149999976158142,-0.7940000295639038 0.8510000109672546,-1.50600004196167 1.6089999675750732,-2 c0.6700000166893005,-0.43799999356269836 1.5130000114440918,-0.7049999833106995 2.5320000648498535,-0.7080000042915344 c0.4790000021457672,-0.0010000000474974513 0.925000011920929,0.06599999964237213 1.3300000429153442,0.19599999487400055 c0.421999990940094,0.13699999451637268 0.8009999990463257,0.33799999952316284 1.1360000371932983,0.5979999899864197 l0.2029999941587448,0.15800000727176666 L94.41998291015625,20.398601472377777 c0.3370000123977661,0.30300000309944153 0.621999979019165,0.6710000038146973 0.8500000238418579,1.0889999866485596 c0.2750000059604645,0.5009999871253967 0.4650000035762787,1.0750000476837158 0.5690000057220459,1.7029999494552612 c0.10000000149011612,0.5989999771118164 0.12200000137090683,1.2510000467300415 0.06400000303983688,1.934000015258789 c-0.054999999701976776,0.6669999957084656 -0.1889999955892563,1.3680000305175781 -0.4000000059604645,2.0829999446868896 c-0.25200000405311584,0.8450000286102295 -0.6159999966621399,1.7139999866485596 -1.0950000286102295,2.5799999237060547 c-0.3370000123977661,0.6079999804496765 -0.7319999933242798,1.2130000591278076 -1.184999942779541,1.8070000410079956 c0.46299999952316284,-0.13699999451637268 0.9369999766349792,-0.24699999392032623 1.4140000343322754,-0.32600000500679016 c0.7289999723434448,-0.12200000137090683 1.4739999771118164,-0.17800000309944153 2.2239999771118164,-0.16300000250339508 c0.18799999356269836,0.003000000026077032 0.367000013589859,0.010999999940395355 0.5410000085830688,0.020999999716877937 c0.17800000309944153,0.010999999940395355 0.35600000619888306,0.026000000536441803 0.5289999842643738,0.04500000178813934 c1.6649999618530273,0.18000000715255737 3.2909998893737793,0.7289999723434448 4.864999771118164,1.5729999542236328 c1.5709999799728394,0.8399999737739563 3.0940001010894775,1.9739999771118164 4.563000202178955,3.325000047683716 c1.4470000267028809,1.3320000171661377 2.8469998836517334,2.878999948501587 4.191999912261963,4.571000099182129 c1.343999981880188,1.687000036239624 2.634999990463257,3.5209999084472656 3.864000082015991,5.427999973297119 c0.6449999809265137,0.9980000257492065 1.5449999570846558,2.2290000915527344 2.618000030517578,3.3010001182556152 c0.7990000247955322,0.7950000166893005 1.6929999589920044,1.5049999952316284 2.6470000743865967,1.965000033378601 c0.7599999904632568,0.3619999885559082 1.562999963760376,0.5669999718666077 2.3949999809265137,0.5220000147819519 c0.7379999756813049,-0.04100000113248825 1.5010000467300415,-0.2770000100135803 2.2769999504089355,-0.7720000147819519 c0.367000013589859,-0.23499999940395355 0.6819999814033508,-0.5590000152587891 0.9330000281333923,-0.9390000104904175 c0.26600000262260437,-0.40299999713897705 0.46700000762939453,-0.871999979019165 0.5920000076293945,-1.371999979019165 c0.07599999755620956,-0.3109999895095825 0.12600000202655792,-0.6349999904632568 0.14499999582767487,-0.9599999785423279 c0.017999999225139618,-0.3230000138282776 0.006000000052154064,-0.6480000019073486 -0.03799999877810478,-0.9679999947547913 c-0.04399999976158142,-0.32199999690055847 -0.11800000071525574,-0.640999972820282 -0.22699999809265137,-0.9459999799728394 c-0.10400000214576721,-0.2930000126361847 -0.23899999260902405,-0.5730000138282776 -0.40400001406669617,-0.8309999704360962 c-0.24199999868869781,-0.3790000081062317 -0.5580000281333923,-0.7179999947547913 -0.9459999799728394,-0.9929999709129333 c-0.3619999885559082,-0.25600001215934753 -0.7889999747276306,-0.45500001311302185 -1.284999966621399,-0.5789999961853027 v0 c-0.7350000143051147,-0.18299999833106995 -1.3880000114440918,-0.17399999499320984 -1.9459999799728394,-0.029999999329447746 c-0.6230000257492065,0.16099999845027924 -1.1339999437332153,0.4950000047683716 -1.5190000534057617,0.9169999957084656 c-0.15199999511241913,0.1679999977350235 -0.2849999964237213,0.3499999940395355 -0.39899998903274536,0.5419999957084656 c-0.11699999868869781,0.1979999989271164 -0.21299999952316284,0.40299999713897705 -0.2849999964237213,0.6129999756813049 c-0.07199999690055847,0.20600000023841858 -0.12300000339746475,0.41600000858306885 -0.1509999930858612,0.625 c-0.027000000700354576,0.2070000022649765 -0.03400000184774399,0.414000004529953 -0.01899999938905239,0.6150000095367432 c0.029999999329447746,0.382999986410141 0.1469999998807907,0.7429999709129333 0.35499998927116394,1.0369999408721924 c0.1899999976158142,0.26899999380111694 0.460999995470047,0.48500001430511475 0.8130000233650208,0.6200000047683716 l0.21199999749660492,0.0820000022649765 l-0.08100000023841858,0.20999999344348907 l-0.32199999690055847,0.8489999771118164 l-0.0820000022649765,0.21299999952316284 L120.4862289428711,49.709600389003754 z" id="svg_6" class=""/><path fill-rule="evenodd" clip-rule="evenodd" fill="#BB8D40" d="M96.49098205566406,42.0465983748436 c0.38199999928474426,0 0.7289999723434448,0.1550000011920929 0.9789999723434448,0.4059999883174896 v0 h0.0010000000474974513 c0.25099998712539673,0.25 0.4059999883174896,0.5989999771118164 0.4059999883174896,0.9800000190734863 c0,0.38199999928474426 -0.1550000011920929,0.7289999723434448 -0.40700000524520874,0.9800000190734863 l0.0010000000474974513,0.0010000000474974513 c-0.25099998712539673,0.25 -0.5979999899864197,0.4059999883174896 -0.9800000190734863,0.4059999883174896 c-0.3840000033378601,0 -0.7289999723434448,-0.1550000011920929 -0.9800000190734863,-0.4059999883174896 c-0.25099998712539673,-0.25099998712539673 -0.4059999883174896,-0.5989999771118164 -0.4059999883174896,-0.9810000061988831 c0,-0.38199999928474426 0.1550000011920929,-0.7300000190734863 0.4059999883174896,-0.9800000190734863 l0,0 C95.76298522949219,42.20059770345688 96.10798645019531,42.0465983748436 96.49098205566406,42.0465983748436 M82.6349868774414,49.004598557949066 c0.382999986410141,0 0.7289999723434448,0.15600000321865082 0.9800000190734863,0.40700000524520874 v0 l0.0010000000474974513,0 c0.25,0.25 0.4059999883174896,0.5979999899864197 0.4059999883174896,0.9800000190734863 c0,0.38199999928474426 -0.15600000321865082,0.7289999723434448 -0.4059999883174896,0.9789999723434448 l0,0 c-0.25099998712539673,0.25200000405311584 -0.5979999899864197,0.40799999237060547 -0.9810000061988831,0.40799999237060547 c-0.38199999928474426,0 -0.7289999723434448,-0.15600000321865082 -0.9800000190734863,-0.40799999237060547 l0,0 c-0.25099998712539673,-0.25 -0.4059999883174896,-0.597000002861023 -0.4059999883174896,-0.9789999723434448 c0,-0.38199999928474426 0.1550000011920929,-0.7289999723434448 0.4059999883174896,-0.9800000190734863 v-0.0010000000474974513 C81.906982421875,49.15960115194321 82.25398254394531,49.004598557949066 82.6349868774414,49.004598557949066 zM110.0941162109375,48.311597764492035 c0.38199999928474426,0 0.7289999723434448,0.15600000321865082 0.9789999723434448,0.40799999237060547 l0.0010000000474974513,0 l0,0 c0.25200000405311584,0.25 0.40700000524520874,0.597000002861023 0.40700000524520874,0.9789999723434448 c0,0.38199999928474426 -0.15399999916553497,0.7300000190734863 -0.40700000524520874,0.9800000190734863 v0.0020000000949949026 c-0.25,0.25 -0.597000002861023,0.4059999883174896 -0.9789999723434448,0.4059999883174896 s-0.7289999723434448,-0.15600000321865082 -0.9800000190734863,-0.4059999883174896 c-0.25099998712539673,-0.25200000405311584 -0.4059999883174896,-0.5989999771118164 -0.4059999883174896,-0.9819999933242798 c0,-0.382999986410141 0.1550000011920929,-0.7289999723434448 0.4059999883174896,-0.9789999723434448 l0.0010000000474974513,0 C109.3661117553711,48.46759980916977 109.71210479736328,48.311597764492035 110.0941162109375,48.311597764492035 zM120.99922943115234,47.05959886312485 c0.3799999952316284,0 0.7289999723434448,0.1550000011920929 0.9789999723434448,0.40700000524520874 l0.0010000000474974513,0 l0,0 c0.25099998712539673,0.25099998712539673 0.4059999883174896,0.5989999771118164 0.4059999883174896,0.9800000190734863 s-0.15399999916553497,0.7289999723434448 -0.4059999883174896,0.9800000190734863 v0 c-0.25099998712539673,0.25 -0.5989999771118164,0.4059999883174896 -0.9800000190734863,0.4059999883174896 c-0.382999986410141,0 -0.7300000190734863,-0.15600000321865082 -0.9810000061988831,-0.4059999883174896 s-0.4059999883174896,-0.5979999899864197 -0.4059999883174896,-0.9810000061988831 s0.1550000011920929,-0.7300000190734863 0.4059999883174896,-0.9810000061988831 h0.0010000000474974513 C120.26922607421875,47.21359819173813 120.61722564697266,47.05959886312485 120.99922943115234,47.05959886312485 zM92.37498474121094,23.75060075521469 c0.38199999928474426,0 0.7289999723434448,0.1550000011920929 0.9789999723434448,0.40700000524520874 v0 l0,0 c0.2529999911785126,0.25 0.40700000524520874,0.5979999899864197 0.40700000524520874,0.9800000190734863 c0,0.38199999928474426 -0.15299999713897705,0.7279999852180481 -0.40700000524520874,0.9789999723434448 v0 c-0.25099998712539673,0.25099998712539673 -0.597000002861023,0.40700000524520874 -0.9789999723434448,0.40700000524520874 c-0.3840000033378601,0 -0.7300000190734863,-0.15600000321865082 -0.9789999723434448,-0.40700000524520874 c-0.25200000405311584,-0.25 -0.40700000524520874,-0.597000002861023 -0.40700000524520874,-0.9800000190734863 c0,-0.382999986410141 0.1550000011920929,-0.7300000190734863 0.40700000524520874,-0.9800000190734863 l0,0 C91.64598846435547,23.904601991176605 91.99198150634766,23.75060075521469 92.37498474121094,23.75060075521469 z" id="svg_7" class=""/><path fill="#BB8D40" d="M20.591115951538086,44.49460023641586 c0.8970000147819519,-1.2860000133514404 1.8240000009536743,-2.5209999084472656 2.7760000228881836,-3.674999952316284 c1.1330000162124634,-1.375 2.302999973297119,-2.6389999389648438 3.506999969482422,-3.746000051498413 c1.375,-1.2640000581741333 2.7909998893737793,-2.322999954223633 4.238999843597412,-3.1029999256134033 c1.440999984741211,-0.7770000100135803 2.9140000343322754,-1.281000018119812 4.410999774932861,-1.4429999589920044 c0.16300000250339508,-0.017999999225139618 0.3240000009536743,-0.03200000151991844 0.4819999933242798,-0.041999999433755875 c0.16300000250339508,-0.009999999776482582 0.3199999928474426,-0.017000000923871994 0.4659999907016754,-0.019999999552965164 c1.2690000534057617,-0.02500000037252903 2.5209999084472656,0.17599999904632568 3.694999933242798,0.5809999704360962 c1.1699999570846558,0.4050000011920929 2.265000104904175,1.0140000581741333 3.2190001010894775,1.805999994277954 c0.9810000061988831,0.8149999976158142 1.8179999589920044,1.8279999494552612 2.440000057220459,3.015000104904175 c0.5860000252723694,1.1200000047683716 0.9860000014305115,2.3980000019073486 1.1390000581741333,3.813999891281128 c0.01899999938905239,0.1809999942779541 0.03500000014901161,0.3630000054836273 0.04600000008940697,0.5429999828338623 c0.012000000104308128,0.18400000035762787 0.019999999552965164,0.3630000054836273 0.023000000044703484,0.5370000004768372 c0.03999999910593033,2.0920000076293945 -0.45100000500679016,3.8299999237060547 -1.2890000343322754,5.214000225067139 h0.0010000000474974513 c-0.9409999847412109,1.5540000200271606 -2.322999954223633,2.6670000553131104 -3.882999897003174,3.3410000801086426 c-0.5619999766349792,0.23899999260902405 -1.1480000019073486,0.42800000309944153 -1.74399995803833,0.5590000152587891 c-0.6069999933242798,0.1340000033378601 -1.2230000495910645,0.20999999344348907 -1.8339999914169312,0.2240000069141388 c-0.6140000224113464,0.017000000923871994 -1.2269999980926514,-0.023000000044703484 -1.8270000219345093,-0.125 c-0.5910000205039978,-0.0949999988079071 -1.1690000295639038,-0.24799999594688416 -1.7209999561309814,-0.4580000042915344 c-0.7009999752044678,-0.26600000262260437 -1.3630000352859497,-0.621999979019165 -1.9559999704360962,-1.0720000267028809 c-0.5040000081062317,-0.3799999952316284 -0.9589999914169312,-0.828000009059906 -1.3509999513626099,-1.340999960899353 l0.010999999940395355,-0.004999999888241291 l-0.11999999731779099,-0.19300000369548798 c-0.08500000089406967,-0.13500000536441803 -0.16599999368190765,-0.26100000739097595 -0.24500000476837158,-0.3779999911785126 c-0.08100000023841858,-0.12200000137090683 -0.16300000250339508,-0.23999999463558197 -0.24300000071525574,-0.3540000021457672 c-0.28299999237060547,-0.527999997138977 -0.5070000290870667,-1.1119999885559082 -0.6610000133514404,-1.746999979019165 c-0.1469999998807907,-0.6140000224113464 -0.23199999332427979,-1.2799999713897705 -0.23899999260902405,-1.9930000305175781 c-0.004000000189989805,-0.3580000102519989 0.013000000268220901,-0.703000009059906 0.04800000041723251,-1.031999945640564 c0.03500000014901161,-0.33799999952316284 0.09000000357627869,-0.656000018119812 0.16200000047683716,-0.9549999833106995 c0.18000000715255737,-0.75 0.4729999899864197,-1.399999976158142 0.847000002861023,-1.9550000429153442 c0.40299999713897705,-0.5950000286102295 0.902999997138977,-1.0809999704360962 1.4609999656677246,-1.4609999656677246 c0.527999997138977,-0.35899999737739563 1.1119999885559082,-0.628000020980835 1.718000054359436,-0.8100000023841858 c0.6449999809265137,-0.19300000369548798 1.315000057220459,-0.28999999165534973 1.9730000495910645,-0.296999990940094 c0.289000004529953,-0.0020000000949949026 0.5809999704360962,0.012000000104308128 0.8700000047683716,0.0430000014603138 c0.2879999876022339,0.03200000151991844 0.5690000057220459,0.08100000023841858 0.8360000252723694,0.14499999582767487 c0.578000009059906,0.1379999965429306 1.1260000467300415,0.3659999966621399 1.6200000047683716,0.6690000295639038 l0,-0.0010000000474974513 c0.4880000054836273,0.3019999861717224 0.9229999780654907,0.6779999732971191 1.281000018119812,1.1169999837875366 c0.34299999475479126,0.4189999997615814 0.6190000176429749,0.8980000019073486 0.8019999861717224,1.4259999990463257 c0.1770000010728836,0.5040000081062317 0.2720000147819519,1.0520000457763672 0.2709999978542328,1.6330000162124634 c-0.0020000000949949026,0.9380000233650208 -0.20100000500679016,1.684999942779541 -0.5299999713897705,2.259000062942505 c-0.36800000071525574,0.6449999809265137 -0.9010000228881836,1.0750000476837158 -1.49399995803833,1.3209999799728394 v0 c-0.27900001406669617,0.11500000208616257 -0.5740000009536743,0.19200000166893005 -0.871999979019165,0.2329999953508377 c-0.3100000023841858,0.04100000113248825 -0.625,0.041999999433755875 -0.9330000281333923,0.00800000037997961 c-0.30000001192092896,-0.032999999821186066 -0.5910000205039978,-0.10300000011920929 -0.8610000014305115,-0.20200000703334808 c-0.2669999897480011,-0.0989999994635582 -0.5109999775886536,-0.2280000001192093 -0.7229999899864197,-0.38199999928474426 c-0.335999995470047,-0.2460000067949295 -0.593999981880188,-0.5649999976158142 -0.722000002861023,-0.9440000057220459 c-0.11599999666213989,-0.34200000762939453 -0.12700000405311584,-0.7390000224113464 0.0020000000949949026,-1.1790000200271606 h0 c0.03099999949336052,-0.10400000214576721 0.07199999690055847,-0.19599999487400055 0.11699999868869781,-0.2709999978542328 c0.04899999871850014,-0.0820000022649765 0.10599999874830246,-0.14900000393390656 0.16699999570846558,-0.20399999618530273 c0.05999999865889549,-0.05400000140070915 0.12800000607967377,-0.0989999994635582 0.1979999989271164,-0.1340000033378601 c0.07800000160932541,-0.03799999877810478 0.1589999943971634,-0.06499999761581421 0.2370000034570694,-0.08100000023841858 c0.0729999989271164,-0.014999999664723873 0.1459999978542328,-0.020999999716877937 0.210999995470047,-0.020999999716877937 c0.06400000303983688,0.0010000000474974513 0.12399999797344208,0.009999999776482582 0.17399999499320984,0.024000000208616257 h0.0010000000474974513 l0.027000000700354576,0.00800000037997961 l0.12800000607967377,0.14300000667572021 l0.1679999977350235,-0.15000000596046448 l0.675000011920929,-0.6039999723434448 l0.17000000178813934,-0.1509999930858612 l-0.15199999511241913,-0.16899999976158142 c-0.07900000363588333,-0.08699999749660492 -0.17399999499320984,-0.164000004529953 -0.28299999237060547,-0.2290000021457672 c-0.10599999874830246,-0.06300000101327896 -0.22599999606609344,-0.11599999666213989 -0.35100001096725464,-0.15199999511241913 c-0.15299999713897705,-0.04500000178813934 -0.32600000500679016,-0.07199999690055847 -0.5090000033378601,-0.07699999958276749 c-0.17100000381469727,-0.004000000189989805 -0.35199999809265137,0.009999999776482582 -0.531000018119812,0.04699999839067459 c-0.19300000369548798,0.03999999910593033 -0.3880000114440918,0.10400000214576721 -0.5740000009536743,0.19699999690055847 c-0.17100000381469727,0.08500000089406967 -0.33899998664855957,0.1979999989271164 -0.4950000047683716,0.3370000123977661 c-0.15399999916553497,0.1379999965429306 -0.29600000381469727,0.30399999022483826 -0.41600000858306885,0.4970000088214874 c-0.10999999940395355,0.17800000309944153 -0.2029999941587448,0.3799999952316284 -0.27000001072883606,0.6060000061988831 c-0.21799999475479126,0.7379999756813049 -0.19599999487400055,1.4119999408721924 0.004000000189989805,2.000999927520752 c0.22100000083446503,0.6470000147819519 0.656000018119812,1.1890000104904175 1.222000002861023,1.6019999980926514 c0.3109999895095825,0.2280000001192093 0.6629999876022339,0.41499999165534973 1.0399999618530273,0.5550000071525574 h0 c0.3779999911785126,0.1420000046491623 0.7829999923706055,0.23899999260902405 1.1959999799728394,0.28600001335144043 c0.41499999165534973,0.04500000178813934 0.843999981880188,0.041999999433755875 1.2699999809265137,-0.014999999664723873 c0.41100001335144043,-0.0560000017285347 0.8169999718666077,-0.16200000047683716 1.2050000429153442,-0.3230000138282776 c0.843999981880188,-0.3499999940395355 1.6019999980926514,-0.9520000219345093 2.125999927520752,-1.843000054359436 c0.45500001311302185,-0.7730000019073486 0.7329999804496765,-1.7640000581741333 0.7360000014305115,-2.99399995803833 c0.0020000000949949026,-0.7419999837875366 -0.12099999934434891,-1.4420000314712524 -0.3479999899864197,-2.0869998931884766 c-0.2370000034570694,-0.675000011920929 -0.5889999866485596,-1.2910000085830688 -1.0290000438690186,-1.8309999704360962 c-0.453000009059906,-0.5540000200271606 -1.0010000467300415,-1.0299999713897705 -1.6169999837875366,-1.409000039100647 c-0.6159999966621399,-0.3799999952316284 -1.2999999523162842,-0.6650000214576721 -2.0250000953674316,-0.8389999866485596 c-0.3269999921321869,-0.07800000160932541 -0.6639999747276306,-0.13699999451637268 -1.0010000467300415,-0.17399999499320984 c-0.33500000834465027,-0.03700000047683716 -0.6809999942779541,-0.05400000140070915 -1.0299999713897705,-0.050999999046325684 c-0.7910000085830688,0.007000000216066837 -1.593999981880188,0.12399999797344208 -2.365000009536743,0.35600000619888306 c-0.7319999933242798,0.22100000083446503 -1.4390000104904175,0.546999990940094 -2.0829999446868896,0.9850000143051147 c-0.6930000185966492,0.47099998593330383 -1.315000057220459,1.0750000476837158 -1.8170000314712524,1.815000057220459 h0 c-0.460999995470047,0.6840000152587891 -0.8220000267028809,1.4839999675750732 -1.0440000295639038,2.4110000133514404 c-0.0860000029206276,0.3569999933242798 -0.1509999930858612,0.7319999933242798 -0.19200000166893005,1.121000051498413 c-0.03999999910593033,0.37599998712539673 -0.05900000035762787,0.7739999890327454 -0.054999999701976776,1.190000057220459 c0.004000000189989805,0.35899999737739563 0.023000000044703484,0.7059999704360962 0.057999998331069946,1.0379999876022339 c0.013000000268220901,0.12200000137090683 0.027000000700354576,0.24199999868869781 0.04399999976158142,0.3610000014305115 c-0.5609999895095825,-0.4560000002384186 -1.1349999904632568,-0.8230000138282776 -1.715000033378601,-1.1100000143051147 c-0.8059999942779541,-0.4009999930858612 -1.6230000257492065,-0.6480000019073486 -2.4200000762939453,-0.7630000114440918 c-0.6039999723434448,-0.0860000029206276 -1.1990000009536743,-0.09700000286102295 -1.7710000276565552,-0.041999999433755875 c-0.6000000238418579,0.057999998331069946 -1.1729999780654907,0.18799999356269836 -1.7089999914169312,0.3790000081062317 h0 C20.903118133544922,44.36260026693344 20.745115280151367,44.424600541591644 20.591115951538086,44.49460023641586 M12.826095581054688,49.709600389003754 c0.6179999709129333,-0.23600000143051147 1.090999960899353,-0.6150000095367432 1.4259999990463257,-1.0820000171661377 c0.3619999885559082,-0.5019999742507935 0.5640000104904175,-1.1050000190734863 0.6150000095367432,-1.7410000562667847 c0.023000000044703484,-0.2919999957084656 0.014000000432133675,-0.5929999947547913 -0.027000000700354576,-0.8960000276565552 c-0.041999999433755875,-0.3009999990463257 -0.11299999803304672,-0.6039999723434448 -0.2160000056028366,-0.8980000019073486 c-0.10300000011920929,-0.2980000078678131 -0.2370000034570694,-0.5879999995231628 -0.4000000059604645,-0.8629999756813049 c-0.1589999943971634,-0.2680000066757202 -0.34700000286102295,-0.5239999890327454 -0.5619999766349792,-0.7599999904632568 c-0.5490000247955322,-0.6039999723434448 -1.2719999551773071,-1.0800000429153442 -2.1470000743865967,-1.3140000104904175 c-0.7710000276565552,-0.20600000023841858 -1.659999966621399,-0.22499999403953552 -2.6500000953674316,0.02199999988079071 c-0.6710000038146973,0.16699999570846558 -1.253000020980835,0.4399999976158142 -1.7489999532699585,0.7919999957084656 c-0.5339999794960022,0.3779999911785126 -0.9670000076293945,0.8460000157356262 -1.3029999732971191,1.371000051498413 c-0.22200000286102295,0.34700000286102295 -0.4009999930858612,0.7170000076293945 -0.5379999876022339,1.0989999771118164 c-0.14100000262260437,0.39399999380111694 -0.23999999463558197,0.8080000281333923 -0.29600000381469727,1.2269999980926514 c-0.05400000140070915,0.4059999883174896 -0.06800000369548798,0.8159999847412109 -0.04600000008940697,1.2239999771118164 c0.02199999988079071,0.4099999964237213 0.08299999684095383,0.8180000185966492 0.1809999942779541,1.2100000381469727 c0.16500000655651093,0.6589999794960022 0.43299999833106995,1.284999966621399 0.800000011920929,1.8259999752044678 l0,0 c0.35100001096725464,0.5210000276565552 0.7919999957084656,0.9700000286102295 1.315000057220459,1.305999994277954 c0.9940000176429749,0.6340000033378601 1.9759999513626099,0.9390000104904175 2.928999900817871,0.9909999966621399 c1.0670000314712524,0.05700000002980232 2.0940001010894775,-0.20100000500679016 3.059000015258789,-0.6620000004768372 c0.7870000004768372,-0.3799999952316284 1.5299999713897705,-0.8960000276565552 2.2130000591278076,-1.4819999933242798 c0.6259999871253967,-0.5370000004768372 1.2059999704360962,-1.1339999437332153 1.7280000448226929,-1.7419999837875366 l0.003000000026077032,0.10700000077486038 c0.010999999940395355,0.2680000066757202 0.04699999839067459,0.5419999957084656 0.1080000028014183,0.8159999847412109 c0.2199999988079071,0.9879999756813049 0.6240000128746033,1.7450000047683716 1.1330000162124634,2.3010001182556152 c0.5860000252723694,0.6380000114440918 1.3109999895095825,1.0089999437332153 2.059000015258789,1.1579999923706055 c0.2980000078678131,0.05700000002980232 0.6019999980926514,0.07999999821186066 0.9020000100135803,0.06800000369548798 c0.3089999854564667,-0.009999999776482582 0.6129999756813049,-0.05700000002980232 0.8999999761581421,-0.13500000536441803 l0,0 c0.28700000047683716,-0.07699999958276749 0.5669999718666077,-0.1889999955892563 0.828000009059906,-0.33000001311302185 h0 c0.25699999928474426,-0.14000000059604645 0.49799999594688416,-0.3109999895095825 0.7110000252723694,-0.5070000290870667 c0.4620000123977661,-0.42399999499320984 0.800000011920929,-0.9670000076293945 0.9359999895095825,-1.597000002861023 c0.12200000137090683,-0.5659999847412109 0.07999999821186066,-1.2009999752044678 -0.18000000715255737,-1.8799999952316284 l-0.0820000022649765,-0.21199999749660492 l-0.210999995470047,0.08100000023841858 l-0.8450000286102295,0.3240000009536743 l-0.21199999749660492,0.08100000023841858 l0.0820000022649765,0.21199999749660492 c0.15299999713897705,0.4000000059604645 0.1809999942779541,0.7699999809265137 0.11299999803304672,1.093000054359436 c-0.07400000095367432,0.35499998927116394 -0.2630000114440918,0.6589999794960022 -0.5220000147819519,0.8970000147819519 h0 c-0.12999999523162842,0.11900000274181366 -0.27900001406669617,0.22499999403953552 -0.4440000057220459,0.31299999356269836 c-0.16500000655651093,0.08699999749660492 -0.3440000116825104,0.1599999964237213 -0.531000018119812,0.20800000429153442 h-0.0010000000474974513 c-0.19300000369548798,0.054999999701976776 -0.3930000066757202,0.0860000029206276 -0.5920000076293945,0.09399999678134918 c-0.19499999284744263,0.00800000037997961 -0.39500001072883606,-0.00800000037997961 -0.5929999947547913,-0.04899999871850014 c-0.48500001430511475,-0.0949999988079071 -0.9580000042915344,-0.34599998593330383 -1.3450000286102295,-0.7789999842643738 c-0.34599998593330383,-0.38999998569488525 -0.6240000128746033,-0.9269999861717224 -0.7820000052452087,-1.6330000162124634 c-0.11900000274181366,-0.5339999794960022 -0.09700000286102295,-1.059999942779541 0.039000000804662704,-1.5529999732971191 c0.14399999380111694,-0.5220000147819519 0.4189999997615814,-1.0130000114440918 0.7940000295639038,-1.440000057220459 c0.2619999945163727,-0.30000001192092896 0.5759999752044678,-0.5730000138282776 0.9290000200271606,-0.8069999814033508 c0.35100001096725464,-0.23199999332427979 0.7409999966621399,-0.42800000309944153 1.1619999408721924,-0.5789999961853027 l0,0 c0.4359999895095825,-0.1550000011920929 0.9010000228881836,-0.2619999945163727 1.3860000371932983,-0.3070000112056732 c0.4650000035762787,-0.04500000178813934 0.9509999752044678,-0.035999998450279236 1.4450000524520874,0.035999998450279236 c0.9319999814033508,0.13300000131130219 1.8990000486373901,0.48899999260902405 2.8410000801086426,1.1169999837875366 c0.8529999852180481,0.5690000057220459 1.687000036239624,1.3630000352859497 2.4579999446868896,2.421999931335449 c0.4950000047683716,0.9169999957084656 1.1430000066757202,1.7009999752044678 1.8969999551773071,2.3450000286102295 c0.800000011920929,0.6850000023841858 1.722000002861023,1.2139999866485596 2.7109999656677246,1.5889999866485596 c0.6330000162124634,0.23899999260902405 1.2979999780654907,0.41600000858306885 1.9759999513626099,0.5260000228881836 c0.6830000281333923,0.11100000143051147 1.3830000162124634,0.15800000727176666 2.0829999446868896,0.14100000262260437 c0.7049999833106995,-0.019999999552965164 1.409999966621399,-0.10499999672174454 2.0969998836517334,-0.2529999911785126 c0.6800000071525574,-0.14900000393390656 1.3480000495910645,-0.36000001430511475 1.9869999885559082,-0.6380000114440918 c0.9580000042915344,-0.41200000047683716 1.8600000143051147,-0.972000002861023 2.6579999923706055,-1.6710000038146973 c0.746999979019165,-0.6539999842643738 1.402999997138977,-1.434000015258789 1.930999994277954,-2.3380000591278076 c0.628000020980835,-0.5389999747276306 1.309999942779541,-0.9380000233650208 1.9989999532699585,-1.2059999704360962 c0.7450000047683716,-0.28999999165534973 1.4989999532699585,-0.4259999990463257 2.2019999027252197,-0.4189999997615814 c0.28200000524520874,0.0020000000949949026 0.5569999814033508,0.028999999165534973 0.8190000057220459,0.07900000363588333 c0.2590000033378601,0.04800000041723251 0.5080000162124634,0.11900000274181366 0.7400000095367432,0.20999999344348907 c0.22100000083446503,0.09000000357627869 0.4309999942779541,0.20000000298023224 0.621999979019165,0.3310000002384186 c0.18299999833106995,0.125 0.3479999899864197,0.2709999978542328 0.49300000071525574,0.4339999854564667 c0.20499999821186066,0.23199999332427979 0.3659999966621399,0.5040000081062317 0.4740000069141388,0.8119999766349792 c0.10300000011920929,0.2980000078678131 0.15800000727176666,0.6309999823570251 0.15399999916553497,0.996999979019165 c-0.006000000052154064,0.5460000038146973 -0.13500000536441803,1.003000020980835 -0.34299999475479126,1.3730000257492065 c-0.23399999737739563,0.41100001335144043 -0.5669999718666077,0.7139999866485596 -0.9399999976158142,0.9110000133514404 l-0.0010000000474974513,-0.0020000000949949026 c-0.14399999380111694,0.07500000298023224 -0.2939999997615814,0.13300000131130219 -0.44600000977516174,0.1770000010728836 c-0.15700000524520874,0.04500000178813934 -0.3149999976158142,0.0729999989271164 -0.47200000286102295,0.08500000089406967 h-0.0010000000474974513 c-0.15600000321865082,0.012000000104308128 -0.3089999854564667,0.00800000037997961 -0.4560000002384186,-0.012000000104308128 c-0.1420000046491623,-0.019999999552965164 -0.28200000524520874,-0.05400000140070915 -0.4129999876022339,-0.10199999809265137 c-0.257999986410141,-0.09700000286102295 -0.4869999885559082,-0.25999999046325684 -0.6539999842643738,-0.48500001430511475 c-0.14499999582767487,-0.1940000057220459 -0.24699999392032623,-0.4390000104904175 -0.2849999964237213,-0.7369999885559082 l-0.004999999888241291,-0.0560000017285347 l-0.0020000000949949026,-0.020999999716877937 c-0.006000000052154064,-0.07500000298023224 -0.0020000000949949026,-0.15199999511241913 0.013000000268220901,-0.22499999403953552 l0,0 c0.014000000432133675,-0.06800000369548798 0.03500000014901161,-0.1289999932050705 0.06400000303983688,-0.18000000715255737 c0.017999999225139618,-0.03099999949336052 0.03799999877810478,-0.0560000017285347 0.057999998331069946,-0.07000000029802322 c0.00800000037997961,-0.006000000052154064 0.01600000075995922,-0.009999999776482582 0.023000000044703484,-0.014000000432133675 h0.00800000037997961 l0.012000000104308128,-0.0010000000474974513 l0.22699999809265137,-0.01899999938905239 l-0.019999999552965164,-0.2280000001192093 l-0.010999999940395355,-0.125 v-0.10899999737739563 L50.84006118774414,49.95860093832016 l-0.057999998331069946,-0.671999990940094 l-0.019999999552965164,-0.22699999809265137 l-0.22699999809265137,0.019999999552965164 l-0.012000000104308128,0 l-0.010999999940395355,0.003000000026077032 c-0.24899999797344208,0.024000000208616257 -0.46700000762939453,0.10700000077486038 -0.652999997138977,0.23000000417232513 l0,0 c-0.20000000298023224,0.13300000131130219 -0.3630000054836273,0.3160000145435333 -0.4860000014305115,0.5260000228881836 c-0.10199999809265137,0.17399999499320984 -0.17499999701976776,0.3700000047683716 -0.21799999475479126,0.5730000138282776 c-0.0430000014603138,0.20499999821186066 -0.057999998331069946,0.41999998688697815 -0.04100000113248825,0.6269999742507935 l0.0010000000474974513,0.020999999716877937 l0.003000000026077032,0.01600000075995922 c0.05900000035762787,0.5950000286102295 0.2590000033378601,1.0920000076293945 0.5559999942779541,1.4880000352859497 c0.32499998807907104,0.4339999854564667 0.765999972820282,0.7459999918937683 1.2640000581741333,0.9330000281333923 c0.22499999403953552,0.08799999952316284 0.4620000123977661,0.1459999978542328 0.7049999833106995,0.17900000512599945 c0.24500000476837158,0.03500000014901161 0.4950000047683716,0.04100000113248825 0.7440000176429749,0.023000000044703484 c0.24799999594688416,-0.019999999552965164 0.49799999594688416,-0.06599999964237213 0.7429999709129333,-0.13600000739097595 c0.2370000034570694,-0.06800000369548798 0.4749999940395355,-0.16300000250339508 0.7039999961853027,-0.28200000524520874 c0.5899999737739563,-0.3100000023841858 1.1160000562667847,-0.781000018119812 1.4819999933242798,-1.4149999618530273 c0.32499998807907104,-0.5600000023841858 0.5239999890327454,-1.2480000257492065 0.5329999923706055,-2.059999942779541 c0.004999999888241291,-0.5389999747276306 -0.07699999958276749,-1.0329999923706055 -0.23499999940395355,-1.4780000448226929 c-0.16599999368190765,-0.4699999988079071 -0.414000004529953,-0.8859999775886536 -0.7289999723434448,-1.2430000305175781 c-0.2150000035762787,-0.24300000071525574 -0.4620000123977661,-0.45899999141693115 -0.7350000143051147,-0.6470000147819519 c-0.2750000059604645,-0.1889999955892563 -0.5789999961853027,-0.35100001096725464 -0.9010000228881836,-0.47999998927116394 c-0.3109999895095825,-0.12399999797344208 -0.6420000195503235,-0.21799999475479126 -0.984000027179718,-0.28200000524520874 c-0.3409999907016754,-0.06400000303983688 -0.6990000009536743,-0.10000000149011612 -1.065000057220459,-0.10400000214576721 c-0.6169999837875366,-0.006000000052154064 -1.2630000114440918,0.07500000298023224 -1.906000018119812,0.24799999594688416 c-0.45100000500679016,0.12099999934434891 -0.9039999842643738,0.2879999876022339 -1.3509999513626099,0.5009999871253967 c0.1340000033378601,-0.46000000834465027 0.23999999463558197,-0.9430000185966492 0.3149999976158142,-1.4470000267028809 c0.10100000351667404,-0.6700000166893005 0.14800000190734863,-1.3830000162124634 0.13300000131130219,-2.13700008392334 c-0.004000000189989805,-0.21299999952316284 -0.013000000268220901,-0.4169999957084656 -0.024000000208616257,-0.6100000143051147 c-0.012000000104308128,-0.20200000703334808 -0.029999999329447746,-0.39899998903274536 -0.05000000074505806,-0.5910000205039978 c-0.17299999296665192,-1.597000002861023 -0.625,-3.0399999618530273 -1.2899999618530273,-4.308000087738037 c-0.7080000042915344,-1.3459999561309814 -1.6579999923706055,-2.494999885559082 -2.7739999294281006,-3.4230000972747803 l-0.0020000000949949026,-0.0020000000949949026 l-0.1340000033378601,-0.10899999737739563 l0.014000000432133675,-0.017000000923871994 l-0.18000000715255737,-0.1379999965429306 c-1.2350000143051147,-0.9480000138282776 -2.239000082015991,-2.00600004196167 -3.0239999294281006,-3.0969998836517334 c-0.8610000014305115,-1.1970000267028809 -1.4600000381469727,-2.437000036239624 -1.8109999895095825,-3.621000051498413 c-0.18400000035762787,-0.6179999709129333 -0.30000001192092896,-1.2209999561309814 -0.3499999940395355,-1.7920000553131104 c-0.05000000074505806,-0.578000009059906 -0.032999999821186066,-1.1230000257492065 0.04899999871850014,-1.6180000305175781 c0.07800000160932541,-0.4659999907016754 0.21400000154972076,-0.8870000243186951 0.4050000011920929,-1.2480000257492065 l0,0 c0.18400000035762787,-0.3449999988079071 0.4189999997615814,-0.6359999775886536 0.7020000219345093,-0.8539999723434448 l0.003000000026077032,-0.0010000000474974513 c0.21400000154972076,-0.16699999570846558 0.45899999141693115,-0.29600000381469727 0.7329999804496765,-0.38199999928474426 h0.0010000000474974513 c0.27000001072883606,-0.0860000029206276 0.5699999928474426,-0.12999999523162842 0.8960000276565552,-0.1289999932050705 c0.7179999947547913,0.0010000000474974513 1.309999942779541,0.1860000044107437 1.7740000486373901,0.48500001430511475 c0.5220000147819519,0.335999995470047 0.8889999985694885,0.8209999799728394 1.1050000190734863,1.3650000095367432 c0.07800000160932541,0.1940000057220459 0.13699999451637268,0.39899998903274536 0.17900000512599945,0.6079999804496765 c0.04100000113248825,0.21400000154972076 0.06300000101327896,0.4300000071525574 0.06499999761581421,0.6420000195503235 c0.0020000000949949026,0.20999999344348907 -0.014000000432133675,0.42399999499320984 -0.05000000074505806,0.6330000162124634 c-0.03500000014901161,0.20499999821186066 -0.08799999952316284,0.40400001406669617 -0.1599999964237213,0.5920000076293945 c-0.17599999904632568,0.4659999907016754 -0.46799999475479126,0.8730000257492065 -0.8709999918937683,1.152999997138977 c-0.3619999885559082,0.25200000405311584 -0.8199999928474426,0.40299999713897705 -1.36899995803833,0.40299999713897705 c-0.15800000727176666,0 -0.3059999942779541,-0.03200000151991844 -0.4410000145435333,-0.08500000089406967 h-0.0010000000474974513 c-0.1509999930858612,-0.05999999865889549 -0.289000004529953,-0.1509999930858612 -0.41200000047683716,-0.2590000033378601 c-0.08299999684095383,-0.07400000095367432 -0.15700000524520874,-0.1550000011920929 -0.22200000286102295,-0.23899999260902405 c-0.06700000166893005,-0.08799999952316284 -0.125,-0.1809999942779541 -0.16899999976158142,-0.27300000190734863 c-0.0430000014603138,-0.0860000029206276 -0.07500000298023224,-0.1720000058412552 -0.09700000286102295,-0.25600001215934753 h0 c-0.01899999938905239,-0.07800000160932541 -0.028999999165534973,-0.15399999916553497 -0.028999999165534973,-0.22699999809265137 c0,-0.04699999839067459 0.004999999888241291,-0.08900000154972076 0.013000000268220901,-0.12099999934434891 l0,0 c0.006000000052154064,-0.02199999988079071 0.014999999664723873,-0.039000000804662704 0.023000000044703484,-0.04899999871850014 l0.1509999930858612,-0.16899999976158142 l-0.17000000178813934,-0.15000000596046448 l-0.6779999732971191,-0.6039999723434448 L40.02711868286133,24.09860223531723 l-0.1509999930858612,0.17000000178813934 c-0.1289999932050705,0.1459999978542328 -0.22499999403953552,0.3109999895095825 -0.28700000047683716,0.48899999260902405 c-0.06400000303983688,0.18400000035762787 -0.09700000286102295,0.38100001215934753 -0.09700000286102295,0.5839999914169312 c0,0.17299999296665192 0.02500000037252903,0.35499998927116394 0.07000000029802322,0.5389999747276306 c0.04500000178813934,0.18000000715255737 0.11299999803304672,0.3619999885559082 0.20000000298023224,0.5419999957084656 h0 c0.08399999886751175,0.17100000381469727 0.18799999356269836,0.3409999907016754 0.3089999854564667,0.5 h0.0010000000474974513 c0.11800000071525574,0.15700000524520874 0.25200000405311584,0.30300000309944153 0.3970000147819519,0.43299999833106995 c0.23899999260902405,0.210999995470047 0.5180000066757202,0.39100000262260437 0.828000009059906,0.5130000114440918 c0.28700000047683716,0.1120000034570694 0.5989999771118164,0.1770000010728836 0.9309999942779541,0.1770000010728836 c0.8539999723434448,0 1.5709999799728394,-0.23899999260902405 2.1459999084472656,-0.6389999985694885 c0.6349999904632568,-0.4399999976158142 1.093000054359436,-1.0779999494552612 1.3669999837875366,-1.8020000457763672 c0.10100000351667404,-0.26899999380111694 0.1770000010728836,-0.550000011920929 0.22699999809265137,-0.8370000123977661 c0.04800000041723251,-0.28600001335144043 0.07199999690055847,-0.5830000042915344 0.06800000369548798,-0.8809999823570251 c-0.003000000026077032,-0.29899999499320984 -0.032999999821186066,-0.6000000238418579 -0.09000000357627869,-0.890999972820282 c-0.0560000017285347,-0.28700000047683716 -0.14000000059604645,-0.5730000138282776 -0.25,-0.8500000238418579 c-0.31700000166893005,-0.7940000295639038 -0.8519999980926514,-1.50600004196167 -1.6100000143051147,-2 c-0.6700000166893005,-0.43799999356269836 -1.5149999856948853,-0.7049999833106995 -2.5320000648498535,-0.7080000042915344 c-0.48100000619888306,-0.0010000000474974513 -0.925000011920929,0.06599999964237213 -1.3300000429153442,0.19599999487400055 c-0.4230000078678131,0.13699999451637268 -0.8029999732971191,0.33799999952316284 -1.1360000371932983,0.5979999899864197 l-0.2029999941587448,0.15800000727176666 L38.892120361328125,20.398601472377777 c-0.33799999952316284,0.30300000309944153 -0.6240000128746033,0.6710000038146973 -0.8519999980926514,1.0889999866485596 c-0.2720000147819519,0.5009999871253967 -0.46299999952316284,1.0750000476837158 -0.5680000185966492,1.7029999494552612 c-0.10000000149011612,0.5989999771118164 -0.12300000339746475,1.2510000467300415 -0.06400000303983688,1.934000015258789 c0.05700000002980232,0.6669999957084656 0.1889999955892563,1.3680000305175781 0.40299999713897705,2.0829999446868896 c0.25,0.8450000286102295 0.6129999756813049,1.7139999866485596 1.0920000076293945,2.5799999237060547 c0.3370000123977661,0.6079999804496765 0.7319999933242798,1.2130000591278076 1.1859999895095825,1.8070000410079956 c-0.46399998664855957,-0.13699999451637268 -0.9369999766349792,-0.24699999392032623 -1.4160000085830688,-0.32600000500679016 c-0.7279999852180481,-0.12200000137090683 -1.4730000495910645,-0.17800000309944153 -2.2230000495910645,-0.16300000250339508 c-0.18700000643730164,0.003000000026077032 -0.367000013589859,0.010999999940395355 -0.5400000214576721,0.020999999716877937 c-0.18000000715255737,0.010999999940395355 -0.3569999933242798,0.026000000536441803 -0.531000018119812,0.04500000178813934 c-1.6660000085830688,0.18000000715255737 -3.2899999618530273,0.7289999723434448 -4.866000175476074,1.5729999542236328 c-1.569000005722046,0.8399999737739563 -3.0929999351501465,1.9739999771118164 -4.563000202178955,3.325000047683716 c-1.4479999542236328,1.3320000171661377 -2.8459999561309814,2.878999948501587 -4.191999912261963,4.571000099182129 c-1.343000054359436,1.687000036239624 -2.631999969482422,3.5209999084472656 -3.864000082015991,5.427999973297119 c-0.6439999938011169,0.9980000257492065 -1.5440000295639038,2.2290000915527344 -2.618000030517578,3.3010001182556152 c-0.7979999780654907,0.7950000166893005 -1.6920000314712524,1.5049999952316284 -2.6470000743865967,1.965000033378601 c-0.7599999904632568,0.3619999885559082 -1.5640000104904175,0.5669999718666077 -2.3940000534057617,0.5220000147819519 c-0.7379999756813049,-0.04100000113248825 -1.5010000467300415,-0.2770000100135803 -2.2769999504089355,-0.7720000147819519 c-0.367000013589859,-0.23499999940395355 -0.6800000071525574,-0.5590000152587891 -0.9319999814033508,-0.9390000104904175 c-0.26899999380111694,-0.40299999713897705 -0.46799999475479126,-0.871999979019165 -0.5920000076293945,-1.371999979019165 c-0.07800000160932541,-0.3109999895095825 -0.12700000405311584,-0.6349999904632568 -0.14399999380111694,-0.9599999785423279 c-0.01899999938905239,-0.3230000138282776 -0.007000000216066837,-0.6480000019073486 0.035999998450279236,-0.9679999947547913 c0.0430000014603138,-0.32199999690055847 0.11900000274181366,-0.640999972820282 0.22699999809265137,-0.9459999799728394 c0.10499999672174454,-0.2930000126361847 0.23999999463558197,-0.5730000138282776 0.40400001406669617,-0.8309999704360962 c0.24300000071525574,-0.3790000081062317 0.5569999814033508,-0.7179999947547913 0.9459999799728394,-0.9929999709129333 c0.3619999885559082,-0.25600001215934753 0.7900000214576721,-0.45500001311302185 1.2869999408721924,-0.5789999961853027 v0 c0.7350000143051147,-0.18299999833106995 1.3869999647140503,-0.17399999499320984 1.944000005722046,-0.029999999329447746 c0.6240000128746033,0.16099999845027924 1.1349999904632568,0.4950000047683716 1.5199999809265137,0.9169999957084656 c0.15199999511241913,0.1679999977350235 0.2849999964237213,0.3499999940395355 0.39899998903274536,0.5419999957084656 c0.11699999868869781,0.1979999989271164 0.21299999952316284,0.40299999713897705 0.28600001335144043,0.6129999756813049 c0.07100000232458115,0.20600000023841858 0.12300000339746475,0.41600000858306885 0.15000000596046448,0.625 c0.02800000086426735,0.2070000022649765 0.03400000184774399,0.414000004529953 0.01899999938905239,0.6150000095367432 c-0.03099999949336052,0.382999986410141 -0.1469999998807907,0.7429999709129333 -0.35600000619888306,1.0369999408721924 c-0.1899999976158142,0.26899999380111694 -0.45899999141693115,0.48500001430511475 -0.8109999895095825,0.6200000047683716 l-0.21199999749660492,0.0820000022649765 l0.07999999821186066,0.20999999344348907 l0.3230000138282776,0.8489999771118164 l0.0820000022649765,0.21299999952316284 L12.826095581054688,49.709600389003754 z" id="svg_8" class=""/><path fill-rule="evenodd" clip-rule="evenodd" fill="#BB8D40" d="M36.75913619995117,42.0465983748436 c-0.38199999928474426,0 -0.7289999723434448,0.1550000011920929 -0.9810000061988831,0.4059999883174896 v0 h0 c-0.25099998712539673,0.25 -0.4059999883174896,0.5989999771118164 -0.4059999883174896,0.9800000190734863 c0,0.38199999928474426 0.15399999916553497,0.7289999723434448 0.4059999883174896,0.9800000190734863 l0,0.0010000000474974513 c0.25099998712539673,0.25 0.5979999899864197,0.4059999883174896 0.9810000061988831,0.4059999883174896 c0.38199999928474426,0 0.7300000190734863,-0.1550000011920929 0.9800000190734863,-0.4059999883174896 c0.25099998712539673,-0.25099998712539673 0.40700000524520874,-0.5989999771118164 0.40700000524520874,-0.9810000061988831 c0,-0.38199999928474426 -0.15600000321865082,-0.7300000190734863 -0.40700000524520874,-0.9800000190734863 l0,0 C37.488128662109375,42.20059770345688 37.14113235473633,42.0465983748436 36.75913619995117,42.0465983748436 M50.61505889892578,49.004598557949066 c-0.38100001215934753,0 -0.7289999723434448,0.15600000321865082 -0.9800000190734863,0.40700000524520874 v0 l0,0 c-0.25099998712539673,0.25 -0.40700000524520874,0.5979999899864197 -0.40700000524520874,0.9800000190734863 c0,0.38199999928474426 0.1550000011920929,0.7289999723434448 0.40700000524520874,0.9789999723434448 l0,0 c0.25,0.25200000405311584 0.5979999899864197,0.40799999237060547 0.9800000190734863,0.40799999237060547 c0.382999986410141,0 0.7300000190734863,-0.15600000321865082 0.9810000061988831,-0.40799999237060547 l0,0 c0.25099998712539673,-0.25 0.4059999883174896,-0.597000002861023 0.4059999883174896,-0.9789999723434448 c0,-0.38199999928474426 -0.15600000321865082,-0.7289999723434448 -0.4059999883174896,-0.9800000190734863 l-0.0010000000474974513,-0.0010000000474974513 C51.34305953979492,49.15960115194321 50.9970588684082,49.004598557949066 50.61505889892578,49.004598557949066 zM23.156126022338867,48.311597764492035 c-0.38199999928474426,0 -0.7289999723434448,0.15600000321865082 -0.9810000061988831,0.40799999237060547 v0 h0 c-0.25,0.25 -0.4050000011920929,0.597000002861023 -0.4050000011920929,0.9789999723434448 c0,0.38199999928474426 0.15399999916553497,0.7300000190734863 0.4050000011920929,0.9800000190734863 v0.0020000000949949026 c0.25099998712539673,0.25 0.5989999771118164,0.4059999883174896 0.9810000061988831,0.4059999883174896 s0.7300000190734863,-0.15600000321865082 0.9810000061988831,-0.4059999883174896 c0.25,-0.25200000405311584 0.4059999883174896,-0.5989999771118164 0.4059999883174896,-0.9819999933242798 c0,-0.382999986410141 -0.1550000011920929,-0.7289999723434448 -0.4059999883174896,-0.9789999723434448 l-0.0010000000474974513,0 C23.885128021240234,48.46759980916977 23.53812599182129,48.311597764492035 23.156126022338867,48.311597764492035 zM12.251092910766602,47.05959886312485 c-0.38199999928474426,0 -0.7289999723434448,0.1550000011920929 -0.9789999723434448,0.40700000524520874 l0,0 h0 c-0.25099998712539673,0.25099998712539673 -0.40700000524520874,0.5989999771118164 -0.40700000524520874,0.9800000190734863 s0.15600000321865082,0.7289999723434448 0.40799999237060547,0.9800000190734863 l0,0 c0.25099998712539673,0.25 0.597000002861023,0.4059999883174896 0.9800000190734863,0.4059999883174896 c0.382999986410141,0 0.7300000190734863,-0.15600000321865082 0.9800000190734863,-0.4059999883174896 c0.25099998712539673,-0.25 0.40799999237060547,-0.5979999899864197 0.40799999237060547,-0.9810000061988831 s-0.15700000524520874,-0.7300000190734863 -0.40799999237060547,-0.9810000061988831 h0 C12.980094909667969,47.21359819173813 12.63409423828125,47.05959886312485 12.251092910766602,47.05959886312485 zM40.874114990234375,23.75060075521469 c-0.38100001215934753,0 -0.7289999723434448,0.1550000011920929 -0.9789999723434448,0.40700000524520874 v0 h0 c-0.25099998712539673,0.25 -0.40700000524520874,0.5979999899864197 -0.40700000524520874,0.9800000190734863 c0,0.38199999928474426 0.1550000011920929,0.7279999852180481 0.40700000524520874,0.9789999723434448 v0 c0.25,0.25099998712539673 0.597000002861023,0.40700000524520874 0.9789999723434448,0.40700000524520874 c0.382999986410141,0 0.7310000061988831,-0.15600000321865082 0.9819999933242798,-0.40700000524520874 c0.25099998712539673,-0.25 0.4059999883174896,-0.597000002861023 0.4059999883174896,-0.9800000190734863 c0,-0.382999986410141 -0.1550000011920929,-0.7300000190734863 -0.4059999883174896,-0.9800000190734863 h0 C41.6051139831543,23.904601991176605 41.25711441040039,23.75060075521469 40.874114990234375,23.75060075521469 z" id="svg_9" class=""/><path fill="#BB8D40" d="M46.02208709716797,32.81360048055649 l0,-27.93600082397461 V4.194601476192474 h0.6790000200271606 h39.904998779296875 h0.6819999814033508 v0.6830000281333923 v28.014999389648438 l-0.019999999552965164,0.1459999978542328 c-1.0779999494552612,4.888999938964844 -3.565999984741211,8.9399995803833 -6.920000076293945,12.12600040435791 c-3.697999954223633,3.513000011444092 -8.451000213623047,5.9710001945495605 -13.520000457763672,7.335999965667725 h-0.35100001096725464 c-5.063000202178955,-1.3630000352859497 -9.807000160217285,-3.8369998931884766 -13.501999855041504,-7.36299991607666 c-3.361999988555908,-3.2070000171661377 -5.857999801635742,-7.281000137329102 -6.938000202178955,-12.178000450134277 L46.02208709716797,32.81360048055649 zM46.02208709716797,1.3986014127731323 h41.266998291015625 v1.3639999628067017 H46.02208709716797 V1.3986014127731323 zM47.381072998046875,5.5586013197898865 L47.38007354736328,32.73760026693344 c1.0269999504089355,4.581999778747559 3.375,8.402000427246094 6.533999919891357,11.416000366210938 c3.4830000400543213,3.321000099182129 7.954999923706055,5.669000148773193 12.741000175476074,6.985000133514404 c4.794000148773193,-1.3179999589920044 9.272000312805176,-3.6500000953674316 12.755999565124512,-6.959000110626221 c3.1489999294281006,-2.990999937057495 5.48799991607666,-6.7829999923706055 6.513999938964844,-11.350000381469727 V5.5586013197898865 H47.381072998046875 z" id="svg_10" class=""/><path fill="#BB8D40" d="M68.83898162841797,27.141601502895355 l-1.9900000095367432,-6.177000045776367 h-0.20499999821186066 l-2.0480000972747803,6.177000045776367 H68.83898162841797 zM69.39898681640625,28.887601792812347 h-5.38100004196167 l-1.1119999885559082,3.361999988555908 h1.8070000410079956 v1.8550000190734863 h-5.848999977111816 v-1.8550000190734863 h1.7929999828338623 l4.048999786376953,-11.28499984741211 h-1.8040000200271606 v-1.6799999475479126 h7.616000175476074 v1.6799999475479126 h-1.8799999952316284 l4.150000095367432,11.28499984741211 h1.6579999923706055 v1.8550000190734863 h-5.806000232696533 v-1.8550000190734863 h1.8420000076293945 L69.39898681640625,28.887601792812347 z" id="svg_11" class=""/><path fill-rule="evenodd" clip-rule="evenodd" fill="#BB8D40" d="M102.85104370117188,80.55460160970688 V75.20860093832016 h1.847000002861023 v1.3079999685287476 c0.8880000114440918,1.6050000190734863 2.0480000972747803,2.4089999198913574 3.4790000915527344,2.4089999198913574 c0.7319999933242798,0 1.350000023841858,-0.22499999403953552 1.8519999980926514,-0.6700000166893005 c0.5040000081062317,-0.44699999690055847 0.7580000162124634,-1.0329999923706055 0.7580000162124634,-1.7589999437332153 c0,-0.703000009059906 -0.20800000429153442,-1.2059999704360962 -0.6159999966621399,-1.5140000581741333 c-0.4090000092983246,-0.3109999895095825 -1.184999942779541,-0.6179999709129333 -2.325000047683716,-0.925000011920929 c-1.3250000476837158,-0.3529999852180481 -2.305999994277954,-0.6869999766349792 -2.941999912261963,-1.0019999742507935 c-0.6389999985694885,-0.3149999976158142 -1.1480000019073486,-0.7680000066757202 -1.5260000228881836,-1.350000023841858 c-0.3779999911785126,-0.5839999914169312 -0.5690000057220459,-1.2760000228881836 -0.5690000057220459,-2.0769999027252197 c0,-1.2380000352859497 0.414000004529953,-2.2290000915527344 1.2380000352859497,-2.9670000076293945 c0.8270000219345093,-0.7379999756813049 1.8669999837875366,-1.1069999933242798 3.11299991607666,-1.1069999933242798 c1.1859999895095825,0 2.2880001068115234,0.38100001215934753 3.302000045776367,1.1449999809265137 v-0.9940000176429749 h1.8049999475479126 v4.479000091552734 h-1.8049999475479126 v-1.027999997138977 c-0.7609999775886536,-1.1430000066757202 -1.8040000200271606,-1.7109999656677246 -3.1429998874664307,-1.7109999656677246 c-0.8059999942779541,0 -1.4279999732971191,0.1860000044107437 -1.8619999885559082,0.5590000152587891 c-0.4309999942779541,0.3709999918937683 -0.6480000019073486,0.8199999928474426 -0.6480000019073486,1.3380000591278076 c0,0.3959999978542328 0.11100000143051147,0.7459999918937683 0.33000001311302185,1.0460000038146973 c0.22200000286102295,0.30399999022483826 0.5,0.5249999761581421 0.8410000205039978,0.6669999957084656 c0.34200000762939453,0.14100000262260437 1.0080000162124634,0.3409999907016754 2.007999897003174,0.6019999980926514 c1.3009999990463257,0.3400000035762787 2.247999906539917,0.6579999923706055 2.8369998931884766,0.953000009059906 c0.5889999866485596,0.2919999957084656 1.097000002861023,0.7820000052452087 1.5210000276565552,1.4709999561309814 c0.42500001192092896,0.6830000281333923 0.6380000114440918,1.4739999771118164 0.6380000114440918,2.365999937057495 c0,1.2569999694824219 -0.44600000977516174,2.296999931335449 -1.3359999656677246,3.115999937057495 c-0.8930000066757202,0.8199999928474426 -1.99399995803833,1.2319999933242798 -3.303999900817871,1.2319999933242798 c-1.350000023841858,0 -2.563999891281128,-0.48500001430511475 -3.6440000534057617,-1.4520000219345093 v1.2120000123977661 H102.85104370117188 zM91.6609878540039,73.62060350179672 l-1.9819999933242798,-6.1529998779296875 h-0.20200000703334808 l-2.0409998893737793,6.1529998779296875 H91.6609878540039 zM92.21898651123047,75.35960191488266 h-5.357999801635742 l-1.1100000143051147,3.3489999771118164 h1.8020000457763672 v1.847000002861023 h-5.827000141143799 V78.70860093832016 h1.7860000133514404 l4.033999919891357,-11.241000175476074 h-1.7990000247955322 v-1.6720000505447388 h7.589000225067139 v1.6720000505447388 h-1.8739999532699585 l4.135000228881836,11.241000175476074 h1.6519999504089355 v1.847000002861023 h-5.7829999923706055 V78.70860093832016 h1.8329999446868896 L92.21898651123047,75.35960191488266 zM67.92798614501953,78.70860093832016 V67.64060014486313 h-1.6759999990463257 v-1.8459999561309814 h5.6529998779296875 v1.8459999561309814 h-1.7380000352859497 v4.218999862670898 h6.392000198364258 v-4.218999862670898 h-1.7400000095367432 v-1.8459999561309814 h5.676000118255615 v1.8459999561309814 h-1.6950000524520874 V78.70860093832016 h1.6950000524520874 v1.847000002861023 h-5.676000118255615 V78.70860093832016 h1.7400000095367432 v-5.000999927520752 h-6.392000198364258 v5.000999927520752 h1.7380000352859497 v1.847000002861023 h-5.6529998779296875 V78.70860093832016 H67.92798614501953 zM53.77604293823242,80.55460160970688 V75.20860093832016 h1.8480000495910645 v1.3079999685287476 c0.8880000114440918,1.6050000190734863 2.0480000972747803,2.4089999198913574 3.4790000915527344,2.4089999198913574 c0.7310000061988831,0 1.3480000495910645,-0.22499999403953552 1.8519999980926514,-0.6700000166893005 c0.5040000081062317,-0.44699999690055847 0.7570000290870667,-1.0329999923706055 0.7570000290870667,-1.7589999437332153 c0,-0.703000009059906 -0.20600000023841858,-1.2059999704360962 -0.6169999837875366,-1.5140000581741333 c-0.4090000092983246,-0.31299999356269836 -1.184000015258789,-0.6159999966621399 -2.3259999752044678,-0.925000011920929 c-1.3259999752044678,-0.35100001096725464 -2.305000066757202,-0.6869999766349792 -2.943000078201294,-1.0019999742507935 c-0.6370000243186951,-0.3149999976158142 -1.1490000486373901,-0.765999972820282 -1.524999976158142,-1.350000023841858 c-0.3799999952316284,-0.5839999914169312 -0.5690000057220459,-1.2760000228881836 -0.5690000057220459,-2.0769999027252197 c0,-1.2380000352859497 0.414000004529953,-2.2269999980926514 1.2410000562667847,-2.9670000076293945 c0.8259999752044678,-0.7379999756813049 1.8650000095367432,-1.1069999933242798 3.111999988555908,-1.1069999933242798 c1.184999942779541,0 2.2869999408721924,0.38100001215934753 3.302000045776367,1.1449999809265137 v-0.9940000176429749 h1.8040000200271606 v4.479000091552734 h-1.8040000200271606 v-1.027999997138977 c-0.7609999775886536,-1.1430000066757202 -1.805999994277954,-1.7109999656677246 -3.1419999599456787,-1.7109999656677246 c-0.8080000281333923,0 -1.4279999732971191,0.1860000044107437 -1.8630000352859497,0.5590000152587891 c-0.4309999942779541,0.37299999594688416 -0.6480000019073486,0.8199999928474426 -0.6480000019073486,1.3380000591278076 c0,0.3959999978542328 0.10899999737739563,0.7459999918937683 0.32899999618530273,1.0460000038146973 c0.22200000286102295,0.3059999942779541 0.5,0.5249999761581421 0.8420000076293945,0.6669999957084656 c0.3400000035762787,0.14100000262260437 1.00600004196167,0.3409999907016754 2.006999969482422,0.6019999980926514 c1.3009999990463257,0.3400000035762787 2.246000051498413,0.6579999923706055 2.8369998931884766,0.953000009059906 c0.5879999995231628,0.2939999997615814 1.0950000286102295,0.7799999713897705 1.5219999551773071,1.4709999561309814 c0.42399999499320984,0.6850000023841858 0.6380000114440918,1.4739999771118164 0.6380000114440918,2.365999937057495 c0,1.2569999694824219 -0.44600000977516174,2.296999931335449 -1.3370000123977661,3.115999937057495 c-0.8920000195503235,0.8220000267028809 -1.9930000305175781,1.2319999933242798 -3.305000066757202,1.2319999933242798 c-1.3480000495910645,0 -2.562000036239624,-0.48500001430511475 -3.6419999599456787,-1.4520000219345093 v1.2120000123977661 H53.77604293823242 zM47.02608108520508,73.62060350179672 l-1.9830000400543213,-6.1529998779296875 H44.84009552001953 l-2.0399999618530273,6.1529998779296875 H47.02608108520508 zM47.584075927734375,75.35960191488266 h-5.360000133514404 l-1.1080000400543213,3.3489999771118164 h1.7999999523162842 v1.847000002861023 H37.09013748168945 V78.70860093832016 h1.7860000133514404 l4.0329999923706055,-11.241000175476074 h-1.7970000505447388 v-1.6720000505447388 h7.586999893188477 v1.6720000505447388 h-1.8730000257492065 l4.133999824523926,11.241000175476074 h1.6519999504089355 v1.847000002861023 H46.830081939697266 V78.70860093832016 h1.8329999446868896 L47.584075927734375,75.35960191488266 zM30.266141891479492,73.62060350179672 l-1.9830000400543213,-6.1529998779296875 h-0.20200000703334808 l-2.0399999618530273,6.1529998779296875 H30.266141891479492 zM99.09298706054688,65.55460160970688 h-0.014999999664723873 c-0.6859999895095825,0 -1.027999997138977,0.4560000002384186 -1.027999997138977,1.36899995803833 c0,0.2549999952316284 0.0820000022649765,0.8159999847412109 0.24199999868869781,1.6979999542236328 l0.5709999799728394,3.1429998874664307 h0.4699999988079071 l0.5709999799728394,-3.13100004196167 c0.18799999356269836,-1.0210000276565552 0.2750000059604645,-1.6729999780654907 0.2750000059604645,-1.9559999704360962 c0,-0.3100000023841858 -0.0989999994635582,-0.5759999752044678 -0.2980000078678131,-0.7950000166893005 C99.68900299072266,65.66960710287094 99.4229965209961,65.55860704183578 99.09298706054688,65.55460160970688 zM30.824146270751953,75.35960191488266 h-5.359000205993652 l-1.1089999675750732,3.3489999771118164 h1.8009999990463257 v1.847000002861023 H20.33011817932129 V78.70860093832016 h1.7860000133514404 l4.0329999923706055,-11.241000175476074 h-1.7970000505447388 v-1.6720000505447388 h7.5879998207092285 v1.6720000505447388 h-1.8739999532699585 l4.133999824523926,11.241000175476074 h1.652999997138977 v1.847000002861023 H30.07014274597168 V78.70860093832016 h1.8329999446868896 L30.824146270751953,75.35960191488266 z" id="svg_12" class=""/></g></svg>